<svg width="20" height="20" viewBox="0 0 20 20" fill="none" xmlns="http://www.w3.org/2000/svg">
<path d="M19.8801 0H0V20H19.8801V13.3993C19.9577 13.2862 20 13.1378 20 12.9611C20 12.7562 19.9577 12.629 19.8801 12.523" fill="url(#paint0_radial_5028_1650)"/>
<path d="M1.76795 8.86948L1.39209 7.9518L1.01623 8.86948H1.76795ZM10.0857 8.50102C10.0091 8.54968 9.91864 8.54968 9.81423 8.54968H9.13907V8.03522H9.82119C9.91863 8.03522 10.0161 8.04218 10.0857 8.07694C10.1553 8.1117 10.204 8.18122 10.204 8.27855C10.1971 8.38283 10.1553 8.46626 10.0857 8.50102ZM14.8675 8.86948L14.4847 7.9518L14.1019 8.86948H14.8675ZM5.95814 9.86364H5.39435V8.05608L4.59389 9.86364H4.10666L3.30621 8.05608V9.86364H2.17862L1.96981 9.34918H0.821333L0.605559 9.86364H0.00696087L0.995344 7.55552H1.81668L2.75634 9.7385V7.55552H3.65423L4.37812 9.11976L5.03936 7.55552H5.95814V9.86364ZM8.20637 9.86364H6.36185V7.55552H8.20637V8.03522H6.91868V8.45235H8.17852V8.9251H6.91868V9.38394H8.20637V9.86364ZM10.8096 8.17427C10.8096 8.54273 10.566 8.73044 10.4198 8.78606C10.5381 8.83472 10.6425 8.9112 10.6912 8.98072C10.7678 9.09195 10.7817 9.19624 10.7817 9.4048V9.85669H10.2249V9.5647C10.2249 9.42566 10.2388 9.22404 10.1344 9.11281C10.0509 9.02938 9.93256 9.01548 9.7307 9.01548H9.13907V9.85669H8.58919V7.54857H9.85599C10.1344 7.54857 10.3432 7.55552 10.5242 7.65981C10.7052 7.77104 10.8096 7.91704 10.8096 8.17427ZM11.6866 9.86364H11.1228V7.55552H11.6866V9.86364ZM18.2155 9.86364H17.4359L16.3919 8.13255V9.86364H15.2712L15.0554 9.34918H13.907L13.6982 9.86364H13.0508C12.7794 9.86364 12.4453 9.80107 12.2504 9.60641C12.0555 9.41175 11.958 9.14757 11.958 8.72349C11.958 8.38283 12.0207 8.06998 12.2573 7.8197C12.4383 7.63895 12.7167 7.54857 13.0926 7.54857H13.6286V8.04218H13.1065C12.9047 8.04218 12.7933 8.06998 12.6819 8.18122C12.5845 8.27855 12.5218 8.45931 12.5218 8.70263C12.5218 8.95291 12.5706 9.12671 12.675 9.2449C12.7585 9.33528 12.9116 9.36309 13.0578 9.36309H13.3084L14.0879 7.54857H14.9162L15.8489 9.73155V7.54857H16.6911L17.6586 9.15452V7.54857H18.2224V9.86364H18.2155ZM0 10.3155H0.93966L1.15543 9.80107H1.62874L1.83756 10.3155H3.68904V9.92621L3.85609 10.3225H4.82359L4.99064 9.92621V10.3225H9.59846V9.48127H9.68894C9.75158 9.48127 9.77247 9.48823 9.77247 9.59251V10.3225H12.1529V10.1278C12.3478 10.2321 12.6471 10.3225 13.0369 10.3225H14.0392L14.255 9.80803H14.7283L14.9371 10.3225H16.8721V9.83583L17.1645 10.3225H18.7097V7.09668H17.1784V7.47905L16.9626 7.09668H15.3895V7.47905L15.1947 7.09668H13.0717C12.7167 7.09668 12.4035 7.14535 12.1529 7.28439V7.09668H10.6843V7.28439C10.5242 7.14535 10.3015 7.09668 10.0578 7.09668H4.70526L4.34332 7.92399L3.97441 7.09668H2.28999V7.47905L2.10902 7.09668H0.668203L0 8.62616V10.3155Z" fill="white"/>
<path d="M20.0001 11.9223H18.9715C18.8715 11.9223 18.8001 11.9292 18.7429 11.9641C18.6858 11.9989 18.6572 12.0547 18.6572 12.1313C18.6572 12.2219 18.7072 12.2776 18.7787 12.3055C18.8358 12.3264 18.9001 12.3333 19.0001 12.3333L19.3072 12.3403C19.6144 12.3473 19.8215 12.403 19.9501 12.5284C19.9716 12.5493 19.9858 12.5633 20.0001 12.5842V11.9223ZM20.0001 13.4481C19.8644 13.6432 19.593 13.7407 19.2287 13.7407H18.1358V13.246H19.2215C19.3287 13.246 19.4073 13.2321 19.4501 13.1903C19.493 13.1555 19.5144 13.0997 19.5144 13.037C19.5144 12.9674 19.4858 12.9186 19.443 12.8837C19.4001 12.8489 19.343 12.835 19.243 12.835C18.7144 12.8141 18.0501 12.8489 18.0501 12.1174C18.0501 11.7829 18.2715 11.4276 18.8644 11.4276H19.993V10.9678H18.9572C18.6429 10.9678 18.4144 11.0444 18.2501 11.1559V10.9678H16.7C16.45 10.9678 16.1643 11.0305 16.0214 11.1559V10.9678H13.2571V11.1559C13.0356 11.0026 12.6642 10.9678 12.4928 10.9678H10.6641V11.1559C10.4927 10.9887 10.0998 10.9678 9.86412 10.9678H7.82121L7.35691 11.4624L6.92118 10.9678H3.87109V14.1936H6.86404L7.34262 13.6919L7.79978 14.1936H9.64269V13.4342H9.82126C10.0641 13.4411 10.357 13.4272 10.607 13.3227V14.1936H12.1285V13.3506H12.1999C12.2928 13.3506 12.2999 13.3575 12.2999 13.4481V14.1936H16.9215C17.2143 14.1936 17.5215 14.1169 17.6929 13.9846V14.1936H19.1715C19.4787 14.1936 19.7715 14.1518 20.0001 14.0473V13.4481ZM17.7429 12.5215C17.8501 12.6329 17.9144 12.7723 17.9144 13.0092C17.9144 13.5038 17.5929 13.7407 17.0286 13.7407H15.9286V13.246H17.0286C17.1358 13.246 17.2143 13.2321 17.2572 13.1903C17.2929 13.1555 17.3215 13.0997 17.3215 13.037C17.3215 12.9674 17.2929 12.9186 17.25 12.8837C17.2072 12.8489 17.15 12.835 17.05 12.835C16.5215 12.8141 15.8572 12.8489 15.8572 12.1174C15.8572 11.7829 16.0714 11.4276 16.6643 11.4276H17.8001V11.9223H16.7643C16.6643 11.9223 16.5929 11.9292 16.5357 11.9641C16.4715 11.9989 16.45 12.0547 16.45 12.1313C16.45 12.2219 16.5 12.2776 16.5715 12.3055C16.6286 12.3264 16.6929 12.3333 16.7929 12.3333L17.1 12.3403C17.4072 12.3473 17.6143 12.396 17.7429 12.5215ZM12.6356 12.3821C12.5571 12.4239 12.4642 12.4309 12.357 12.4309H11.6713V11.9153H12.3713C12.4713 11.9153 12.5713 11.9153 12.6428 11.9571C12.7142 11.992 12.7571 12.0686 12.7571 12.1661C12.7571 12.2567 12.7071 12.3403 12.6356 12.3821ZM12.9785 12.6678C13.1071 12.7165 13.2071 12.7932 13.2571 12.8628C13.3357 12.9743 13.3499 13.0788 13.3499 13.2878V13.7477H12.7785V13.462C12.7785 13.3227 12.7928 13.1206 12.6856 13.0092C12.5999 12.9256 12.4785 12.9047 12.2713 12.9047H11.6713V13.7477H11.0999V11.4346H12.4071C12.6928 11.4346 12.8999 11.4485 13.0856 11.546C13.2642 11.6506 13.3785 11.7969 13.3785 12.0616C13.3785 12.4239 13.1285 12.612 12.9785 12.6678ZM13.6928 11.4346H15.5786V11.9153H14.25V12.3333H15.5429V12.8071H14.25V13.2669H15.5786V13.7477H13.6928V11.4346ZM9.87126 12.5006H9.14267V11.9153H9.87841C10.0856 11.9153 10.2213 11.9989 10.2213 12.201C10.2284 12.396 10.0927 12.5006 9.87126 12.5006ZM8.57837 13.5317L7.70692 12.5911L8.57837 11.6784V13.5317ZM6.33545 13.26H4.94255V12.8001H6.18545V12.3264H4.94255V11.9083H6.36402L6.98547 12.5842L6.33545 13.26ZM10.8356 12.194C10.8356 12.835 10.3427 12.9674 9.84984 12.9674H9.14267V13.7407H8.04264L7.34262 12.9743L6.62117 13.7407H4.37825V11.4276H6.65689L7.34976 12.187L8.07121 11.4276H9.87841C10.3284 11.4346 10.8356 11.553 10.8356 12.194Z" fill="white"/>
<defs>
<radialGradient id="paint0_radial_5028_1650" cx="0" cy="0" r="1" gradientUnits="userSpaceOnUse" gradientTransform="translate(3.50762 3.49471) scale(18.6584 18.698)">
<stop stop-color="#9DD5F6"/>
<stop offset="0.0711" stop-color="#98D3F5"/>
<stop offset="0.1575" stop-color="#89CEF3"/>
<stop offset="0.2516" stop-color="#70C6EF"/>
<stop offset="0.3514" stop-color="#4EBBEA"/>
<stop offset="0.4546" stop-color="#23ADE3"/>
<stop offset="0.5" stop-color="#0DA6E0"/>
<stop offset="1" stop-color="#2E77BC"/>
</radialGradient>
</defs>
</svg>
