<svg width="120" height="36" viewBox="0 0 120 36" fill="none" xmlns="http://www.w3.org/2000/svg">
<rect width="120" height="36" rx="8" fill="black"/>
<rect x="0.5" y="0.5" width="119" height="35" rx="7.5" stroke="white" stroke-opacity="0.3"/>
<path d="M28.4403 7.2002C28.5741 8.3638 28.0923 9.51044 27.3882 10.3533C26.6535 11.183 25.4781 11.8176 24.3333 11.7359C24.1835 10.6162 24.7635 9.42562 25.4129 8.69923C26.1468 7.87492 27.4212 7.24338 28.4403 7.2002Z" fill="white"/>
<path d="M32.1879 13.9126C32.0602 13.9856 29.943 15.1951 29.9662 17.6618C29.9928 20.6406 32.6883 21.6253 32.7214 21.6361C32.7053 21.7055 32.2992 23.0573 31.2882 24.4299C30.4439 25.6382 29.5593 26.8195 28.1543 26.8411C27.4864 26.8558 27.0354 26.672 26.5654 26.4804C26.0752 26.2806 25.5643 26.0723 24.7651 26.0723C23.9179 26.0723 23.3843 26.2872 22.8698 26.4945C22.4249 26.6737 21.9942 26.8472 21.3872 26.8712C20.0491 26.9182 19.0268 25.5811 18.1519 24.3836C16.4029 21.9384 15.0414 17.493 16.8669 14.4679C17.7515 12.9843 19.3643 12.0289 21.0883 12.0034C21.8475 11.9886 22.5756 12.2686 23.2139 12.5141C23.7021 12.7019 24.1377 12.8694 24.4945 12.8694C24.8078 12.8694 25.2312 12.7086 25.7246 12.5211C26.5023 12.2257 27.454 11.8641 28.4234 11.9618C29.0864 11.9803 30.9732 12.2124 32.1905 13.9112L32.1879 13.9126Z" fill="white"/>
<path fill-rule="evenodd" clip-rule="evenodd" d="M75.2413 26.0251C75.8738 25.503 76.1889 24.8266 76.1889 23.9953C76.1889 23.3197 75.9733 22.7535 75.5411 22.3011C75.1074 21.8473 74.4331 21.4515 73.5151 21.1129C72.7647 20.842 72.2476 20.5908 71.963 20.3587C71.6359 20.1076 71.4731 19.7881 71.4731 19.4019C71.4731 19.053 71.6158 18.7586 71.9005 18.5169C72.2372 18.2467 72.707 18.1108 73.3083 18.1108C74.0691 18.1108 74.749 18.2607 75.3503 18.5603L75.7776 17.2839C75.1338 16.9748 74.3273 16.8198 73.3564 16.8198C72.2677 16.8198 71.397 17.0761 70.7444 17.5894C70.0894 18.102 69.7622 18.7608 69.7622 19.5642C69.7622 20.7935 70.6955 21.7283 72.5635 22.3665C73.2498 22.5993 73.7412 22.8512 74.0355 23.1222C74.3313 23.3932 74.4788 23.7273 74.4788 24.1239C74.4788 24.5689 74.3 24.9258 73.9417 25.1916C73.5817 25.4575 73.0806 25.5911 72.4368 25.5911C71.5397 25.5911 70.7163 25.3826 69.9659 24.9669L69.5698 26.2719C70.2665 26.678 71.1869 26.8807 72.335 26.8807C73.5785 26.8807 74.5462 26.5957 75.2413 26.0251ZM48.6141 26.7361H46.7934L45.7961 23.8655H42.3294L41.3793 26.7361H39.6067L43.0413 16.9632H45.1627L48.6141 26.7361ZM45.4953 22.6601L44.5933 20.1082C44.4979 19.8475 44.3191 19.2336 44.0554 18.2671H44.0233C43.9183 18.6828 43.7491 19.2967 43.5166 20.1082L42.6307 22.6601H45.4953ZM57.4466 23.1255C57.4466 24.324 57.093 25.2713 56.3859 25.9667C55.7525 26.5858 54.966 26.895 54.0272 26.895C53.0138 26.895 52.2858 26.5616 51.8425 25.8948H51.8104V29.607H50.1011V22.0085C50.1011 21.255 50.0795 20.4818 50.0378 19.6886H51.541L51.6364 20.8056H51.6685C52.2385 19.964 53.1036 19.544 54.2645 19.544C55.1721 19.544 55.9297 19.8722 56.5358 20.5295C57.1435 21.1875 57.4466 22.0526 57.4466 23.1255ZM55.7052 23.1819C55.7052 22.496 55.5368 21.9305 55.1985 21.4855C54.8289 21.0214 54.3326 20.7893 53.7105 20.7893C53.2888 20.7893 52.9055 20.9186 52.5632 21.1734C52.2201 21.4304 51.9956 21.766 51.8905 22.1817C51.8376 22.3756 51.8112 22.5342 51.8112 22.659V23.834C51.8112 24.3466 51.9827 24.7791 52.3259 25.1324C52.669 25.4856 53.1148 25.6619 53.6632 25.6619C54.307 25.6619 54.808 25.4342 55.1664 24.9804C55.5256 24.5258 55.7052 23.9265 55.7052 23.1819ZM65.2341 25.9667C65.942 25.2713 66.2956 24.324 66.2956 23.1255C66.2956 22.0526 65.9917 21.1875 65.3864 20.5295C64.7787 19.8722 64.0211 19.544 63.1143 19.544C61.9526 19.544 61.0876 19.964 60.5183 20.8056H60.4863L60.3909 19.6886H58.8876C58.9293 20.4818 58.9509 21.255 58.9509 22.0085V29.607H60.6602V25.8948H60.6923C61.1349 26.5616 61.8628 26.895 62.8762 26.895C63.815 26.895 64.6015 26.5858 65.2341 25.9667ZM64.0467 21.4855C64.385 21.9305 64.5542 22.496 64.5542 23.1819C64.5542 23.9265 64.3746 24.5258 64.0154 24.9804C63.657 25.4342 63.1559 25.6619 62.5122 25.6619C61.9622 25.6619 61.5164 25.4849 61.1733 25.1324C60.8317 24.7791 60.6602 24.3466 60.6602 23.834V22.659C60.6602 22.5342 60.6874 22.3756 60.7395 22.1817C60.8446 21.766 61.0682 21.4304 61.4114 21.1734C61.7545 20.9186 62.1369 20.7893 62.5595 20.7893C63.1824 20.7893 63.6771 21.0214 64.0467 21.4855ZM81.8403 20.864H79.9562V24.2854C79.9562 25.1556 80.2881 25.5904 80.9536 25.5904C81.259 25.5904 81.5124 25.5661 81.7128 25.5177L81.7601 26.7066C81.4234 26.8219 80.98 26.8799 80.4308 26.8799C79.7558 26.8799 79.2282 26.6912 78.8474 26.3145C78.4682 25.937 78.2774 25.304 78.2774 24.4146V20.8625H77.155V19.6875H78.2774V18.3972L79.9562 17.9331V19.6875H81.8403V20.864ZM90.3412 23.1548C90.3412 24.238 90.0029 25.1273 89.3278 25.8228C88.6199 26.5388 87.6803 26.8957 86.5089 26.8957C85.3801 26.8957 84.4814 26.5527 83.8111 25.8668C83.1409 25.1809 82.8058 24.3151 82.8058 23.2716C82.8058 22.1796 83.1505 21.2851 83.8424 20.5897C84.5327 19.8935 85.4643 19.5454 86.6356 19.5454C87.7645 19.5454 88.6728 19.8884 89.3583 20.575C90.0141 21.2411 90.3412 22.101 90.3412 23.1548ZM88.5677 23.2051C88.5677 22.5552 88.4162 21.9978 88.1091 21.533C87.7508 20.9704 87.2385 20.6899 86.5746 20.6899C85.8875 20.6899 85.3656 20.9712 85.0072 21.533C84.7002 21.9986 84.5487 22.5647 84.5487 23.2345C84.5487 23.8844 84.7002 24.4418 85.0072 24.9059C85.3768 25.4684 85.8932 25.749 86.5594 25.749C87.212 25.749 87.7243 25.4626 88.0939 24.8912C88.409 24.4176 88.5677 23.8543 88.5677 23.2051ZM95.8968 21.0656C95.7277 21.0369 95.5473 21.0222 95.3581 21.0222C94.7568 21.0222 94.2918 21.2301 93.9647 21.6465C93.68 22.0136 93.5373 22.4778 93.5373 23.0381V26.7356H91.8288L91.8449 21.9079C91.8449 21.0957 91.8232 20.3562 91.7807 19.6894H93.2696L93.3321 21.0377H93.3794C93.5598 20.5743 93.8444 20.2012 94.234 19.9214C94.6149 19.6695 95.0261 19.544 95.4695 19.544C95.6274 19.544 95.7702 19.5542 95.8968 19.5726V21.0656ZM103.541 22.8785C103.541 23.159 103.521 23.3955 103.479 23.5886H98.351C98.371 24.2848 98.6187 24.8172 99.095 25.1844C99.5271 25.5127 100.086 25.6772 100.772 25.6772C101.531 25.6772 102.224 25.5663 102.847 25.3438L103.115 26.4306C102.387 26.7214 101.527 26.8661 100.536 26.8661C99.3427 26.8661 98.4063 26.5445 97.7248 25.9019C97.0449 25.2593 96.7042 24.3964 96.7042 23.314C96.7042 22.2513 97.0209 21.3664 97.6551 20.6607C98.3189 19.9072 99.216 19.5305 100.345 19.5305C101.454 19.5305 102.293 19.9072 102.863 20.6607C103.314 21.2592 103.541 21.9995 103.541 22.8785ZM101.911 22.4729C101.923 22.0088 101.811 21.6078 101.58 21.2693C101.284 20.8338 100.829 20.6164 100.217 20.6164C99.6586 20.6164 99.204 20.8287 98.8569 21.2546C98.5723 21.5931 98.4031 21.9992 98.351 22.4722H101.911V22.4729Z" fill="white"/>
<g clip-path="url(#clip0_2794_1828)">
<path d="M75.5916 12.0081C75.5916 11.8161 75.6182 11.6028 75.6716 11.3681C75.7249 11.1334 75.8102 10.8748 75.9276 10.5921L76.5035 10.8161C76.4182 11.0401 76.3542 11.2454 76.3115 11.4321C76.2689 11.6188 76.2475 11.7921 76.2475 11.9521C76.2475 12.2454 76.3195 12.4828 76.4635 12.6641C76.6129 12.8508 76.8102 12.9868 77.0555 13.0721C77.3062 13.1574 77.5809 13.2001 77.8795 13.2001C78.2422 13.2001 78.5462 13.1601 78.7915 13.0801C79.0369 13.0054 79.2315 12.9014 79.3755 12.7681C79.5195 12.6348 79.6209 12.4828 79.6796 12.3121C79.7436 12.1468 79.7755 11.9734 79.7755 11.7921C79.7755 11.5574 79.7569 11.3361 79.7196 11.1281C79.6876 10.9201 79.6422 10.7174 79.5835 10.5201C79.5302 10.3174 79.4715 10.1121 79.4075 9.90409L80.0555 9.72809C80.1142 9.93076 80.1595 10.0961 80.1915 10.2241C80.2235 10.3468 80.2476 10.4454 80.2635 10.5201C80.2849 10.5948 80.3035 10.6614 80.3195 10.7201C80.3782 10.9174 80.4555 11.0641 80.5515 11.1601C80.6476 11.2508 80.7569 11.3121 80.8795 11.3441C81.0075 11.3708 81.1382 11.3841 81.2716 11.3841C81.3836 11.3841 81.4636 11.4161 81.5115 11.4801C81.5649 11.5388 81.5915 11.6108 81.5915 11.6961C81.5915 11.7814 81.5542 11.8614 81.4795 11.9361C81.4049 12.0054 81.3089 12.0401 81.1915 12.0401C80.9675 12.0401 80.7809 12.0028 80.6315 11.9281C80.4822 11.8481 80.3649 11.7494 80.2795 11.6321C80.1995 11.5148 80.1462 11.3921 80.1195 11.2641L80.4475 11.6721C80.4316 11.9441 80.3782 12.2081 80.2875 12.4641C80.2022 12.7254 80.0635 12.9601 79.8715 13.1681C79.6795 13.3814 79.4182 13.5494 79.0875 13.6721C78.7622 13.7948 78.3515 13.8561 77.8555 13.8561C77.5515 13.8561 77.2635 13.8188 76.9915 13.7441C76.7195 13.6694 76.4769 13.5548 76.2635 13.4001C76.0555 13.2508 75.8902 13.0588 75.7676 12.8241C75.6502 12.5948 75.5916 12.3228 75.5916 12.0081ZM78.0075 8.81609C77.8955 8.81609 77.7995 8.77876 77.7195 8.70409C77.6449 8.62409 77.6075 8.53076 77.6075 8.42409C77.6075 8.31742 77.6449 8.22409 77.7195 8.14409C77.7995 8.06409 77.8955 8.02409 78.0075 8.02409C78.1142 8.02409 78.2049 8.06409 78.2795 8.14409C78.3595 8.22409 78.3995 8.31742 78.3995 8.42409C78.3995 8.53076 78.3595 8.62409 78.2795 8.70409C78.2049 8.77876 78.1142 8.81609 78.0075 8.81609ZM81.1953 12.0401L81.2753 11.3841C81.4246 11.3841 81.55 11.3521 81.6513 11.2881C81.7526 11.2241 81.8513 11.1174 81.9473 10.9681C82.0433 10.8188 82.1473 10.6188 82.2593 10.3681C82.414 10.0268 82.566 9.76809 82.7153 9.59209C82.87 9.41609 83.022 9.29609 83.1713 9.23209C83.326 9.16809 83.478 9.13609 83.6273 9.13609C83.8086 9.13609 83.9766 9.18409 84.1313 9.28009C84.286 9.37076 84.422 9.49342 84.5393 9.64809C84.6566 9.80276 84.7473 9.97342 84.8113 10.1601C84.8806 10.3414 84.9153 10.5228 84.9153 10.7041C84.9153 11.0241 84.8593 11.2801 84.7473 11.4721C84.6353 11.6588 84.4913 11.7948 84.3153 11.8801C84.1446 11.9601 83.966 12.0001 83.7793 12.0001C83.614 12.0001 83.4006 11.9681 83.1393 11.9041C82.8833 11.8401 82.558 11.6774 82.1633 11.4161L82.4753 10.9121C82.7366 11.0774 82.9713 11.1921 83.1793 11.2561C83.3926 11.3148 83.5686 11.3441 83.7073 11.3441C83.862 11.3441 83.9846 11.3228 84.0753 11.2801C84.166 11.2321 84.2326 11.1654 84.2753 11.0801C84.318 10.9948 84.3393 10.8988 84.3393 10.7921C84.3393 10.6374 84.302 10.4828 84.2273 10.3281C84.1526 10.1734 84.0566 10.0454 83.9393 9.94409C83.8273 9.84276 83.7073 9.79209 83.5793 9.79209C83.4833 9.79209 83.39 9.81876 83.2993 9.87209C83.2086 9.92542 83.1153 10.0241 83.0193 10.1681C82.9233 10.3121 82.814 10.5201 82.6913 10.7921C82.5633 11.0801 82.4406 11.3094 82.3233 11.4801C82.2113 11.6454 82.0966 11.7681 81.9793 11.8481C81.862 11.9281 81.7393 11.9788 81.6113 12.0001C81.4886 12.0268 81.35 12.0401 81.1953 12.0401ZM87.7009 12.0081C87.7009 11.8801 87.7116 11.7441 87.7329 11.6001C87.7596 11.4508 87.7969 11.2934 87.8449 11.1281C87.8983 10.9574 87.9623 10.7788 88.0369 10.5921L88.6129 10.8161C88.5596 10.9654 88.5116 11.1068 88.4689 11.2401C88.4316 11.3734 88.4023 11.4988 88.3809 11.6161C88.3649 11.7334 88.3569 11.8454 88.3569 11.9521C88.3569 12.2241 88.4289 12.4534 88.5729 12.6401C88.7169 12.8268 88.9036 12.9654 89.1329 13.0561C89.3676 13.1521 89.6183 13.2001 89.8849 13.2001C90.4076 13.2001 90.8156 13.1068 91.1089 12.9201C91.4023 12.7388 91.6076 12.4961 91.7249 12.1921C91.8423 11.8934 91.8929 11.5654 91.8769 11.2081L91.7009 6.28809H92.3649L92.4929 10.3441C92.5036 10.6161 92.5463 10.8294 92.6209 10.9841C92.7009 11.1334 92.8076 11.2374 92.9409 11.2961C93.0743 11.3548 93.2209 11.3841 93.3809 11.3841C93.4929 11.3841 93.5729 11.4161 93.6209 11.4801C93.6743 11.5388 93.7009 11.6108 93.7009 11.6961C93.7009 11.7814 93.6636 11.8614 93.5889 11.9361C93.5143 12.0054 93.4183 12.0401 93.3009 12.0401C93.1356 12.0401 92.9943 12.0188 92.8769 11.9761C92.7596 11.9281 92.6636 11.8694 92.5889 11.8001C92.5143 11.7254 92.4556 11.6428 92.4129 11.5521C92.3703 11.4561 92.3383 11.3601 92.3169 11.2641L92.5409 11.4881C92.5196 11.7708 92.4583 12.0508 92.3569 12.3281C92.2609 12.6108 92.1116 12.8668 91.9089 13.0961C91.7063 13.3254 91.4343 13.5094 91.0929 13.6481C90.7569 13.7868 90.3409 13.8561 89.8449 13.8561C89.5676 13.8561 89.2983 13.8134 89.0369 13.7281C88.7809 13.6481 88.5516 13.5281 88.3489 13.3681C88.1516 13.2081 87.9943 13.0134 87.8769 12.7841C87.7596 12.5601 87.7009 12.3014 87.7009 12.0081ZM93.3047 12.0401L93.3847 11.3841C93.6994 11.3841 93.9447 11.3734 94.1207 11.3521C94.2967 11.3254 94.422 11.2641 94.4967 11.1681C94.5714 11.0668 94.6087 10.9094 94.6087 10.6961C94.6087 10.5628 94.5874 10.4054 94.5447 10.2241C94.502 10.0374 94.446 9.84009 94.3767 9.63209C94.3074 9.42409 94.2327 9.21876 94.1527 9.01609L94.8007 8.77609C94.87 8.94676 94.934 9.14142 94.9927 9.36009C95.0567 9.57876 95.11 9.79476 95.1527 10.0081C95.1954 10.2214 95.2167 10.4081 95.2167 10.5681C95.2167 10.8348 95.1794 11.0614 95.1047 11.2481C95.0354 11.4348 94.9234 11.5868 94.7687 11.7041C94.614 11.8214 94.414 11.9068 94.1687 11.9601C93.9287 12.0134 93.6407 12.0401 93.3047 12.0401ZM94.7847 13.5521C94.6727 13.5521 94.5767 13.5121 94.4967 13.4321C94.422 13.3574 94.3847 13.2668 94.3847 13.1601C94.3847 13.0534 94.422 12.9601 94.4967 12.8801C94.5767 12.8001 94.6727 12.7601 94.7847 12.7601C94.8914 12.7601 94.982 12.8001 95.0567 12.8801C95.1367 12.9601 95.1767 13.0534 95.1767 13.1601C95.1767 13.2668 95.1367 13.3574 95.0567 13.4321C94.982 13.5121 94.8914 13.5521 94.7847 13.5521ZM93.6887 13.5521C93.5767 13.5521 93.4807 13.5121 93.4007 13.4321C93.326 13.3574 93.2887 13.2668 93.2887 13.1601C93.2887 13.0534 93.326 12.9601 93.4007 12.8801C93.4807 12.8001 93.5767 12.7601 93.6887 12.7601C93.7954 12.7601 93.886 12.8001 93.9607 12.8801C94.0407 12.9601 94.0807 13.0534 94.0807 13.1601C94.0807 13.2668 94.0407 13.3574 93.9607 13.4321C93.886 13.5121 93.7954 13.5521 93.6887 13.5521ZM95.7273 13.8561L95.4953 13.2481C95.8846 13.1201 96.2073 12.9734 96.4633 12.8081C96.7246 12.6428 96.93 12.4668 97.0793 12.2801C97.234 12.0934 97.3433 11.9041 97.4073 11.7121C97.4713 11.5148 97.5033 11.3254 97.5033 11.1441C97.5033 10.8828 97.4446 10.6188 97.3273 10.3521C97.2153 10.0801 97.09 9.82409 96.9513 9.58409L97.5353 9.28809C97.6366 9.47476 97.7246 9.65876 97.7993 9.84009C97.8793 10.0214 97.9486 10.1921 98.0073 10.3521C98.0713 10.5121 98.122 10.6588 98.1593 10.7921C98.234 11.0214 98.33 11.1788 98.4473 11.2641C98.57 11.3441 98.7353 11.3841 98.9433 11.3841C99.0553 11.3841 99.1353 11.4161 99.1833 11.4801C99.2366 11.5388 99.2633 11.6108 99.2633 11.6961C99.2633 11.7814 99.226 11.8614 99.1513 11.9361C99.0766 12.0054 98.9806 12.0401 98.8633 12.0401C98.6286 12.0401 98.4366 12.0001 98.2873 11.9201C98.1433 11.8348 98.034 11.7254 97.9593 11.5921C97.8846 11.4534 97.834 11.3094 97.8073 11.1601L98.0633 11.3041C98.0633 11.6561 97.9833 11.9761 97.8233 12.2641C97.6686 12.5574 97.4686 12.8108 97.2233 13.0241C96.978 13.2428 96.722 13.4214 96.4553 13.5601C96.1886 13.6988 95.946 13.7974 95.7273 13.8561ZM96.9993 8.36809C96.8873 8.36809 96.7913 8.33076 96.7113 8.25609C96.6366 8.17609 96.5993 8.08276 96.5993 7.97609C96.5993 7.86942 96.6366 7.77609 96.7113 7.69609C96.7913 7.61609 96.8873 7.57609 96.9993 7.57609C97.106 7.57609 97.1966 7.61609 97.2713 7.69609C97.3513 7.77609 97.3913 7.86942 97.3913 7.97609C97.3913 8.08276 97.3513 8.17609 97.2713 8.25609C97.1966 8.33076 97.106 8.36809 96.9993 8.36809ZM98.8672 12.0401L98.9472 11.3841C99.1712 11.3841 99.3472 11.3654 99.4752 11.3281C99.6032 11.2854 99.6992 11.2081 99.7632 11.0961C99.8325 10.9788 99.8912 10.8108 99.9392 10.5921C99.9872 10.3734 100.046 10.0881 100.115 9.73609L100.739 9.85609C100.718 9.95209 100.694 10.0588 100.667 10.1761C100.64 10.2934 100.616 10.4108 100.595 10.5281C100.579 10.6401 100.571 10.7388 100.571 10.8241C100.571 10.9308 100.595 11.0268 100.643 11.1121C100.691 11.1974 100.795 11.2641 100.955 11.3121C101.115 11.3601 101.36 11.3841 101.691 11.3841C101.803 11.3841 101.883 11.4161 101.931 11.4801C101.984 11.5388 102.011 11.6108 102.011 11.6961C102.011 11.7814 101.974 11.8614 101.899 11.9361C101.824 12.0054 101.728 12.0401 101.611 12.0401C101.264 12.0401 100.992 12.0108 100.795 11.9521C100.598 11.8881 100.454 11.7948 100.363 11.6721C100.272 11.5441 100.211 11.3894 100.179 11.2081L100.419 11.2241C100.334 11.3948 100.24 11.5334 100.139 11.6401C100.043 11.7468 99.9365 11.8294 99.8192 11.8881C99.7019 11.9468 99.5659 11.9868 99.4112 12.0081C99.2565 12.0294 99.0752 12.0401 98.8672 12.0401ZM100.115 8.91209C100.003 8.91209 99.9072 8.87476 99.8272 8.80009C99.7525 8.72009 99.7152 8.62676 99.7152 8.52009C99.7152 8.41342 99.7525 8.32009 99.8272 8.24009C99.9072 8.16009 100.003 8.12009 100.115 8.12009C100.222 8.12009 100.312 8.16009 100.387 8.24009C100.467 8.32009 100.507 8.41342 100.507 8.52009C100.507 8.62676 100.467 8.72009 100.387 8.80009C100.312 8.87476 100.222 8.91209 100.115 8.91209ZM101.609 12.0401L101.689 11.3841C102.004 11.3841 102.249 11.3734 102.425 11.3521C102.601 11.3254 102.727 11.2641 102.801 11.1681C102.876 11.0668 102.913 10.9094 102.913 10.6961C102.913 10.5628 102.892 10.4054 102.849 10.2241C102.807 10.0374 102.751 9.84009 102.681 9.63209C102.612 9.42409 102.537 9.21876 102.457 9.01609L103.105 8.77609C103.175 8.94676 103.239 9.14142 103.297 9.36009C103.361 9.57876 103.415 9.79476 103.457 10.0081C103.5 10.2214 103.521 10.4081 103.521 10.5681C103.521 10.8348 103.484 11.0614 103.409 11.2481C103.34 11.4348 103.228 11.5868 103.073 11.7041C102.919 11.8214 102.719 11.9068 102.473 11.9601C102.233 12.0134 101.945 12.0401 101.609 12.0401ZM103.353 7.94409C103.241 7.94409 103.145 7.90676 103.065 7.83209C102.991 7.75209 102.953 7.65876 102.953 7.55209C102.953 7.44542 102.991 7.35209 103.065 7.27209C103.145 7.19209 103.241 7.15209 103.353 7.15209C103.46 7.15209 103.551 7.19209 103.625 7.27209C103.705 7.35209 103.745 7.44542 103.745 7.55209C103.745 7.65876 103.705 7.75209 103.625 7.83209C103.551 7.90676 103.46 7.94409 103.353 7.94409ZM102.257 7.94409C102.145 7.94409 102.049 7.90676 101.969 7.83209C101.895 7.75209 101.857 7.65876 101.857 7.55209C101.857 7.44542 101.895 7.35209 101.969 7.27209C102.049 7.19209 102.145 7.15209 102.257 7.15209C102.364 7.15209 102.455 7.19209 102.529 7.27209C102.609 7.35209 102.649 7.44542 102.649 7.55209C102.649 7.65876 102.609 7.75209 102.529 7.83209C102.455 7.90676 102.364 7.94409 102.257 7.94409Z" fill="white"/>
<path d="M75.9275 10.592L75.9637 10.4988L75.8726 10.4633L75.8351 10.5536L75.9275 10.592ZM76.5035 10.816L76.5969 10.8516L76.6323 10.7588L76.5397 10.7228L76.5035 10.816ZM78.7915 13.08L78.7623 12.9843L78.7605 12.9849L78.7915 13.08ZM79.6795 12.312L79.5861 12.2759L79.5849 12.2795L79.6795 12.312ZM79.7195 11.128L79.6206 11.1432L79.621 11.1457L79.7195 11.128ZM79.5835 10.52L79.4867 10.5454L79.4876 10.5485L79.5835 10.52ZM79.4075 9.90399L79.3812 9.80749L79.2815 9.83458L79.3119 9.9334L79.4075 9.90399ZM80.0555 9.72799L80.1515 9.70018L80.1242 9.60571L80.0292 9.63149L80.0555 9.72799ZM80.1915 10.224L80.0944 10.2482L80.0947 10.2492L80.1915 10.224ZM80.2635 10.52L80.1655 10.541L80.1673 10.5475L80.2635 10.52ZM80.3195 10.72L80.223 10.7463L80.2236 10.7485L80.3195 10.72ZM80.5515 11.16L80.4807 11.2307L80.4828 11.2327L80.5515 11.16ZM80.8795 11.344L80.8542 11.4409L80.8591 11.4419L80.8795 11.344ZM81.5115 11.48L81.4311 11.5403L81.4375 11.5473L81.5115 11.48ZM81.4795 11.936L81.5475 12.0093L81.5502 12.0067L81.4795 11.936ZM80.6315 11.928L80.5842 12.0162L80.5867 12.0174L80.6315 11.928ZM80.2795 11.632L80.1968 11.6883L80.1986 11.6908L80.2795 11.632ZM80.1195 11.264L80.1974 11.2013L80.0216 11.2844L80.1195 11.264ZM80.4475 11.672L80.5473 11.6779L80.5495 11.6394L80.5254 11.6093L80.4475 11.672ZM80.2875 12.464L80.1932 12.4306L80.1924 12.4329L80.2875 12.464ZM79.8715 13.168L79.798 13.1002L79.7971 13.1011L79.8715 13.168ZM77.7195 8.70399L77.6462 8.77238L77.6512 8.7771L77.7195 8.70399ZM77.7195 8.14399L77.6487 8.07324L77.6464 8.07576L77.7195 8.14399ZM78.2795 8.14399L78.2063 8.21226L78.2087 8.2147L78.2795 8.14399ZM75.6915 12.008C75.6915 11.825 75.7169 11.6193 75.769 11.3901L75.5739 11.3458C75.5194 11.586 75.4915 11.8069 75.4915 12.008H75.6915ZM75.769 11.3901C75.8208 11.1623 75.9041 10.9091 76.0198 10.6303L75.8351 10.5536C75.7161 10.8402 75.6288 11.1044 75.5739 11.3458L75.769 11.3901ZM75.8912 10.6852L76.4672 10.9092L76.5397 10.7228L75.9637 10.4988L75.8912 10.6852ZM76.41 10.7804C76.3234 11.0077 76.2579 11.2175 76.214 11.4097L76.4089 11.4543C76.4504 11.2731 76.5128 11.0723 76.5969 10.8516L76.41 10.7804ZM76.214 11.4097C76.1699 11.6023 76.1475 11.7832 76.1475 11.952H76.3475C76.3475 11.8008 76.3676 11.635 76.4089 11.4543L76.214 11.4097ZM76.1475 11.952C76.1475 12.2618 76.2237 12.5229 76.3851 12.7262L76.5418 12.6018C76.4152 12.4424 76.3475 12.2289 76.3475 11.952H76.1475ZM76.3851 12.7262C76.5473 12.9288 76.7611 13.0755 77.0226 13.1664L77.0883 12.9775C76.8592 12.8978 76.6783 12.7725 76.5418 12.6018L76.3851 12.7262ZM77.0226 13.1664C77.2849 13.2557 77.5712 13.3 77.8795 13.3V13.1C77.5904 13.1 77.3274 13.0589 77.0883 12.9775L77.0226 13.1664ZM77.8795 13.3C78.2487 13.3 78.564 13.2593 78.8225 13.1751L78.7605 12.9849C78.5283 13.0606 78.2355 13.1 77.8795 13.1V13.3ZM78.8206 13.1757C79.0761 13.0979 79.2854 12.9876 79.4434 12.8414L79.3075 12.6946C79.1775 12.815 78.9975 12.9127 78.7623 12.9843L78.8206 13.1757ZM79.4434 12.8414C79.5984 12.6978 79.7095 12.5321 79.774 12.3445L79.5849 12.2795C79.532 12.4332 79.4405 12.5715 79.3075 12.6946L79.4434 12.8414ZM79.7727 12.3481C79.8413 12.171 79.8755 11.9854 79.8755 11.792H79.6755C79.6755 11.9613 79.6456 12.1223 79.5861 12.2759L79.7727 12.3481ZM79.8755 11.792C79.8755 11.552 79.8564 11.3247 79.8179 11.1103L79.621 11.1457C79.6572 11.3472 79.6755 11.5626 79.6755 11.792H79.8755ZM79.8183 11.1128C79.7856 10.9004 79.7393 10.6933 79.6793 10.4915L79.4876 10.5485C79.5449 10.7414 79.5893 10.9396 79.6206 11.1432L79.8183 11.1128ZM79.6802 10.4945C79.6265 10.2905 79.5674 10.0838 79.503 9.87458L79.3119 9.9334C79.3755 10.1401 79.4337 10.3442 79.4867 10.5454L79.6802 10.4945ZM79.4337 10.0005L80.0817 9.82449L80.0292 9.63149L79.3812 9.80749L79.4337 10.0005ZM79.9594 9.7558C80.0179 9.95789 80.0629 10.1219 80.0944 10.2482L80.2885 10.1997C80.2561 10.0701 80.2103 9.90342 80.1515 9.70018L79.9594 9.7558ZM80.0947 10.2492C80.1265 10.3713 80.1499 10.4684 80.1655 10.541L80.3612 10.499C80.3448 10.4223 80.3204 10.322 80.2882 10.1987L80.0947 10.2492ZM80.1673 10.5475C80.1886 10.6218 80.2071 10.6881 80.223 10.7463L80.4159 10.6937C80.3998 10.6345 80.381 10.5675 80.3596 10.4925L80.1673 10.5475ZM80.2236 10.7485C80.2848 10.9542 80.3684 11.1184 80.4807 11.2307L80.6222 11.0893C80.5425 11.0096 80.4715 10.8804 80.4153 10.6915L80.2236 10.7485ZM80.4828 11.2327C80.5905 11.3344 80.7146 11.4044 80.8542 11.4409L80.9047 11.2472C80.799 11.2196 80.7044 11.1669 80.6201 11.0873L80.4828 11.2327ZM80.8591 11.4419C80.9939 11.47 81.1314 11.484 81.2715 11.484V11.284C81.1448 11.284 81.021 11.2713 80.8999 11.2461L80.8591 11.4419ZM81.2715 11.484C81.3654 11.484 81.4088 11.5105 81.4311 11.5403L81.5915 11.42C81.5178 11.3217 81.4015 11.284 81.2715 11.284V11.484ZM81.4375 11.5473C81.4727 11.586 81.4915 11.6335 81.4915 11.696H81.6915C81.6915 11.5878 81.6569 11.4913 81.5855 11.4127L81.4375 11.5473ZM81.4915 11.696C81.4915 11.7488 81.4694 11.8046 81.4087 11.8653L81.5502 12.0067C81.6389 11.918 81.6915 11.8138 81.6915 11.696H81.4915ZM81.4114 11.8627C81.358 11.9123 81.2876 11.94 81.1915 11.94V12.14C81.3299 12.14 81.4516 12.0984 81.5475 12.0093L81.4114 11.8627ZM81.1915 11.94C80.9779 11.94 80.8077 11.9043 80.6762 11.8385L80.5867 12.0174C80.7539 12.101 80.957 12.14 81.1915 12.14V11.94ZM80.6787 11.8398C80.5404 11.7658 80.4354 11.6764 80.3603 11.5732L80.1986 11.6908C80.2942 11.8222 80.4238 11.9302 80.5842 12.0162L80.6787 11.8398ZM80.3621 11.5757C80.2888 11.4682 80.2411 11.3577 80.2174 11.2436L80.0216 11.2844C80.0511 11.4263 80.11 11.5611 80.1968 11.6883L80.3621 11.5757ZM80.0415 11.3266L80.3695 11.7346L80.5254 11.6093L80.1974 11.2013L80.0415 11.3266ZM80.3476 11.6661C80.3322 11.9288 80.2807 12.1835 80.1932 12.4306L80.3817 12.4974C80.4755 12.2325 80.5307 11.9592 80.5473 11.6779L80.3476 11.6661ZM80.1924 12.4329C80.1117 12.6802 79.9805 12.9024 79.798 13.1002L79.9449 13.2358C80.1464 13.0176 80.2926 12.7704 80.3825 12.495L80.1924 12.4329ZM79.7971 13.1011C79.6181 13.3 79.3716 13.4599 79.0527 13.5782L79.1222 13.7657C79.4646 13.6387 79.7408 13.4627 79.9458 13.2349L79.7971 13.1011ZM79.0527 13.5782C78.7423 13.6952 78.3441 13.756 77.8555 13.756V13.956C78.3588 13.956 78.7819 13.8941 79.1222 13.7657L79.0527 13.5782ZM77.8555 13.756C77.5597 13.756 77.2807 13.7197 77.0179 13.6476L76.965 13.8404C77.2463 13.9176 77.5432 13.956 77.8555 13.956V13.756ZM77.0179 13.6476C76.7567 13.5758 76.5251 13.4662 76.3222 13.319L76.2048 13.4809C76.4285 13.6431 76.6822 13.7628 76.965 13.8404L77.0179 13.6476ZM76.3222 13.319C76.1273 13.1791 75.9718 12.999 75.8561 12.7777L75.6784 12.8695C75.8081 13.1176 75.9836 13.3222 76.2048 13.4809L76.3222 13.319ZM75.8561 12.7777C75.7474 12.5652 75.6915 12.3103 75.6915 12.008H75.4915C75.4915 12.335 75.5525 12.6233 75.6784 12.8695L75.8561 12.7777ZM78.0075 8.71599C77.9201 8.71599 77.8487 8.68782 77.7877 8.63088L77.6512 8.7771C77.7502 8.86949 77.8708 8.91599 78.0075 8.91599V8.71599ZM77.7926 8.63576C77.7347 8.57374 77.7075 8.50461 77.7075 8.42399H77.5075C77.5075 8.5567 77.5547 8.6744 77.6462 8.77238L77.7926 8.63576ZM77.7075 8.42399C77.7075 8.34337 77.7347 8.27424 77.7926 8.21222L77.6464 8.07576C77.5549 8.17374 77.5075 8.29128 77.5075 8.42399H77.7075ZM77.7902 8.2147C77.8516 8.15324 77.9223 8.12399 78.0075 8.12399V7.92399C77.8686 7.92399 77.7472 7.9747 77.6487 8.07324L77.7902 8.2147ZM78.0075 8.12399C78.0856 8.12399 78.15 8.15193 78.2063 8.21226L78.3526 8.07576C78.2595 7.97609 78.1426 7.92399 78.0075 7.92399V8.12399ZM78.2087 8.2147C78.2713 8.27721 78.2995 8.34558 78.2995 8.42399H78.4995C78.4995 8.28907 78.4477 8.17077 78.3502 8.07328L78.2087 8.2147ZM78.2995 8.42399C78.2995 8.5024 78.2713 8.57077 78.2087 8.63328L78.3502 8.7747C78.4477 8.67721 78.4995 8.55891 78.4995 8.42399H78.2995ZM78.2087 8.63328C78.153 8.68898 78.0879 8.71599 78.0075 8.71599V8.91599C78.1403 8.91599 78.2565 8.86833 78.3502 8.7747L78.2087 8.63328ZM81.1952 12.04L81.0959 12.0279L81.0823 12.14H81.1952V12.04ZM81.2752 11.384V11.284H81.1867L81.1759 11.3719L81.2752 11.384ZM82.7152 9.59199L82.6401 9.52597L82.639 9.52729L82.7152 9.59199ZM83.1712 9.23199L83.133 9.13958L83.1318 9.14008L83.1712 9.23199ZM84.1312 9.27999L84.0785 9.36498L84.0806 9.36626L84.1312 9.27999ZM84.8112 10.16L84.7166 10.1924L84.7178 10.1957L84.8112 10.16ZM84.7472 11.472L84.833 11.5234L84.8336 11.5224L84.7472 11.472ZM84.3152 11.88L84.3577 11.9705L84.3588 11.97L84.3152 11.88ZM82.1632 11.416L82.0782 11.3633L82.0271 11.4458L82.108 11.4994L82.1632 11.416ZM82.4752 10.912L82.5287 10.8275L82.4433 10.7735L82.3902 10.8593L82.4752 10.912ZM83.1792 11.256L83.1498 11.3516L83.1527 11.3524L83.1792 11.256ZM84.0752 11.28L84.1178 11.3706L84.122 11.3684L84.0752 11.28ZM83.9392 9.94399L83.8721 10.0182L83.8738 10.0197L83.9392 9.94399ZM81.6112 12L81.5947 11.9012L81.59 11.9023L81.6112 12ZM81.2945 12.0521L81.3745 11.3961L81.1759 11.3719L81.0959 12.0279L81.2945 12.0521ZM81.2752 11.484C81.4388 11.484 81.5838 11.4488 81.7046 11.3725L81.5978 11.2034C81.516 11.2551 81.4103 11.284 81.2752 11.284V11.484ZM81.7046 11.3725C81.8228 11.2979 81.9309 11.1783 82.0313 11.0221L81.8631 10.9139C81.7715 11.0564 81.6823 11.1501 81.5978 11.2034L81.7046 11.3725ZM82.0313 11.0221C82.1311 10.8669 82.2374 10.6619 82.3505 10.4088L82.1681 10.3267C82.0572 10.575 81.9553 10.7704 81.8631 10.9139L82.0313 11.0221ZM82.3505 10.4088C82.5034 10.0713 82.6507 9.8226 82.7915 9.65669L82.639 9.52729C82.4811 9.71338 82.3246 9.98149 82.1681 10.3267L82.3505 10.4088ZM82.7903 9.658C82.9392 9.48861 83.0796 9.38003 83.2106 9.3239L83.1318 9.14008C82.9641 9.21195 82.8005 9.34336 82.6401 9.52597L82.7903 9.658ZM83.2094 9.32439C83.3534 9.2648 83.4925 9.23599 83.6272 9.23599V9.03599C83.4633 9.03599 83.2983 9.07117 83.133 9.13958L83.2094 9.32439ZM83.6272 9.23599C83.7898 9.23599 83.9396 9.27877 84.0785 9.36498L84.1839 9.19503C84.0135 9.08924 83.8273 9.03599 83.6272 9.03599V9.23599ZM84.0806 9.36626C84.2231 9.44977 84.3495 9.56332 84.4595 9.70843L84.6189 9.58755C84.4943 9.42332 84.3486 9.29154 84.1818 9.19372L84.0806 9.36626ZM84.4595 9.70843C84.5703 9.85447 84.6559 10.0157 84.7166 10.1924L84.9058 10.1276C84.8384 9.93099 84.7428 9.75084 84.6189 9.58755L84.4595 9.70843ZM84.7178 10.1957C84.7831 10.3664 84.8152 10.5357 84.8152 10.704H85.0152C85.0152 10.5096 84.978 10.3162 84.9046 10.1243L84.7178 10.1957ZM84.8152 10.704C84.8152 11.0136 84.7608 11.2502 84.6608 11.4216L84.8336 11.5224C84.9576 11.3098 85.0152 11.0344 85.0152 10.704H84.8152ZM84.6615 11.4205C84.5583 11.5925 84.4282 11.7141 84.2716 11.79L84.3588 11.97C84.5543 11.8752 84.7121 11.7248 84.833 11.5234L84.6615 11.4205ZM84.2728 11.7894C84.1152 11.8633 83.9511 11.9 83.7792 11.9V12.1C83.9807 12.1 84.1738 12.0567 84.3577 11.9705L84.2728 11.7894ZM83.7792 11.9C83.6253 11.9 83.4207 11.87 83.163 11.8069L83.115 12.001C83.3799 12.0659 83.6025 12.1 83.7792 12.1V11.9ZM83.163 11.8069C82.9235 11.747 82.6099 11.5918 82.2184 11.3326L82.108 11.4994C82.5059 11.7628 82.8425 11.9329 83.115 12.001L83.163 11.8069ZM82.2482 11.4686L82.5602 10.9646L82.3902 10.8593L82.0782 11.3633L82.2482 11.4686ZM82.4217 10.9965C82.6877 11.1648 82.9306 11.2842 83.1498 11.3516L83.2086 11.1604C83.0118 11.0999 82.7854 10.9899 82.5287 10.8275L82.4217 10.9965ZM83.1527 11.3524C83.3702 11.4122 83.5559 11.444 83.7072 11.444V11.244C83.5812 11.244 83.4149 11.2171 83.2057 11.1596L83.1527 11.3524ZM83.7072 11.444C83.8694 11.444 84.0086 11.422 84.1178 11.3706L84.0326 11.1895C83.9605 11.2234 83.8544 11.244 83.7072 11.244V11.444ZM84.122 11.3684C84.2296 11.3114 84.3119 11.2301 84.3647 11.1247L84.1858 11.0353C84.1531 11.1005 84.1021 11.1526 84.0284 11.1916L84.122 11.3684ZM84.3647 11.1247C84.415 11.0239 84.4392 10.9123 84.4392 10.792H84.2392C84.2392 10.885 84.2207 10.9654 84.1858 11.0353L84.3647 11.1247ZM84.4392 10.792C84.4392 10.6207 84.3977 10.4512 84.3173 10.2845L84.1372 10.3715C84.206 10.5141 84.2392 10.654 84.2392 10.792H84.4392ZM84.3173 10.2845C84.2373 10.1189 84.1333 9.9795 84.0046 9.86831L83.8738 10.0197C83.9798 10.1111 84.0678 10.2278 84.1372 10.3715L84.3173 10.2845ZM84.0063 9.86984C83.8794 9.75504 83.7364 9.69199 83.5792 9.69199V9.89199C83.6781 9.89199 83.775 9.93029 83.8721 10.0182L84.0063 9.86984ZM83.5792 9.69199C83.4637 9.69199 83.353 9.72431 83.2485 9.7858L83.3499 9.95818C83.4267 9.913 83.5027 9.89199 83.5792 9.89199V9.69199ZM83.2485 9.7858C83.139 9.85019 83.0356 9.96309 82.936 10.1125L83.1024 10.2235C83.1948 10.0849 83.278 10.0005 83.3499 9.95818L83.2485 9.7858ZM82.936 10.1125C82.8356 10.2632 82.7236 10.4769 82.6 10.7509L82.7824 10.8331C82.9041 10.5631 83.0109 10.3608 83.1024 10.2235L82.936 10.1125ZM82.6 10.7509C82.4734 11.0358 82.3534 11.2596 82.2408 11.4233L82.4056 11.5366C82.5277 11.359 82.653 11.1241 82.7824 10.8331L82.6 10.7509ZM82.2408 11.4233C82.1332 11.5822 82.0265 11.6947 81.9229 11.7654L82.0355 11.9306C82.1666 11.8413 82.2892 11.7085 82.4056 11.5366L82.2408 11.4233ZM81.9229 11.7654C81.8164 11.838 81.7071 11.8825 81.5947 11.9012L81.6276 12.0986C81.7713 12.0747 81.9074 12.018 82.0355 11.9306L81.9229 11.7654ZM81.59 11.9023C81.4757 11.9271 81.3443 11.94 81.1952 11.94V12.14C81.3554 12.14 81.5014 12.1262 81.6325 12.0977L81.59 11.9023ZM87.7328 11.6L87.6344 11.5824L87.6339 11.5853L87.7328 11.6ZM87.8448 11.128L87.7494 11.0982L87.7488 11.1001L87.8448 11.128ZM88.0368 10.592L88.0731 10.4988L87.9808 10.4629L87.944 10.5548L88.0368 10.592ZM88.6128 10.816L88.707 10.8496L88.7397 10.758L88.6491 10.7228L88.6128 10.816ZM88.4688 11.24L88.3735 11.2095L88.3725 11.213L88.4688 11.24ZM88.3808 11.616L88.2824 11.5981L88.2818 11.6025L88.3808 11.616ZM89.1328 13.056L89.1707 12.9634L89.1696 12.963L89.1328 13.056ZM91.1088 12.92L91.0563 12.8349L91.0552 12.8356L91.1088 12.92ZM91.7008 6.28799V6.18799H91.5972L91.6009 6.29156L91.7008 6.28799ZM92.3648 6.28799L92.4648 6.28483L92.4617 6.18799H92.3648V6.28799ZM92.6208 10.984L92.5307 11.0275L92.5327 11.0312L92.6208 10.984ZM93.6208 11.48L93.5405 11.5403L93.5468 11.5473L93.6208 11.48ZM93.5888 11.936L93.6569 12.0093L93.6595 12.0067L93.5888 11.936ZM92.8768 11.976L92.8389 12.0686L92.8427 12.07L92.8768 11.976ZM92.5888 11.8L92.5181 11.8707L92.5208 11.8733L92.5888 11.8ZM92.4128 11.552L92.3214 11.5926L92.3224 11.5946L92.4128 11.552ZM92.3168 11.264L92.3875 11.1933L92.1447 10.9505L92.2192 11.2857L92.3168 11.264ZM92.5408 11.488L92.6406 11.4955L92.644 11.4497L92.6115 11.4173L92.5408 11.488ZM92.3568 12.328L92.2629 12.2937L92.2621 12.2958L92.3568 12.328ZM89.0368 13.728L89.0679 13.6329L89.0667 13.6325L89.0368 13.728ZM88.3488 13.368L88.2859 13.4457L88.2869 13.4465L88.3488 13.368ZM87.8008 12.008C87.8008 11.8855 87.811 11.7544 87.8318 11.6146L87.6339 11.5853C87.612 11.7335 87.6008 11.8745 87.6008 12.008H87.8008ZM87.8313 11.6176C87.8573 11.4721 87.8937 11.3183 87.9409 11.1559L87.7488 11.1001C87.6999 11.2684 87.6618 11.4292 87.6344 11.5824L87.8313 11.6176ZM87.9403 11.1578C87.9928 10.9899 88.0559 10.8137 88.1297 10.6291L87.944 10.5548C87.8685 10.7436 87.8036 10.9247 87.7494 11.0982L87.9403 11.1578ZM88.0006 10.6852L88.5766 10.9092L88.6491 10.7228L88.0731 10.4988L88.0006 10.6852ZM88.5187 10.7824C88.465 10.9326 88.4165 11.075 88.3735 11.2095L88.5641 11.2705C88.6064 11.1383 88.654 10.998 88.707 10.8496L88.5187 10.7824ZM88.3725 11.213C88.3345 11.3489 88.3043 11.4772 88.2824 11.5981L88.4792 11.6339C88.4999 11.52 88.5285 11.3978 88.5651 11.2669L88.3725 11.213ZM88.2818 11.6025C88.2652 11.7238 88.2568 11.8403 88.2568 11.952H88.4568C88.4568 11.8503 88.4645 11.7428 88.4799 11.6295L88.2818 11.6025ZM88.2568 11.952C88.2568 12.2425 88.3341 12.4943 88.4937 12.7011L88.652 12.5789C88.5235 12.4124 88.4568 12.2054 88.4568 11.952H88.2568ZM88.4937 12.7011C88.6492 12.9027 88.8508 13.052 89.0961 13.149L89.1696 12.963C88.9562 12.8786 88.7845 12.7506 88.652 12.5789L88.4937 12.7011ZM89.095 13.1485C89.3423 13.2497 89.6059 13.3 89.8848 13.3V13.1C89.6305 13.1 89.3927 13.0543 89.1707 12.9634L89.095 13.1485ZM89.8848 13.3C90.4176 13.3 90.847 13.2051 91.1625 13.0044L91.0552 12.8356C90.784 13.0082 90.3974 13.1 89.8848 13.1V13.3ZM91.1614 13.005C91.4722 12.813 91.6925 12.5536 91.8181 12.228L91.6318 12.1554C91.5228 12.4378 91.3322 12.6643 91.0563 12.8349L91.1614 13.005ZM91.8181 12.228C91.9411 11.9149 91.9933 11.5732 91.9767 11.2035L91.7769 11.2116C91.7924 11.5565 91.7434 11.8712 91.6318 12.1554L91.8181 12.228ZM91.9767 11.2035L91.8008 6.28441L91.6009 6.29156L91.7769 11.2116L91.9767 11.2035ZM91.7008 6.38799H92.3648V6.18799H91.7008V6.38799ZM92.2649 6.29114L92.3929 10.3471L92.5928 10.3408L92.4648 6.28483L92.2649 6.29114ZM92.3929 10.3471C92.4038 10.6257 92.4476 10.8553 92.5307 11.0275L92.7109 10.9405C92.6447 10.8033 92.6032 10.6062 92.5928 10.3408L92.3929 10.3471ZM92.5327 11.0312C92.6215 11.1969 92.7435 11.3184 92.9006 11.3875L92.9811 11.2045C92.8715 11.1562 92.7802 11.0697 92.709 10.9368L92.5327 11.0312ZM92.9006 11.3875C93.0478 11.4523 93.2083 11.484 93.3808 11.484V11.284C93.2333 11.284 93.1006 11.257 92.9811 11.2045L92.9006 11.3875ZM93.3808 11.484C93.4748 11.484 93.5182 11.5105 93.5405 11.5403L93.7008 11.42C93.6271 11.3217 93.5109 11.284 93.3808 11.284V11.484ZM93.5468 11.5473C93.5821 11.586 93.6008 11.6335 93.6008 11.696H93.8008C93.8008 11.5878 93.7662 11.4913 93.6948 11.4127L93.5468 11.5473ZM93.6008 11.696C93.6008 11.7488 93.5788 11.8046 93.5181 11.8653L93.6595 12.0067C93.7482 11.918 93.8008 11.8138 93.8008 11.696H93.6008ZM93.5208 11.8627C93.4674 11.9123 93.397 11.94 93.3008 11.94V12.14C93.4393 12.14 93.5609 12.0984 93.6569 12.0093L93.5208 11.8627ZM93.3008 11.94C93.1436 11.94 93.0145 11.9196 92.911 11.882L92.8427 12.07C92.9739 12.1177 93.1274 12.14 93.3008 12.14V11.94ZM92.9147 11.8834C92.8059 11.8389 92.7209 11.7861 92.6569 11.7267L92.5208 11.8733C92.6061 11.9525 92.713 12.0171 92.8389 12.0686L92.9147 11.8834ZM92.6595 11.7293C92.5926 11.6623 92.5408 11.5891 92.5033 11.5094L92.3224 11.5946C92.3702 11.6962 92.4357 11.7884 92.5181 11.8707L92.6595 11.7293ZM92.5042 11.5114C92.4641 11.421 92.4343 11.3314 92.4145 11.2423L92.2192 11.2857C92.2421 11.3886 92.2762 11.4909 92.3214 11.5926L92.5042 11.5114ZM92.2461 11.3347L92.4701 11.5587L92.6115 11.4173L92.3875 11.1933L92.2461 11.3347ZM92.4411 11.4805C92.4205 11.7536 92.3612 12.0246 92.2629 12.2937L92.4508 12.3623C92.5551 12.0767 92.6185 11.7877 92.6406 11.4955L92.4411 11.4805ZM92.2621 12.2958C92.1705 12.5656 92.028 12.8101 91.8339 13.0298L91.9838 13.1622C92.195 12.9232 92.3512 12.6557 92.4515 12.3601L92.2621 12.2958ZM91.8339 13.0298C91.6433 13.2454 91.3851 13.4213 91.0552 13.5553L91.1305 13.7406C91.4832 13.5973 91.769 13.4052 91.9838 13.1622L91.8339 13.0298ZM91.0552 13.5553C90.7348 13.6875 90.3322 13.756 89.8448 13.756V13.956C90.3495 13.956 90.7788 13.8858 91.1305 13.7406L91.0552 13.5553ZM89.8448 13.756C89.578 13.756 89.3191 13.7149 89.0679 13.6329L89.0058 13.823C89.2772 13.9117 89.5571 13.956 89.8448 13.956V13.756ZM89.0667 13.6325C88.8219 13.556 88.6035 13.4416 88.4108 13.2895L88.2869 13.4465C88.4995 13.6143 88.7398 13.7399 89.007 13.8234L89.0667 13.6325ZM88.4118 13.2903C88.2255 13.1392 88.0769 12.9555 87.9659 12.7384L87.7878 12.8295C87.9114 13.0711 88.0775 13.2768 88.2859 13.4457L88.4118 13.2903ZM87.9659 12.7384C87.8572 12.5309 87.8008 12.2878 87.8008 12.008H87.6008C87.6008 12.3149 87.6618 12.5891 87.7878 12.8295L87.9659 12.7384ZM93.3046 12.04L93.2053 12.0279L93.1917 12.14H93.3046V12.04ZM93.3846 11.384V11.284H93.296L93.2853 11.3719L93.3846 11.384ZM94.1206 11.352L94.1326 11.4513L94.1356 11.4509L94.1206 11.352ZM94.4966 11.168L94.5755 11.2294L94.5771 11.2273L94.4966 11.168ZM94.1526 9.01599L94.1179 8.92221L94.0221 8.95769L94.0596 9.05271L94.1526 9.01599ZM94.8006 8.77599L94.8932 8.73835L94.8568 8.64855L94.7659 8.68221L94.8006 8.77599ZM94.9926 9.35999L94.896 9.38591L94.8966 9.38808L94.9926 9.35999ZM95.1046 11.248L95.0117 11.2108L95.0108 11.2132L95.1046 11.248ZM94.4966 12.88L94.4258 12.8092L94.4235 12.8118L94.4966 12.88ZM95.0566 12.88L94.9834 12.9483L94.9859 12.9507L95.0566 12.88ZM95.0566 13.432L94.9882 13.3587L94.9835 13.3638L95.0566 13.432ZM93.4006 12.88L93.3298 12.8092L93.3275 12.8118L93.4006 12.88ZM93.9606 12.88L93.8874 12.9483L93.8899 12.9507L93.9606 12.88ZM93.9606 13.432L93.8922 13.3587L93.8875 13.3638L93.9606 13.432ZM93.4039 12.0521L93.4839 11.3961L93.2853 11.3719L93.2053 12.0279L93.4039 12.0521ZM93.3846 11.484C93.7007 11.484 93.9507 11.4734 94.1326 11.4513L94.1086 11.2527C93.9385 11.2733 93.6978 11.284 93.3846 11.284V11.484ZM94.1356 11.4509C94.3253 11.4221 94.4791 11.3533 94.5755 11.2294L94.4177 11.1066C94.3647 11.1747 94.2679 11.2285 94.1056 11.2531L94.1356 11.4509ZM94.5771 11.2273C94.6705 11.1005 94.7086 10.9173 94.7086 10.696H94.5086C94.5086 10.9013 94.472 11.0328 94.4161 11.1087L94.5771 11.2273ZM94.7086 10.696C94.7086 10.5526 94.6857 10.3872 94.6419 10.2011L94.4471 10.2463C94.4887 10.4228 94.5086 10.5727 94.5086 10.696H94.7086ZM94.6419 10.2011C94.5984 10.0108 94.5417 9.81101 94.4715 9.60037L94.2817 9.66361C94.3502 9.86897 94.4053 10.0632 94.4471 10.2463L94.6419 10.2011ZM94.4715 9.60037C94.4016 9.39066 94.3263 9.18363 94.2456 8.97927L94.0596 9.05271C94.1389 9.25368 94.213 9.45732 94.2817 9.66361L94.4715 9.60037ZM94.1873 9.10976L94.8353 8.86976L94.7659 8.68221L94.1179 8.92221L94.1873 9.10976ZM94.7079 8.81363C94.7754 8.97972 94.8382 9.17037 94.896 9.38591L95.0892 9.33408C95.0297 9.11229 94.9644 8.91359 94.8932 8.73835L94.7079 8.81363ZM94.8966 9.38808C94.9598 9.60408 95.0125 9.81725 95.0545 10.0276L95.2506 9.98838C95.2074 9.77206 95.1533 9.55323 95.0886 9.3319L94.8966 9.38808ZM95.0545 10.0276C95.0963 10.2366 95.1166 10.4164 95.1166 10.568H95.3166C95.3166 10.3995 95.2942 10.206 95.2506 9.98838L95.0545 10.0276ZM95.1166 10.568C95.1166 10.8259 95.0804 11.0391 95.0117 11.2108L95.1974 11.2851C95.2781 11.0835 95.3166 10.8434 95.3166 10.568H95.1166ZM95.0108 11.2132C94.9479 11.3825 94.8473 11.5188 94.7081 11.6243L94.829 11.7837C94.9992 11.6545 95.1226 11.4868 95.1983 11.2828L95.0108 11.2132ZM94.7081 11.6243C94.568 11.7307 94.3825 11.8112 94.1473 11.8623L94.1898 12.0577C94.4454 12.0021 94.6599 11.912 94.829 11.7837L94.7081 11.6243ZM94.1473 11.8623C93.9165 11.9136 93.6357 11.94 93.3046 11.94V12.14C93.6454 12.14 93.9406 12.1131 94.1898 12.0577L94.1473 11.8623ZM94.7846 13.452C94.6994 13.452 94.6288 13.4227 94.5673 13.3613L94.4259 13.5027C94.5244 13.6012 94.6458 13.652 94.7846 13.652V13.452ZM94.5673 13.3613C94.5116 13.3056 94.4846 13.2404 94.4846 13.16H94.2846C94.2846 13.2929 94.3322 13.4091 94.4259 13.5027L94.5673 13.3613ZM94.4846 13.16C94.4846 13.0794 94.5118 13.0102 94.5697 12.9482L94.4235 12.8118C94.332 12.9097 94.2846 13.0273 94.2846 13.16H94.4846ZM94.5673 12.9507C94.6288 12.8892 94.6994 12.86 94.7846 12.86V12.66C94.6458 12.66 94.5243 12.7107 94.4258 12.8092L94.5673 12.9507ZM94.7846 12.86C94.8627 12.86 94.9271 12.8879 94.9834 12.9483L95.1297 12.8118C95.0367 12.7121 94.9198 12.66 94.7846 12.66V12.86ZM94.9859 12.9507C95.0484 13.0132 95.0766 13.0816 95.0766 13.16H95.2766C95.2766 13.0251 95.2248 12.9068 95.1273 12.8093L94.9859 12.9507ZM95.0766 13.16C95.0766 13.2381 95.0485 13.3024 94.9882 13.3587L95.1248 13.5051C95.2245 13.4121 95.2766 13.2952 95.2766 13.16H95.0766ZM94.9835 13.3638C94.9272 13.4241 94.8627 13.452 94.7846 13.452V13.652C94.9198 13.652 95.0367 13.5999 95.1297 13.5002L94.9835 13.3638ZM93.6886 13.452C93.6034 13.452 93.5328 13.4227 93.4713 13.3613L93.3299 13.5027C93.4284 13.6012 93.5498 13.652 93.6886 13.652V13.452ZM93.4713 13.3613C93.4156 13.3056 93.3886 13.2404 93.3886 13.16H93.1886C93.1886 13.2929 93.2362 13.4091 93.3299 13.5027L93.4713 13.3613ZM93.3886 13.16C93.3886 13.0794 93.4158 13.0102 93.4737 12.9482L93.3275 12.8118C93.236 12.9097 93.1886 13.0273 93.1886 13.16H93.3886ZM93.4713 12.9507C93.5328 12.8892 93.6034 12.86 93.6886 12.86V12.66C93.5498 12.66 93.4283 12.7107 93.3298 12.8092L93.4713 12.9507ZM93.6886 12.86C93.7667 12.86 93.8311 12.8879 93.8874 12.9483L94.0337 12.8118C93.9407 12.7121 93.8238 12.66 93.6886 12.66V12.86ZM93.8899 12.9507C93.9524 13.0132 93.9806 13.0816 93.9806 13.16H94.1806C94.1806 13.0251 94.1288 12.9068 94.0313 12.8093L93.8899 12.9507ZM93.9806 13.16C93.9806 13.2381 93.9525 13.3024 93.8922 13.3587L94.0288 13.5051C94.1285 13.4121 94.1806 13.2952 94.1806 13.16H93.9806ZM93.8875 13.3638C93.8312 13.4241 93.7667 13.452 93.6886 13.452V13.652C93.8238 13.652 93.9407 13.5999 94.0337 13.5002L93.8875 13.3638ZM95.7272 13.856L95.6338 13.8916L95.666 13.976L95.7531 13.9526L95.7272 13.856ZM95.4952 13.248L95.464 13.153L95.3644 13.1857L95.4018 13.2836L95.4952 13.248ZM97.0792 12.28L97.0022 12.2162L97.0011 12.2175L97.0792 12.28ZM97.3272 10.352L97.2347 10.3901L97.2357 10.3923L97.3272 10.352ZM96.9512 9.58399L96.906 9.49479L96.8118 9.54255L96.8646 9.63402L96.9512 9.58399ZM97.5352 9.28799L97.6231 9.24028L97.5767 9.15484L97.49 9.19879L97.5352 9.28799ZM97.7992 9.83999L97.7067 9.87808L97.7077 9.88035L97.7992 9.83999ZM98.0072 10.352L97.9133 10.3864L97.9144 10.3891L98.0072 10.352ZM98.1592 10.792L98.0628 10.819L98.0641 10.8229L98.1592 10.792ZM98.4472 11.264L98.3883 11.345L98.3926 11.3477L98.4472 11.264ZM99.1832 11.48L99.1029 11.5403L99.1092 11.5473L99.1832 11.48ZM99.1512 11.936L99.2193 12.0093L99.2219 12.0067L99.1512 11.936ZM98.2872 11.92L98.2362 12.0061L98.24 12.0081L98.2872 11.92ZM97.9592 11.592L97.8712 11.6394L97.872 11.6408L97.9592 11.592ZM97.8072 11.16L97.8562 11.0728L97.6715 10.9689L97.7088 11.1776L97.8072 11.16ZM98.0632 11.304H98.1632V11.2455L98.1122 11.2168L98.0632 11.304ZM97.8232 12.264L97.7358 12.2154L97.7348 12.2173L97.8232 12.264ZM97.2232 13.024L97.1576 12.9485L97.1567 12.9493L97.2232 13.024ZM96.7112 8.25599L96.6379 8.32438L96.643 8.3291L96.7112 8.25599ZM96.7112 7.69599L96.6405 7.62524L96.6381 7.62776L96.7112 7.69599ZM97.2712 7.69599L97.1981 7.76426L97.2005 7.7667L97.2712 7.69599ZM95.8206 13.8203L95.5886 13.2123L95.4018 13.2836L95.6338 13.8916L95.8206 13.8203ZM95.5264 13.343C95.9213 13.2132 96.2523 13.0632 96.5175 12.892L96.4097 12.7235C96.1628 12.8829 95.8478 13.0268 95.464 13.153L95.5264 13.343ZM96.5175 12.892C96.7856 12.7224 96.9993 12.5399 97.1573 12.3425L97.0011 12.2175C96.8604 12.3934 96.6643 12.5624 96.4097 12.7235L96.5175 12.892ZM97.1562 12.3438C97.3173 12.1494 97.4335 11.9494 97.5021 11.7436L97.3123 11.6804C97.2529 11.8586 97.1505 12.0372 97.0022 12.2162L97.1562 12.3438ZM97.5021 11.7436C97.5689 11.5377 97.6032 11.3372 97.6032 11.144H97.4032C97.4032 11.3135 97.3735 11.4916 97.3123 11.6804L97.5021 11.7436ZM97.6032 11.144C97.6032 10.8673 97.541 10.5896 97.4187 10.3117L97.2357 10.3923C97.3481 10.6477 97.4032 10.898 97.4032 11.144H97.6032ZM97.4197 10.3139C97.3061 10.038 97.1788 9.77804 97.0378 9.53396L96.8646 9.63402C97.0009 9.86994 97.1243 10.1219 97.2347 10.3901L97.4197 10.3139ZM96.9964 9.67319L97.5804 9.37719L97.49 9.19879L96.906 9.49479L96.9964 9.67319ZM97.4473 9.3357C97.5471 9.51949 97.6335 9.7003 97.7067 9.87808L97.8917 9.80191C97.8156 9.61703 97.726 9.42982 97.6231 9.24028L97.4473 9.3357ZM97.7077 9.88035C97.787 10.06 97.8555 10.2287 97.9133 10.3864L98.1011 10.3176C98.0416 10.1553 97.9714 9.98261 97.8907 9.79963L97.7077 9.88035ZM97.9144 10.3891C97.9773 10.5466 98.0266 10.6898 98.0628 10.819L98.2555 10.765C98.217 10.6275 98.1651 10.4774 98.1001 10.3148L97.9144 10.3891ZM98.0641 10.8229C98.1414 11.0603 98.2459 11.2414 98.3883 11.345L98.506 11.1831C98.4137 11.116 98.3264 10.9824 98.2543 10.761L98.0641 10.8229ZM98.3926 11.3477C98.537 11.4419 98.7236 11.484 98.9432 11.484V11.284C98.7468 11.284 98.6028 11.246 98.5018 11.1802L98.3926 11.3477ZM98.9432 11.484C99.0371 11.484 99.0806 11.5105 99.1029 11.5403L99.2632 11.42C99.1895 11.3217 99.0733 11.284 98.9432 11.284V11.484ZM99.1092 11.5473C99.1445 11.586 99.1632 11.6335 99.1632 11.696H99.3632C99.3632 11.5878 99.3286 11.4913 99.2572 11.4127L99.1092 11.5473ZM99.1632 11.696C99.1632 11.7488 99.1411 11.8046 99.0805 11.8653L99.2219 12.0067C99.3106 11.918 99.3632 11.8138 99.3632 11.696H99.1632ZM99.0832 11.8627C99.0298 11.9123 98.9594 11.94 98.8632 11.94V12.14C99.0017 12.14 99.1233 12.0984 99.2193 12.0093L99.0832 11.8627ZM98.8632 11.94C98.639 11.94 98.4647 11.9016 98.3344 11.8318L98.24 12.0081C98.4084 12.0983 98.6181 12.14 98.8632 12.14V11.94ZM98.3382 11.834C98.2079 11.7567 98.1117 11.6597 98.0465 11.5431L97.872 11.6408C97.956 11.791 98.0786 11.9127 98.2362 12.0061L98.3382 11.834ZM98.0473 11.5446C97.9774 11.4149 97.9304 11.2809 97.9057 11.1424L97.7088 11.1776C97.7374 11.3377 97.7917 11.4918 97.8712 11.6394L98.0473 11.5446ZM97.7582 11.2471L98.0142 11.3911L98.1122 11.2168L97.8562 11.0728L97.7582 11.2471ZM97.9632 11.304C97.9632 11.6402 97.887 11.9433 97.7358 12.2154L97.9106 12.3125C98.0794 12.0087 98.1632 11.6718 98.1632 11.304H97.9632ZM97.7348 12.2173C97.5857 12.5 97.3934 12.7435 97.1576 12.9485L97.2888 13.0994C97.5437 12.8778 97.7514 12.6147 97.9117 12.3106L97.7348 12.2173ZM97.1567 12.9493C96.917 13.163 96.6677 13.3368 96.4091 13.4713L96.5013 13.6487C96.776 13.5059 97.0388 13.3223 97.2897 13.0986L97.1567 12.9493ZM96.4091 13.4713C96.1469 13.6076 95.9111 13.7031 95.7013 13.7594L95.7531 13.9526C95.9806 13.8915 96.2302 13.7897 96.5013 13.6487L96.4091 13.4713ZM96.9992 8.26799C96.9119 8.26799 96.8405 8.23982 96.7794 8.18288L96.643 8.3291C96.742 8.42149 96.8625 8.46799 96.9992 8.46799V8.26799ZM96.7843 8.18776C96.7264 8.12574 96.6992 8.05661 96.6992 7.97599H96.4992C96.4992 8.1087 96.5465 8.2264 96.6379 8.32438L96.7843 8.18776ZM96.6992 7.97599C96.6992 7.89537 96.7264 7.82624 96.7843 7.76422L96.6381 7.62776C96.5467 7.72574 96.4992 7.84328 96.4992 7.97599H96.6992ZM96.7819 7.7667C96.8434 7.70524 96.914 7.67599 96.9992 7.67599V7.47599C96.8604 7.47599 96.739 7.5267 96.6405 7.62524L96.7819 7.7667ZM96.9992 7.67599C97.0774 7.67599 97.1418 7.70393 97.1981 7.76426L97.3443 7.62776C97.2513 7.52809 97.1344 7.47599 96.9992 7.47599V7.67599ZM97.2005 7.7667C97.263 7.82921 97.2912 7.89758 97.2912 7.97599H97.4912C97.4912 7.84107 97.4394 7.72277 97.3419 7.62528L97.2005 7.7667ZM97.2912 7.97599C97.2912 8.0544 97.263 8.12277 97.2005 8.18528L97.3419 8.3267C97.4394 8.22921 97.4912 8.11091 97.4912 7.97599H97.2912ZM97.2005 8.18528C97.1448 8.24098 97.0797 8.26799 96.9992 8.26799V8.46799C97.1321 8.46799 97.2483 8.42033 97.3419 8.3267L97.2005 8.18528ZM98.8671 12.04L98.7678 12.0279L98.7542 12.14H98.8671V12.04ZM98.9471 11.384V11.284H98.8585L98.8478 11.3719L98.9471 11.384ZM99.4751 11.328L99.5031 11.4241L99.5067 11.4229L99.4751 11.328ZM99.7631 11.096L99.677 11.0451L99.6763 11.0464L99.7631 11.096ZM100.115 9.73599L100.134 9.63779L100.036 9.61899L100.017 9.71666L100.115 9.73599ZM100.739 9.85599L100.837 9.87768L100.859 9.77722L100.758 9.75779L100.739 9.85599ZM100.595 10.528L100.497 10.5101L100.496 10.5138L100.595 10.528ZM101.931 11.48L101.851 11.5403L101.857 11.5473L101.931 11.48ZM101.899 11.936L101.967 12.0093L101.97 12.0067L101.899 11.936ZM100.795 11.952L100.764 12.0471L100.767 12.0478L100.795 11.952ZM100.363 11.672L100.281 11.7298L100.283 11.7314L100.363 11.672ZM100.179 11.208L100.186 11.1082L100.058 11.0997L100.081 11.2254L100.179 11.208ZM100.419 11.224L100.508 11.2687L100.576 11.1342L100.426 11.1242L100.419 11.224ZM100.139 11.64L100.067 11.5711L100.065 11.5731L100.139 11.64ZM99.8271 8.79999L99.7538 8.86838L99.7589 8.8731L99.8271 8.79999ZM99.8271 8.23999L99.7563 8.16924L99.754 8.17176L99.8271 8.23999ZM100.387 8.23999L100.314 8.30826L100.316 8.3107L100.387 8.23999ZM98.9664 12.0521L99.0464 11.3961L98.8478 11.3719L98.7678 12.0279L98.9664 12.0521ZM98.9471 11.484C99.1751 11.484 99.3619 11.4652 99.5031 11.4241L99.4471 11.232C99.3323 11.2655 99.1671 11.284 98.9471 11.284V11.484ZM99.5067 11.4229C99.6569 11.3728 99.7731 11.28 99.8499 11.1456L99.6763 11.0464C99.6251 11.136 99.5493 11.1978 99.4435 11.2331L99.5067 11.4229ZM99.8492 11.1469C99.9263 11.0164 99.9878 10.8367 100.037 10.6134L99.8414 10.5705C99.7944 10.7846 99.7386 10.9409 99.677 11.0451L99.8492 11.1469ZM100.037 10.6134C100.085 10.3938 100.144 10.1077 100.213 9.75532L100.017 9.71666C99.9477 10.0683 99.8892 10.3529 99.8414 10.5705L100.037 10.6134ZM100.096 9.83419L100.72 9.95419L100.758 9.75779L100.134 9.63779L100.096 9.83419ZM100.641 9.8343C100.62 9.93011 100.596 10.0366 100.57 10.1538L100.765 10.1981C100.791 10.0807 100.815 9.97387 100.837 9.87768L100.641 9.8343ZM100.57 10.1538C100.543 10.2726 100.518 10.3913 100.497 10.5101L100.693 10.5459C100.714 10.43 100.738 10.3141 100.765 10.1981L100.57 10.1538ZM100.496 10.5138C100.48 10.6291 100.471 10.7327 100.471 10.824H100.671C100.671 10.7446 100.679 10.6509 100.694 10.5421L100.496 10.5138ZM100.471 10.824C100.471 10.9462 100.499 11.0594 100.556 11.161L100.73 11.063C100.691 10.9939 100.671 10.9151 100.671 10.824H100.471ZM100.556 11.161C100.623 11.2803 100.758 11.3572 100.926 11.4078L100.984 11.2162C100.832 11.1708 100.759 11.1143 100.73 11.063L100.556 11.161ZM100.926 11.4078C101.101 11.4601 101.358 11.484 101.691 11.484V11.284C101.363 11.284 101.129 11.2598 100.984 11.2162L100.926 11.4078ZM101.691 11.484C101.785 11.484 101.828 11.5105 101.851 11.5403L102.011 11.42C101.937 11.3217 101.821 11.284 101.691 11.284V11.484ZM101.857 11.5473C101.892 11.586 101.911 11.6335 101.911 11.696H102.111C102.111 11.5878 102.076 11.4913 102.005 11.4127L101.857 11.5473ZM101.911 11.696C101.911 11.7488 101.889 11.8046 101.828 11.8653L101.97 12.0067C102.058 11.918 102.111 11.8138 102.111 11.696H101.911ZM101.831 11.8627C101.778 11.9123 101.707 11.94 101.611 11.94V12.14C101.75 12.14 101.871 12.0984 101.967 12.0093L101.831 11.8627ZM101.611 11.94C101.268 11.94 101.007 11.9108 100.824 11.8561L100.767 12.0478C100.977 12.1105 101.26 12.14 101.611 12.14V11.94ZM100.826 11.8569C100.641 11.797 100.518 11.7134 100.443 11.6125L100.283 11.7314C100.389 11.8759 100.554 11.979 100.764 12.0471L100.826 11.8569ZM100.445 11.6142C100.364 11.5002 100.307 11.3599 100.278 11.1906L100.081 11.2254C100.115 11.4187 100.181 11.5878 100.281 11.7298L100.445 11.6142ZM100.172 11.3078L100.412 11.3238L100.426 11.1242L100.186 11.1082L100.172 11.3078ZM100.33 11.1793C100.247 11.3436 100.159 11.4733 100.067 11.5711L100.212 11.7089C100.321 11.5933 100.42 11.4457 100.508 11.2687L100.33 11.1793ZM100.065 11.5731C99.9763 11.6713 99.8795 11.746 99.7744 11.7985L99.8638 11.9774C99.9933 11.9127 100.11 11.822 100.213 11.7069L100.065 11.5731ZM99.7744 11.7985C99.6684 11.8515 99.5433 11.8888 99.3974 11.9089L99.4248 12.107C99.5882 12.0845 99.7351 12.0418 99.8638 11.9774L99.7744 11.7985ZM99.3974 11.9089C99.2485 11.9295 99.0719 11.94 98.8671 11.94V12.14C99.0783 12.14 99.2644 12.1292 99.4248 12.107L99.3974 11.9089ZM100.115 8.81199C100.028 8.81199 99.9563 8.78382 99.8953 8.72688L99.7589 8.8731C99.8578 8.96549 99.9784 9.01199 100.115 9.01199V8.81199ZM99.9002 8.73176C99.8423 8.66974 99.8151 8.60061 99.8151 8.51999H99.6151C99.6151 8.6527 99.6623 8.7704 99.7538 8.86838L99.9002 8.73176ZM99.8151 8.51999C99.8151 8.43937 99.8423 8.37024 99.9002 8.30822L99.754 8.17176C99.6625 8.26974 99.6151 8.38728 99.6151 8.51999H99.8151ZM99.8978 8.3107C99.9593 8.24924 100.03 8.21999 100.115 8.21999V8.01999C99.9763 8.01999 99.8548 8.0707 99.7563 8.16924L99.8978 8.3107ZM100.115 8.21999C100.193 8.21999 100.258 8.24793 100.314 8.30826L100.46 8.17176C100.367 8.07209 100.25 8.01999 100.115 8.01999V8.21999ZM100.316 8.3107C100.379 8.37321 100.407 8.44158 100.407 8.51999H100.607C100.607 8.38507 100.555 8.26677 100.458 8.16928L100.316 8.3107ZM100.407 8.51999C100.407 8.5984 100.379 8.66677 100.316 8.72928L100.458 8.8707C100.555 8.77321 100.607 8.65491 100.607 8.51999H100.407ZM100.316 8.72928C100.261 8.78498 100.195 8.81199 100.115 8.81199V9.01199C100.248 9.01199 100.364 8.96433 100.458 8.8707L100.316 8.72928ZM101.609 12.04L101.51 12.0279L101.496 12.14H101.609V12.04ZM101.689 11.384V11.284H101.601L101.59 11.3719L101.689 11.384ZM102.425 11.352L102.437 11.4513L102.44 11.4509L102.425 11.352ZM102.801 11.168L102.88 11.2294L102.882 11.2273L102.801 11.168ZM102.457 9.01599L102.422 8.92221L102.327 8.95769L102.364 9.05271L102.457 9.01599ZM103.105 8.77599L103.198 8.73835L103.161 8.64855L103.07 8.68221L103.105 8.77599ZM103.297 9.35999L103.201 9.38591L103.201 9.38808L103.297 9.35999ZM103.409 11.248L103.316 11.2108L103.315 11.2132L103.409 11.248ZM103.065 7.83199L102.992 7.90038L102.997 7.9051L103.065 7.83199ZM103.065 7.27199L102.994 7.20124L102.992 7.20376L103.065 7.27199ZM103.625 7.27199L103.552 7.34026L103.555 7.3427L103.625 7.27199ZM101.969 7.83199L101.896 7.90038L101.901 7.9051L101.969 7.83199ZM101.969 7.27199L101.898 7.20124L101.896 7.20376L101.969 7.27199ZM102.529 7.27199L102.456 7.34026L102.459 7.3427L102.529 7.27199ZM101.708 12.0521L101.788 11.3961L101.59 11.3719L101.51 12.0279L101.708 12.0521ZM101.689 11.484C102.005 11.484 102.255 11.4734 102.437 11.4513L102.413 11.2527C102.243 11.2733 102.002 11.284 101.689 11.284V11.484ZM102.44 11.4509C102.63 11.4221 102.784 11.3533 102.88 11.2294L102.722 11.1066C102.669 11.1747 102.573 11.2285 102.41 11.2531L102.44 11.4509ZM102.882 11.2273C102.975 11.1005 103.013 10.9173 103.013 10.696H102.813C102.813 10.9013 102.777 11.0328 102.721 11.1087L102.882 11.2273ZM103.013 10.696C103.013 10.5526 102.99 10.3872 102.947 10.2011L102.752 10.2463C102.793 10.4228 102.813 10.5727 102.813 10.696H103.013ZM102.947 10.2011C102.903 10.0108 102.846 9.81101 102.776 9.60037L102.586 9.66361C102.655 9.86897 102.71 10.0632 102.752 10.2463L102.947 10.2011ZM102.776 9.60037C102.706 9.39066 102.631 9.18363 102.55 8.97927L102.364 9.05271C102.444 9.25368 102.518 9.45732 102.586 9.66361L102.776 9.60037ZM102.492 9.10976L103.14 8.86976L103.07 8.68221L102.422 8.92221L102.492 9.10976ZM103.013 8.81363C103.08 8.97972 103.143 9.17037 103.201 9.38591L103.394 9.33408C103.334 9.11229 103.269 8.91359 103.198 8.73835L103.013 8.81363ZM103.201 9.38808C103.264 9.60408 103.317 9.81725 103.359 10.0276L103.555 9.98838C103.512 9.77206 103.458 9.55323 103.393 9.3319L103.201 9.38808ZM103.359 10.0276C103.401 10.2366 103.421 10.4164 103.421 10.568H103.621C103.621 10.3995 103.599 10.206 103.555 9.98838L103.359 10.0276ZM103.421 10.568C103.421 10.8259 103.385 11.0391 103.316 11.2108L103.502 11.2851C103.583 11.0835 103.621 10.8434 103.621 10.568H103.421ZM103.315 11.2132C103.253 11.3825 103.152 11.5188 103.013 11.6243L103.134 11.7837C103.304 11.6545 103.427 11.4868 103.503 11.2828L103.315 11.2132ZM103.013 11.6243C102.873 11.7307 102.687 11.8112 102.452 11.8623L102.494 12.0577C102.75 12.0021 102.965 11.912 103.134 11.7837L103.013 11.6243ZM102.452 11.8623C102.221 11.9136 101.94 11.94 101.609 11.94V12.14C101.95 12.14 102.245 12.1131 102.494 12.0577L102.452 11.8623ZM103.353 7.84399C103.266 7.84399 103.194 7.81582 103.133 7.75888L102.997 7.9051C103.096 7.99749 103.217 8.04399 103.353 8.04399V7.84399ZM103.138 7.76376C103.08 7.70174 103.053 7.63261 103.053 7.55199H102.853C102.853 7.6847 102.9 7.8024 102.992 7.90038L103.138 7.76376ZM103.053 7.55199C103.053 7.47137 103.08 7.40224 103.138 7.34022L102.992 7.20376C102.901 7.30174 102.853 7.41928 102.853 7.55199H103.053ZM103.136 7.3427C103.197 7.28124 103.268 7.25199 103.353 7.25199V7.05199C103.214 7.05199 103.093 7.1027 102.994 7.20124L103.136 7.3427ZM103.353 7.25199C103.431 7.25199 103.496 7.27993 103.552 7.34026L103.698 7.20376C103.605 7.10409 103.488 7.05199 103.353 7.05199V7.25199ZM103.555 7.3427C103.617 7.40521 103.645 7.47358 103.645 7.55199H103.845C103.845 7.41707 103.793 7.29877 103.696 7.20128L103.555 7.3427ZM103.645 7.55199C103.645 7.6304 103.617 7.69877 103.555 7.76128L103.696 7.9027C103.793 7.80521 103.845 7.68691 103.845 7.55199H103.645ZM103.555 7.76128C103.499 7.81698 103.434 7.84399 103.353 7.84399V8.04399C103.486 8.04399 103.602 7.99633 103.696 7.9027L103.555 7.76128ZM102.257 7.84399C102.17 7.84399 102.098 7.81582 102.037 7.75888L101.901 7.9051C102 7.99749 102.121 8.04399 102.257 8.04399V7.84399ZM102.042 7.76376C101.984 7.70174 101.957 7.63261 101.957 7.55199H101.757C101.757 7.6847 101.804 7.8024 101.896 7.90038L102.042 7.76376ZM101.957 7.55199C101.957 7.47137 101.984 7.40224 102.042 7.34022L101.896 7.20376C101.805 7.30174 101.757 7.41928 101.757 7.55199H101.957ZM102.04 7.3427C102.101 7.28124 102.172 7.25199 102.257 7.25199V7.05199C102.118 7.05199 101.997 7.1027 101.898 7.20124L102.04 7.3427ZM102.257 7.25199C102.335 7.25199 102.4 7.27993 102.456 7.34026L102.602 7.20376C102.509 7.10409 102.392 7.05199 102.257 7.05199V7.25199ZM102.459 7.3427C102.521 7.40521 102.549 7.47358 102.549 7.55199H102.749C102.749 7.41707 102.697 7.29877 102.6 7.20128L102.459 7.3427ZM102.549 7.55199C102.549 7.6304 102.521 7.69877 102.459 7.76128L102.6 7.9027C102.697 7.80521 102.749 7.68691 102.749 7.55199H102.549ZM102.459 7.76128C102.403 7.81698 102.338 7.84399 102.257 7.84399V8.04399C102.39 8.04399 102.506 7.99633 102.6 7.9027L102.459 7.76128Z" fill="white"/>
</g>
<defs>
<clipPath id="clip0_2794_1828">
<rect width="29" height="8" fill="white" transform="translate(75 6)"/>
</clipPath>
</defs>
</svg>
