<?xml version="1.0" encoding="utf-8"?>
<!-- Generator: Adobe Illustrator 25.4.0, SVG Export Plug-In . SVG Version: 6.00 Build 0)  -->
<svg version="1.1" id="Слой_1" xmlns="http://www.w3.org/2000/svg" xmlns:xlink="http://www.w3.org/1999/xlink" x="0px" y="0px"
	 viewBox="0 0 14 10" style="enable-background:new 0 0 14 10;" xml:space="preserve">
<style type="text/css">
	.st0{fill:#304794;}
	.st1{fill:#FCF5FA;}
	.st2{fill:#E6322F;}
	.st3{fill:#FFFFFF;}
	.st4{fill:#CD132E;}
</style>
<g>
	<g>
		<g>
			<polygon class="st0" points="14,0.01 14,10.01 14,10.01 0,10.01 0,0.01 			"/>
		</g>
	</g>
	<g>
		<g>
			<g>
				<polygon class="st1" points="13.98,8.95 13.98,9.99 13.98,9.99 12.53,9.99 8.24,6.93 7.81,6.63 7.3,6.27 7.13,6.14 6.61,5.78 
					6.42,5.64 6.26,5.53 5.93,5.29 5.83,5.22 5.67,5.11 4.15,4.02 3.46,3.53 0,1.06 0,0.03 0.02,0.01 0.05,0.03 1.46,0.03 
					5.83,3.14 6.26,3.45 6.37,3.53 7.06,4.02 7.13,4.07 7.39,4.26 7.81,4.55 7.88,4.6 8.24,4.86 8.59,5.11 9.53,5.78 10.21,6.27 
									"/>
			</g>
		</g>
		<g>
			<g>
				<polygon class="st2" points="13.98,9.96 13.99,10 13.05,9.99 8.24,6.56 7.82,6.27 7.81,6.25 7.39,5.96 7.14,5.78 6.68,5.45 
					6.26,5.15 6.2,5.11 5.93,4.91 5.83,4.84 4.68,4.02 3.99,3.53 0,0.69 0,0 0.02,0.01 0.05,0.03 4.96,3.53 5.64,4.02 5.83,4.15 
					6.26,4.46 6.42,4.57 6.68,4.76 7.17,5.11 7.81,5.56 7.88,5.61 8.11,5.78 8.24,5.87 8.79,6.27 				"/>
			</g>
		</g>
	</g>
	<g>
		<g>
			<g>
				<polygon class="st1" points="13.98,0.22 13.98,1.26 10.79,3.53 10.11,4.02 8.59,5.11 8.24,5.36 7.88,5.61 7.81,5.66 7.65,5.78 
					7.39,5.96 7.13,6.14 6.96,6.27 6.26,6.77 5.83,7.07 1.73,9.99 0,9.99 0,9.15 4.05,6.27 4.73,5.78 5.67,5.11 5.83,4.99 
					5.93,4.91 6.26,4.69 6.42,4.57 7.13,4.07 7.2,4.02 7.81,3.59 7.89,3.53 8.24,3.28 12.8,0.03 13.87,0.03 				"/>
			</g>
		</g>
		<g>
			<g>
				<polygon class="st2" points="13.95,0.27 9.38,3.53 8.69,4.02 8.24,4.35 7.88,4.6 7.81,4.65 7.17,5.11 6.68,5.45 6.42,5.64 
					6.26,5.75 6.23,5.78 5.83,6.06 5.54,6.27 0.32,9.99 0,9.99 0,9.53 4.57,6.27 5.26,5.78 5.83,5.37 5.93,5.29 6.2,5.11 6.26,5.06 
					6.68,4.76 7.39,4.26 7.73,4.02 7.81,3.96 8.24,3.65 8.41,3.53 13.33,0.03 13.81,0.03 13.98,0.03 13.98,0.24 				"/>
			</g>
		</g>
	</g>
	<g>
		<g>
			<rect y="3.53" class="st3" width="14" height="2.73"/>
		</g>
	</g>
	<g>
		<g>
			<rect y="4.02" class="st2" width="14" height="1.76"/>
		</g>
	</g>
	<g>
		<g>
			<rect x="6.26" y="0.03" class="st4" width="1.54" height="9.97"/>
		</g>
	</g>
	<g>
		<g>
			<g>
				<polygon class="st3" points="7.8,6.27 8.23,6.27 8.23,10 5.83,10 5.83,6.27 6.26,6.27 6.26,3.52 5.83,3.52 5.83,0.01 8.23,0.01 
					8.23,3.52 7.8,3.52 				"/>
			</g>
		</g>
		<g>
			<g>
				<rect x="6.25" y="0.01" class="st2" width="1.56" height="10"/>
			</g>
		</g>
	</g>
</g>
</svg>
