<svg width="120" height="36" viewBox="0 0 120 36" fill="none" xmlns="http://www.w3.org/2000/svg">
<rect width="120" height="36" rx="8" fill="black"/>
<rect x="0.5" y="0.5" width="119" height="35" rx="7.5" stroke="white" stroke-opacity="0.3"/>
<path fill-rule="evenodd" clip-rule="evenodd" d="M43.8204 20.993V22.4748H47.482C47.4246 23.1728 47.1259 23.8313 46.6344 24.3436C45.8937 25.0764 44.8685 25.4711 43.812 25.4302C41.565 25.4302 39.7435 23.6611 39.7435 21.4787C39.7435 19.2963 41.565 17.5271 43.812 17.5271C44.8442 17.5108 45.8409 17.8927 46.5836 18.5891L47.66 17.5436C46.6471 16.5474 45.2619 15.992 43.8204 16.0041C41.7684 15.9266 39.8371 16.9457 38.7873 18.66C37.7376 20.3743 37.7376 22.509 38.7873 24.2233C39.8371 25.9376 41.7684 26.9567 43.8204 26.8791C45.2883 26.9436 46.713 26.3882 47.7278 25.3562C48.6158 24.4085 49.0899 23.1628 49.0501 21.8821C49.0528 21.5701 49.0244 21.2585 48.9653 20.9518L43.8204 20.993ZM53.2201 19.9144C51.2318 19.919 49.6232 21.4874 49.6263 23.4187C49.6295 25.3499 51.243 26.9135 53.2314 26.912C55.2198 26.9104 56.8308 25.3444 56.8308 23.4132C56.8448 22.4783 56.4674 21.5779 55.7851 20.9184C55.1028 20.2588 54.1741 19.8965 53.2116 19.9144H53.2201ZM57.526 23.4241C57.5198 21.494 59.1241 19.9235 61.1113 19.9144C62.0738 19.8965 63.0025 20.2588 63.6848 20.9184C64.3671 21.5779 64.7445 22.4783 64.7305 23.4132C64.7305 25.3434 63.1211 26.9089 61.1339 26.9119C59.1466 26.9149 57.5322 25.3543 57.526 23.4241ZM59.1551 24.3334C59.5421 25.1204 60.3851 25.5975 61.2808 25.5367C61.843 25.524 62.3761 25.2913 62.7591 24.8914C63.1421 24.4915 63.3426 23.9582 63.315 23.4127C63.3128 22.5406 62.762 21.7584 61.926 21.4403C61.0899 21.1221 60.1387 21.3327 59.5271 21.9712C58.9155 22.6098 58.768 23.5465 59.1551 24.3334ZM51.258 24.3411C51.6478 25.1275 52.4932 25.6023 53.3894 25.538H53.3809C53.9431 25.5253 54.4762 25.2926 54.8592 24.8927C55.2422 24.4928 55.4427 23.9596 55.4151 23.414C55.4127 22.5412 54.8607 21.7587 54.0237 21.4413C53.1866 21.1239 52.2348 21.3361 51.6241 21.9764C51.0134 22.6167 50.8682 23.5547 51.258 24.3411ZM79.1393 19.9138C80.5445 19.964 81.772 20.8516 82.2245 22.1448L82.4025 22.5152L77.5797 24.4498C77.882 25.1185 78.5745 25.5396 79.3258 25.5118C80.0512 25.5136 80.7241 25.1446 81.0972 24.5404L82.3262 25.3636C81.6572 26.3363 80.5301 26.9176 79.3258 26.9113C78.3685 26.925 77.4466 26.5599 76.772 25.9C76.0974 25.2402 75.7281 24.3422 75.7489 23.4126C75.6904 22.5041 76.0215 21.6127 76.6638 20.9499C77.3061 20.287 78.2022 19.912 79.1393 19.9138ZM77.3087 23.3148C77.274 22.8004 77.4539 22.2941 77.8079 21.91C78.1619 21.526 78.6601 21.2964 79.1903 21.2732C79.7492 21.2374 80.2761 21.529 80.5295 22.0141L77.3087 23.3148ZM74.9778 26.7072H73.3928V16.4167H74.9778V26.7072ZM70.7988 20.6975H70.7395C70.2563 20.1729 69.5656 19.8734 68.8409 19.8743C66.917 19.9649 65.405 21.5063 65.405 23.3772C65.405 25.248 66.917 26.7894 68.8409 26.8801C69.568 26.8919 70.2631 26.5905 70.7395 26.0568H70.7903V26.559C70.7903 27.9009 70.0529 28.6171 68.8663 28.6171C68.058 28.5987 67.3413 28.1075 67.0525 27.374L65.6709 27.9338C66.2029 29.1907 67.4671 30.0083 68.8663 30.0001C70.7225 30.0001 72.2567 28.9382 72.2567 26.3532V20.1213H70.7988V20.6975ZM68.9823 25.5377L68.985 25.5379H68.9765L68.9823 25.5377ZM70.4106 24.8775C70.0468 25.2773 69.531 25.5156 68.9823 25.5377C67.8503 25.4395 66.9824 24.5181 66.9824 23.4139C66.9824 22.3089 67.8516 21.387 68.985 21.29C69.5326 21.3173 70.0457 21.5582 70.4079 21.958C70.7702 22.3579 70.9508 22.8829 70.909 23.4139C70.9557 23.9474 70.7756 24.4763 70.4106 24.8775ZM89.6496 16.4148H85.8608V26.7053H87.4458V22.8032H89.658C90.8893 22.8891 92.0669 22.2998 92.7095 21.276C93.3521 20.2523 93.3521 18.9657 92.7095 17.9419C92.0669 16.9182 90.8893 16.3289 89.658 16.4148H89.6496ZM87.4373 21.3553H89.6495L89.6834 21.38C90.6875 21.38 91.5014 20.5894 91.5014 19.6141C91.5014 18.6389 90.6875 17.8483 89.6834 17.8483H87.4373V21.3553ZM99.4222 19.8732C98.243 19.8047 97.1343 20.4223 96.5998 21.4456L98.0068 22.0136C98.2902 21.5062 98.8553 21.2092 99.4477 21.2562C99.8541 21.2101 100.263 21.3245 100.581 21.5738C100.9 21.823 101.102 22.1861 101.143 22.5816V22.6887C100.634 22.4269 100.066 22.2911 99.49 22.2935C97.9729 22.2935 96.4387 23.1167 96.4387 24.6068C96.469 25.2487 96.7652 25.8514 97.2601 26.2778C97.755 26.7042 98.4065 26.9181 99.0662 26.8707C99.8793 26.9274 100.659 26.5486 101.1 25.8828H101.151V26.7061H102.677V22.7463C102.677 20.9434 101.27 19.8979 99.4646 19.8979L99.4222 19.8732ZM97.9899 24.6405C97.9899 25.258 98.7103 25.5132 99.2273 25.5132L99.2697 25.5379C100.225 25.5153 101.016 24.8129 101.126 23.8914C100.686 23.653 100.189 23.5336 99.685 23.5456C98.8883 23.5456 97.9899 23.8173 97.9899 24.6405ZM108.237 20.1209L106.423 24.5829H106.372L104.491 20.1209H102.796L105.618 26.3611L104.008 29.8269H105.66L110 20.1209H108.237ZM95.5742 26.7072H93.9893V16.4167H95.5742V26.7072Z" fill="white"/>
<g clip-path="url(#clip0_2794_2162)">
<path d="M62.7166 13.0081C62.7166 12.8161 62.7432 12.6028 62.7966 12.3681C62.8499 12.1334 62.9352 11.8748 63.0525 11.5921L63.6285 11.8161C63.5432 12.0401 63.4792 12.2454 63.4365 12.4321C63.3939 12.6188 63.3725 12.7921 63.3725 12.9521C63.3725 13.2454 63.4445 13.4828 63.5885 13.6641C63.7379 13.8508 63.9352 13.9868 64.1805 14.0721C64.4312 14.1574 64.7059 14.2001 65.0045 14.2001C65.3672 14.2001 65.6712 14.1601 65.9165 14.0801C66.1619 14.0054 66.3565 13.9014 66.5005 13.7681C66.6445 13.6348 66.7459 13.4828 66.8046 13.3121C66.8686 13.1468 66.9005 12.9734 66.9005 12.7921C66.9005 12.5574 66.8819 12.3361 66.8446 12.1281C66.8126 11.9201 66.7672 11.7174 66.7085 11.5201C66.6552 11.3174 66.5965 11.1121 66.5325 10.9041L67.1805 10.7281C67.2392 10.9308 67.2845 11.0961 67.3165 11.2241C67.3485 11.3468 67.3726 11.4454 67.3885 11.5201C67.4099 11.5948 67.4285 11.6614 67.4445 11.7201C67.5032 11.9174 67.5805 12.0641 67.6765 12.1601C67.7726 12.2508 67.8819 12.3121 68.0045 12.3441C68.1325 12.3708 68.2632 12.3841 68.3966 12.3841C68.5086 12.3841 68.5886 12.4161 68.6365 12.4801C68.6899 12.5388 68.7165 12.6108 68.7165 12.6961C68.7165 12.7814 68.6792 12.8614 68.6045 12.9361C68.5299 13.0054 68.4339 13.0401 68.3165 13.0401C68.0925 13.0401 67.9059 13.0028 67.7565 12.9281C67.6072 12.8481 67.4899 12.7494 67.4045 12.6321C67.3245 12.5148 67.2712 12.3921 67.2445 12.2641L67.5725 12.6721C67.5566 12.9441 67.5032 13.2081 67.4125 13.4641C67.3272 13.7254 67.1885 13.9601 66.9965 14.1681C66.8045 14.3814 66.5432 14.5494 66.2125 14.6721C65.8872 14.7948 65.4765 14.8561 64.9805 14.8561C64.6765 14.8561 64.3885 14.8188 64.1165 14.7441C63.8445 14.6694 63.6019 14.5548 63.3885 14.4001C63.1805 14.2508 63.0152 14.0588 62.8926 13.8241C62.7752 13.5948 62.7166 13.3228 62.7166 13.0081ZM65.1325 9.81609C65.0205 9.81609 64.9245 9.77876 64.8445 9.70409C64.7699 9.62409 64.7325 9.53076 64.7325 9.42409C64.7325 9.31742 64.7699 9.22409 64.8445 9.14409C64.9245 9.06409 65.0205 9.02409 65.1325 9.02409C65.2392 9.02409 65.3299 9.06409 65.4045 9.14409C65.4845 9.22409 65.5245 9.31742 65.5245 9.42409C65.5245 9.53076 65.4845 9.62409 65.4045 9.70409C65.3299 9.77876 65.2392 9.81609 65.1325 9.81609ZM68.3203 13.0401L68.4003 12.3841C68.5496 12.3841 68.675 12.3521 68.7763 12.2881C68.8776 12.2241 68.9763 12.1174 69.0723 11.9681C69.1683 11.8188 69.2723 11.6188 69.3843 11.3681C69.539 11.0268 69.691 10.7681 69.8403 10.5921C69.995 10.4161 70.147 10.2961 70.2963 10.2321C70.451 10.1681 70.603 10.1361 70.7523 10.1361C70.9336 10.1361 71.1016 10.1841 71.2563 10.2801C71.411 10.3708 71.547 10.4934 71.6643 10.6481C71.7816 10.8028 71.8723 10.9734 71.9363 11.1601C72.0056 11.3414 72.0403 11.5228 72.0403 11.7041C72.0403 12.0241 71.9843 12.2801 71.8723 12.4721C71.7603 12.6588 71.6163 12.7948 71.4403 12.8801C71.2696 12.9601 71.091 13.0001 70.9043 13.0001C70.739 13.0001 70.5256 12.9681 70.2643 12.9041C70.0083 12.8401 69.683 12.6774 69.2883 12.4161L69.6003 11.9121C69.8616 12.0774 70.0963 12.1921 70.3043 12.2561C70.5176 12.3148 70.6936 12.3441 70.8323 12.3441C70.987 12.3441 71.1096 12.3228 71.2003 12.2801C71.291 12.2321 71.3576 12.1654 71.4003 12.0801C71.443 11.9948 71.4643 11.8988 71.4643 11.7921C71.4643 11.6374 71.427 11.4828 71.3523 11.3281C71.2776 11.1734 71.1816 11.0454 71.0643 10.9441C70.9523 10.8428 70.8323 10.7921 70.7043 10.7921C70.6083 10.7921 70.515 10.8188 70.4243 10.8721C70.3336 10.9254 70.2403 11.0241 70.1443 11.1681C70.0483 11.3121 69.939 11.5201 69.8163 11.7921C69.6883 12.0801 69.5656 12.3094 69.4483 12.4801C69.3363 12.6454 69.2216 12.7681 69.1043 12.8481C68.987 12.9281 68.8643 12.9788 68.7363 13.0001C68.6136 13.0268 68.475 13.0401 68.3203 13.0401ZM78.4739 13.0401C78.1859 13.0401 77.9299 13.0001 77.7059 12.9201C77.4873 12.8348 77.3113 12.6934 77.1779 12.4961C77.0499 12.2934 76.9779 12.0134 76.9619 11.6561L76.8339 8.87209H77.4819L77.6099 11.5121C77.6259 11.7628 77.6713 11.9521 77.7459 12.0801C77.8206 12.2028 77.9246 12.2854 78.0579 12.3281C78.1966 12.3654 78.3619 12.3841 78.5539 12.3841C78.6659 12.3841 78.7459 12.4161 78.7939 12.4801C78.8473 12.5388 78.8739 12.6108 78.8739 12.6961C78.8739 12.7814 78.8366 12.8614 78.7619 12.9361C78.6873 13.0054 78.5913 13.0401 78.4739 13.0401ZM77.2659 12.1601C76.9619 12.2561 76.6659 12.3041 76.3779 12.3041C76.0899 12.3041 75.8286 12.2614 75.5939 12.1761C75.3593 12.0908 75.1726 11.9681 75.0339 11.8081C74.8953 11.6428 74.8259 11.4454 74.8259 11.2161C74.8259 10.9921 74.8819 10.7814 74.9939 10.5841C75.1113 10.3868 75.2686 10.2108 75.4659 10.0561C75.6686 9.90142 75.9006 9.77342 76.1619 9.67209C76.4286 9.56542 76.7113 9.49342 77.0099 9.45609L77.1219 10.1281C76.8553 10.1388 76.6179 10.1761 76.4099 10.2401C76.2073 10.2988 76.0339 10.3761 75.8899 10.4721C75.7513 10.5681 75.6446 10.6721 75.5699 10.7841C75.4953 10.8961 75.4579 11.0054 75.4579 11.1121C75.4579 11.2294 75.5006 11.3254 75.5859 11.4001C75.6713 11.4748 75.7806 11.5334 75.9139 11.5761C76.0473 11.6134 76.1939 11.6374 76.3539 11.6481C76.5139 11.6534 76.6686 11.6481 76.8179 11.6321C76.9673 11.6108 77.0953 11.5814 77.2019 11.5441L77.2659 12.1601ZM78.4766 13.0401L78.5566 12.3841C78.8232 12.3841 79.0312 12.3654 79.1806 12.3281C79.3299 12.2854 79.4419 12.2081 79.5166 12.0961C79.5966 11.9788 79.6606 11.8108 79.7086 11.5921C79.7566 11.3734 79.8152 11.0881 79.8846 10.7361L80.5086 10.8561C80.4872 10.9521 80.4632 11.0588 80.4366 11.1761C80.4099 11.2934 80.3859 11.4108 80.3646 11.5281C80.3486 11.6401 80.3406 11.7388 80.3406 11.8241C80.3406 11.9041 80.3459 11.9788 80.3566 12.0481C80.3672 12.1174 80.4072 12.1761 80.4766 12.2241C80.5459 12.2721 80.6632 12.3121 80.8286 12.3441C80.9939 12.3708 81.2312 12.3841 81.5406 12.3841C81.6526 12.3841 81.7326 12.4161 81.7806 12.4801C81.8339 12.5388 81.8606 12.6108 81.8606 12.6961C81.8606 12.7814 81.8232 12.8614 81.7486 12.9361C81.6739 13.0054 81.5779 13.0401 81.4606 13.0401C81.1352 13.0401 80.8766 13.0241 80.6846 12.9921C80.4926 12.9548 80.3459 12.9014 80.2446 12.8321C80.1486 12.7628 80.0792 12.6774 80.0366 12.5761C79.9992 12.4694 79.9699 12.3468 79.9486 12.2081L80.1886 12.2241C80.1032 12.3948 80.0099 12.5334 79.9086 12.6401C79.8126 12.7468 79.7006 12.8294 79.5726 12.8881C79.4446 12.9468 79.2899 12.9868 79.1086 13.0081C78.9326 13.0294 78.7219 13.0401 78.4766 13.0401ZM80.4926 14.5521C80.3806 14.5521 80.2846 14.5121 80.2046 14.4321C80.1299 14.3574 80.0926 14.2668 80.0926 14.1601C80.0926 14.0534 80.1299 13.9601 80.2046 13.8801C80.2846 13.8001 80.3806 13.7601 80.4926 13.7601C80.5992 13.7601 80.6899 13.8001 80.7646 13.8801C80.8446 13.9601 80.8846 14.0534 80.8846 14.1601C80.8846 14.2668 80.8446 14.3574 80.7646 14.4321C80.6899 14.5121 80.5992 14.5521 80.4926 14.5521ZM79.3966 14.5521C79.2846 14.5521 79.1886 14.5121 79.1086 14.4321C79.0339 14.3574 78.9966 14.2668 78.9966 14.1601C78.9966 14.0534 79.0339 13.9601 79.1086 13.8801C79.1886 13.8001 79.2846 13.7601 79.3966 13.7601C79.5032 13.7601 79.5939 13.8001 79.6686 13.8801C79.7486 13.9601 79.7886 14.0534 79.7886 14.1601C79.7886 14.2668 79.7486 14.3574 79.6686 14.4321C79.5939 14.5121 79.5032 14.5521 79.3966 14.5521ZM81.4606 13.0401L81.5329 12.3841C81.8369 12.3841 82.0503 12.3548 82.1729 12.2961C82.2956 12.2374 82.3649 12.1334 82.3809 11.9841C82.4023 11.8348 82.4076 11.6268 82.3969 11.3601L82.2609 7.28809H82.9249L83.0529 11.3441C83.0636 11.6161 83.1063 11.8294 83.1809 11.9841C83.2609 12.1334 83.3676 12.2374 83.5009 12.2961C83.6343 12.3548 83.7809 12.3841 83.9409 12.3841C84.0529 12.3841 84.1329 12.4161 84.1809 12.4801C84.2343 12.5388 84.2609 12.6108 84.2609 12.6961C84.2609 12.7814 84.2236 12.8614 84.1489 12.9361C84.0743 13.0054 83.9783 13.0401 83.8609 13.0401C83.6369 13.0401 83.4503 13.0054 83.3009 12.9361C83.1569 12.8614 83.0423 12.7681 82.9569 12.6561C82.8769 12.5388 82.8236 12.4161 82.7969 12.2881L82.9649 12.3041C82.9116 12.4641 82.8236 12.6001 82.7009 12.7121C82.5836 12.8188 82.4236 12.9014 82.2209 12.9601C82.0183 13.0134 81.7646 13.0401 81.4606 13.0401ZM83.8594 13.0401L83.9394 12.3841C84.2754 12.3841 84.534 12.3814 84.7154 12.3761C84.902 12.3708 85.038 12.3654 85.1234 12.3601C85.2087 12.3494 85.2674 12.3441 85.2994 12.3441C85.2034 12.2908 85.0914 12.2081 84.9634 12.0961C84.8354 11.9788 84.7234 11.8321 84.6274 11.6561C84.5314 11.4748 84.4834 11.2614 84.4834 11.0161C84.4834 10.7121 84.5527 10.4454 84.6914 10.2161C84.8354 9.98676 85.03 9.80809 85.2754 9.68009C85.526 9.55209 85.8114 9.48809 86.1314 9.48809C86.254 9.48809 86.3847 9.49876 86.5234 9.52009C86.662 9.54142 86.7954 9.57342 86.9234 9.61609L86.7874 10.2321C86.6807 10.2054 86.5687 10.1841 86.4514 10.1681C86.334 10.1521 86.2274 10.1441 86.1314 10.1441C85.9394 10.1441 85.7687 10.1814 85.6194 10.2561C85.47 10.3254 85.3527 10.4241 85.2674 10.5521C85.182 10.6801 85.1394 10.8348 85.1394 11.0161C85.1394 11.1548 85.1687 11.2828 85.2274 11.4001C85.286 11.5121 85.3634 11.6134 85.4594 11.7041C85.5554 11.7948 85.662 11.8694 85.7794 11.9281C85.8967 11.9868 86.0114 12.0321 86.1234 12.0641C86.2407 12.0961 86.3447 12.1094 86.4354 12.1041C86.4994 12.0828 86.558 12.0641 86.6114 12.0481C86.6647 12.0321 86.7234 12.0134 86.7874 11.9921C86.8567 11.9654 86.9394 11.9308 87.0354 11.8881C87.1367 11.8454 87.2647 11.7894 87.4194 11.7201L87.6434 12.3041C87.286 12.4481 86.9207 12.5761 86.5474 12.6881C86.1794 12.8001 85.7767 12.8881 85.3394 12.9521C84.9074 13.0108 84.414 13.0401 83.8594 13.0401ZM90.1853 13.0081C90.1853 12.8801 90.196 12.7441 90.2173 12.6001C90.244 12.4508 90.2813 12.2934 90.3293 12.1281C90.3826 11.9574 90.4466 11.7788 90.5213 11.5921L91.0973 11.8161C91.044 11.9654 90.996 12.1068 90.9533 12.2401C90.916 12.3734 90.8866 12.4988 90.8653 12.6161C90.8493 12.7334 90.8413 12.8454 90.8413 12.9521C90.8413 13.2241 90.9133 13.4534 91.0573 13.6401C91.2013 13.8268 91.388 13.9654 91.6173 14.0561C91.852 14.1521 92.1026 14.2001 92.3693 14.2001C92.892 14.2001 93.3 14.1068 93.5933 13.9201C93.8866 13.7388 94.092 13.4961 94.2093 13.1921C94.3266 12.8934 94.3773 12.5654 94.3613 12.2081L94.1853 7.28809H94.8493L94.9773 11.3441C94.988 11.6161 95.0306 11.8294 95.1053 11.9841C95.1853 12.1334 95.292 12.2374 95.4253 12.2961C95.5586 12.3548 95.7053 12.3841 95.8653 12.3841C95.9773 12.3841 96.0573 12.4161 96.1053 12.4801C96.1586 12.5388 96.1853 12.6108 96.1853 12.6961C96.1853 12.7814 96.148 12.8614 96.0733 12.9361C95.9986 13.0054 95.9026 13.0401 95.7853 13.0401C95.62 13.0401 95.4786 13.0188 95.3613 12.9761C95.244 12.9281 95.148 12.8694 95.0733 12.8001C94.9986 12.7254 94.94 12.6428 94.8973 12.5521C94.8546 12.4561 94.8226 12.3601 94.8013 12.2641L95.0253 12.4881C95.004 12.7708 94.9426 13.0508 94.8413 13.3281C94.7453 13.6108 94.596 13.8668 94.3933 14.0961C94.1906 14.3254 93.9186 14.5094 93.5773 14.6481C93.2413 14.7868 92.8253 14.8561 92.3293 14.8561C92.052 14.8561 91.7826 14.8134 91.5213 14.7281C91.2653 14.6481 91.036 14.5281 90.8333 14.3681C90.636 14.2081 90.4786 14.0134 90.3613 13.7841C90.244 13.5601 90.1853 13.3014 90.1853 13.0081ZM103.381 13.0401C103.242 13.0401 103.066 13.0268 102.853 13.0001C102.645 12.9681 102.432 12.9148 102.213 12.8401C102 12.7654 101.818 12.6614 101.669 12.5281L102.325 12.2001C102.512 12.2748 102.704 12.3254 102.901 12.3521C103.104 12.3734 103.29 12.3841 103.461 12.3841C103.573 12.3841 103.653 12.4161 103.701 12.4801C103.754 12.5388 103.781 12.6108 103.781 12.6961C103.781 12.7814 103.744 12.8614 103.669 12.9361C103.594 13.0054 103.498 13.0401 103.381 13.0401ZM99.6611 13.1441C99.1917 13.1441 98.7971 13.1254 98.4771 13.0881C98.1624 13.0561 97.9064 13.0054 97.7091 12.9361C97.5117 12.8668 97.3624 12.7788 97.2611 12.6721C97.1597 12.5654 97.0904 12.4374 97.0531 12.2881L97.2371 12.2241C97.1037 12.4801 96.9597 12.6668 96.8051 12.7841C96.6504 12.8961 96.4877 12.9681 96.3171 13.0001C96.1517 13.0268 95.9757 13.0401 95.7891 13.0401L95.8691 12.3841C96.0557 12.3841 96.2077 12.3574 96.3251 12.3041C96.4477 12.2508 96.5464 12.1628 96.6211 12.0401C96.7011 11.9174 96.7704 11.7548 96.8291 11.5521C96.8877 11.3494 96.9517 11.0988 97.0211 10.8001L97.6051 10.9521C97.5731 11.0748 97.5437 11.1921 97.5171 11.3041C97.4904 11.4161 97.4691 11.5148 97.4531 11.6001C97.4424 11.6801 97.4371 11.7441 97.4371 11.7921C97.4371 11.9201 97.4664 12.0294 97.5251 12.1201C97.5837 12.2054 97.6957 12.2774 97.8611 12.3361C98.0264 12.3894 98.2637 12.4294 98.5731 12.4561C98.8877 12.4774 99.2984 12.4881 99.8051 12.4881C100.157 12.4881 100.472 12.4668 100.749 12.4241C101.026 12.3814 101.258 12.3174 101.445 12.2321C101.637 12.1414 101.784 12.0321 101.885 11.9041C101.986 11.7761 102.037 11.6294 102.037 11.4641C102.037 11.3468 102.008 11.2321 101.949 11.1201C101.89 11.0028 101.8 10.9041 101.677 10.8241C101.554 10.7441 101.392 10.7041 101.189 10.7041C100.933 10.7041 100.677 10.7708 100.421 10.9041C100.17 11.0374 99.9304 11.2054 99.7011 11.4081C99.4771 11.6054 99.2771 11.8081 99.1011 12.0161C98.9251 12.2241 98.7837 12.4054 98.6771 12.5601L97.9811 12.5361C98.1517 12.2588 98.3544 11.9761 98.5891 11.6881C98.8291 11.3948 99.0904 11.1254 99.3731 10.8801C99.6611 10.6294 99.9624 10.4294 100.277 10.2801C100.592 10.1254 100.912 10.0481 101.237 10.0481C101.53 10.0481 101.781 10.1094 101.989 10.2321C102.202 10.3494 102.365 10.5094 102.477 10.7121C102.594 10.9148 102.653 11.1441 102.653 11.4001C102.653 11.7148 102.56 12.0054 102.373 12.2721C102.192 12.5334 101.882 12.7441 101.445 12.9041C101.008 13.0641 100.413 13.1441 99.6611 13.1441ZM103.383 13.0401L103.455 12.3841C103.732 12.3841 104.004 12.3628 104.271 12.3201C104.537 12.2774 104.799 12.2161 105.055 12.1361C105.311 12.0561 105.556 11.9601 105.791 11.8481C106.031 11.7308 106.257 11.5974 106.471 11.4481C106.332 11.3254 106.172 11.2188 105.991 11.1281C105.809 11.0374 105.609 10.9681 105.391 10.9201C105.177 10.8668 104.951 10.8401 104.711 10.8401C104.625 10.8401 104.545 10.8428 104.471 10.8481C104.396 10.8534 104.321 10.8641 104.247 10.8801C104.172 10.8908 104.087 10.9068 103.991 10.9281L103.863 10.3201C104.007 10.2774 104.151 10.2454 104.295 10.2241C104.439 10.1974 104.577 10.1841 104.711 10.1841C104.988 10.1841 105.239 10.2188 105.463 10.2881C105.687 10.3521 105.889 10.4321 106.071 10.5281C106.257 10.6241 106.431 10.7201 106.591 10.8161C106.756 10.9121 106.916 10.9948 107.071 11.0641C107.225 11.1281 107.385 11.1601 107.551 11.1601H107.719L107.775 11.7361C107.545 11.7361 107.335 11.7681 107.143 11.8321C106.951 11.8961 106.761 11.9788 106.575 12.0801C106.393 12.1761 106.201 12.2801 105.999 12.3921C105.796 12.4988 105.572 12.6028 105.327 12.7041C105.081 12.8001 104.799 12.8801 104.479 12.9441C104.164 13.0081 103.799 13.0401 103.383 13.0401ZM108.83 13.0001L108.67 7.28809H109.318L109.478 13.0001H108.83Z" fill="white"/>
<path d="M63.0526 11.592L63.0888 11.4988L62.9977 11.4633L62.9602 11.5536L63.0526 11.592ZM63.6286 11.816L63.722 11.8516L63.7574 11.7588L63.6648 11.7228L63.6286 11.816ZM65.9166 14.08L65.8875 13.9843L65.8856 13.9849L65.9166 14.08ZM66.8046 13.312L66.7113 13.2759L66.71 13.2795L66.8046 13.312ZM66.8446 12.128L66.7457 12.1432L66.7462 12.1457L66.8446 12.128ZM66.7086 11.52L66.6118 11.5454L66.6127 11.5485L66.7086 11.52ZM66.5326 10.904L66.5064 10.8075L66.4066 10.8346L66.437 10.9334L66.5326 10.904ZM67.1806 10.728L67.2766 10.7002L67.2493 10.6057L67.1544 10.6315L67.1806 10.728ZM67.3166 11.224L67.2196 11.2482L67.2198 11.2492L67.3166 11.224ZM67.3886 11.52L67.2906 11.541L67.2924 11.5475L67.3886 11.52ZM67.4446 11.72L67.3481 11.7463L67.3487 11.7485L67.4446 11.72ZM67.6766 12.16L67.6058 12.2307L67.6079 12.2327L67.6766 12.16ZM68.0046 12.344L67.9793 12.4409L67.9842 12.4419L68.0046 12.344ZM68.6366 12.48L68.5562 12.5403L68.5626 12.5473L68.6366 12.48ZM68.6046 12.936L68.6727 13.0093L68.6753 13.0067L68.6046 12.936ZM67.7566 12.928L67.7093 13.0162L67.7119 13.0174L67.7566 12.928ZM67.4046 12.632L67.3219 12.6883L67.3237 12.6908L67.4046 12.632ZM67.2446 12.264L67.3225 12.2013L67.1467 12.2844L67.2446 12.264ZM67.5726 12.672L67.6724 12.6779L67.6747 12.6394L67.6505 12.6093L67.5726 12.672ZM67.4126 13.464L67.3183 13.4306L67.3175 13.4329L67.4126 13.464ZM66.9966 14.168L66.9231 14.1002L66.9222 14.1011L66.9966 14.168ZM64.8446 9.70399L64.7713 9.77238L64.7763 9.7771L64.8446 9.70399ZM64.8446 9.14399L64.7738 9.07324L64.7715 9.07576L64.8446 9.14399ZM65.4046 9.14399L65.3314 9.21226L65.3339 9.2147L65.4046 9.14399ZM62.8166 13.008C62.8166 12.825 62.842 12.6193 62.8941 12.3901L62.6991 12.3458C62.6445 12.586 62.6166 12.8069 62.6166 13.008H62.8166ZM62.8941 12.3901C62.9459 12.1623 63.0292 11.9091 63.1449 11.6303L62.9602 11.5536C62.8413 11.8402 62.7539 12.1044 62.6991 12.3458L62.8941 12.3901ZM63.0163 11.6852L63.5923 11.9092L63.6648 11.7228L63.0888 11.4988L63.0163 11.6852ZM63.5351 11.7804C63.4485 12.0077 63.383 12.2175 63.3391 12.4097L63.5341 12.4543C63.5755 12.2731 63.638 12.0723 63.722 11.8516L63.5351 11.7804ZM63.3391 12.4097C63.2951 12.6023 63.2726 12.7832 63.2726 12.952H63.4726C63.4726 12.8008 63.4928 12.635 63.5341 12.4543L63.3391 12.4097ZM63.2726 12.952C63.2726 13.2618 63.3488 13.5229 63.5103 13.7262L63.6669 13.6018C63.5403 13.4424 63.4726 13.2289 63.4726 12.952H63.2726ZM63.5103 13.7262C63.6724 13.9288 63.8862 14.0755 64.1477 14.1664L64.2134 13.9775C63.9843 13.8978 63.8034 13.7725 63.6669 13.6018L63.5103 13.7262ZM64.1477 14.1664C64.41 14.2557 64.6963 14.3 65.0046 14.3V14.1C64.7155 14.1 64.4525 14.0589 64.2134 13.9775L64.1477 14.1664ZM65.0046 14.3C65.3739 14.3 65.6891 14.2593 65.9476 14.1751L65.8856 13.9849C65.6534 14.0606 65.3606 14.1 65.0046 14.1V14.3ZM65.9457 14.1757C66.2012 14.0979 66.4106 13.9876 66.5685 13.8414L66.4326 13.6946C66.3026 13.815 66.1226 13.9127 65.8875 13.9843L65.9457 14.1757ZM66.5685 13.8414C66.7235 13.6978 66.8347 13.5321 66.8991 13.3445L66.71 13.2795C66.6572 13.4332 66.5656 13.5715 66.4326 13.6946L66.5685 13.8414ZM66.8978 13.3481C66.9664 13.171 67.0006 12.9854 67.0006 12.792H66.8006C66.8006 12.9613 66.7707 13.1223 66.7113 13.2759L66.8978 13.3481ZM67.0006 12.792C67.0006 12.552 66.9815 12.3247 66.943 12.1103L66.7462 12.1457C66.7823 12.3472 66.8006 12.5626 66.8006 12.792H67.0006ZM66.9434 12.1128C66.9107 11.9004 66.8644 11.6933 66.8044 11.4915L66.6127 11.5485C66.6701 11.7414 66.7144 11.9396 66.7457 12.1432L66.9434 12.1128ZM66.8053 11.4945C66.7516 11.2905 66.6925 11.0838 66.6282 10.8746L66.437 10.9334C66.5006 11.1401 66.5588 11.3442 66.6118 11.5454L66.8053 11.4945ZM66.5588 11.0005L67.2068 10.8245L67.1544 10.6315L66.5064 10.8075L66.5588 11.0005ZM67.0845 10.7558C67.143 10.9579 67.188 11.1219 67.2196 11.2482L67.4136 11.1997C67.3812 11.0701 67.3355 10.9034 67.2766 10.7002L67.0845 10.7558ZM67.2198 11.2492C67.2517 11.3713 67.275 11.4684 67.2906 11.541L67.4864 11.499C67.4699 11.4223 67.4455 11.322 67.4133 11.1987L67.2198 11.2492ZM67.2924 11.5475C67.3137 11.6218 67.3322 11.6881 67.3481 11.7463L67.5411 11.6937C67.5249 11.6345 67.5061 11.5675 67.4847 11.4925L67.2924 11.5475ZM67.3487 11.7485C67.4099 11.9542 67.4935 12.1184 67.6058 12.2307L67.7473 12.0893C67.6676 12.0096 67.5966 11.8804 67.5404 11.6915L67.3487 11.7485ZM67.6079 12.2327C67.7156 12.3344 67.8397 12.4044 67.9793 12.4409L68.0298 12.2472C67.9241 12.2196 67.8295 12.1669 67.7452 12.0873L67.6079 12.2327ZM67.9842 12.4419C68.119 12.47 68.2565 12.484 68.3966 12.484V12.284C68.27 12.284 68.1461 12.2713 68.025 12.2461L67.9842 12.4419ZM68.3966 12.484C68.4905 12.484 68.5339 12.5105 68.5562 12.5403L68.7166 12.42C68.6429 12.3217 68.5266 12.284 68.3966 12.284V12.484ZM68.5626 12.5473C68.5978 12.586 68.6166 12.6335 68.6166 12.696H68.8166C68.8166 12.5878 68.782 12.4913 68.7106 12.4127L68.5626 12.5473ZM68.6166 12.696C68.6166 12.7488 68.5945 12.8046 68.5339 12.8653L68.6753 13.0067C68.764 12.918 68.8166 12.8138 68.8166 12.696H68.6166ZM68.5365 12.8627C68.4832 12.9123 68.4128 12.94 68.3166 12.94V13.14C68.4551 13.14 68.5767 13.0984 68.6727 13.0093L68.5365 12.8627ZM68.3166 12.94C68.103 12.94 67.9328 12.9043 67.8013 12.8385L67.7119 13.0174C67.879 13.101 68.0821 13.14 68.3166 13.14V12.94ZM67.8038 12.8398C67.6655 12.7658 67.5606 12.6764 67.4855 12.5732L67.3237 12.6908C67.4193 12.8222 67.5489 12.9302 67.7093 13.0162L67.8038 12.8398ZM67.4872 12.5757C67.414 12.4682 67.3662 12.3577 67.3425 12.2436L67.1467 12.2844C67.1763 12.4263 67.2352 12.5611 67.3219 12.6883L67.4872 12.5757ZM67.1666 12.3266L67.4946 12.7346L67.6505 12.6093L67.3225 12.2013L67.1666 12.3266ZM67.4728 12.6661C67.4573 12.9288 67.4058 13.1835 67.3183 13.4306L67.5068 13.4974C67.6007 13.2325 67.6559 12.9592 67.6724 12.6779L67.4728 12.6661ZM67.3175 13.4329C67.2368 13.6802 67.1056 13.9024 66.9231 14.1002L67.0701 14.2358C67.2715 14.0176 67.4177 13.7704 67.5076 13.495L67.3175 13.4329ZM66.9222 14.1011C66.7433 14.3 66.4967 14.4599 66.1778 14.5782L66.2474 14.7657C66.5898 14.6387 66.8659 14.4627 67.0709 14.2349L66.9222 14.1011ZM66.1778 14.5782C65.8674 14.6952 65.4692 14.756 64.9806 14.756V14.956C65.4839 14.956 65.907 14.8941 66.2474 14.7657L66.1778 14.5782ZM64.9806 14.756C64.6848 14.756 64.4058 14.7197 64.143 14.6476L64.0901 14.8404C64.3714 14.9176 64.6683 14.956 64.9806 14.956V14.756ZM64.143 14.6476C63.8818 14.5758 63.6502 14.4662 63.4473 14.319L63.3299 14.4809C63.5536 14.6431 63.8073 14.7628 64.0901 14.8404L64.143 14.6476ZM63.4473 14.319C63.2524 14.1791 63.0969 13.999 62.9812 13.7777L62.8035 13.8695C62.9332 14.1176 63.1088 14.3222 63.3299 14.4809L63.4473 14.319ZM62.9812 13.7777C62.8725 13.5652 62.8166 13.3103 62.8166 13.008H62.6166C62.6166 13.335 62.6776 13.6233 62.8035 13.8695L62.9812 13.7777ZM65.1326 9.71599C65.0452 9.71599 64.9738 9.68782 64.9128 9.63088L64.7763 9.7771C64.8753 9.86949 64.9959 9.91599 65.1326 9.91599V9.71599ZM64.9177 9.63576C64.8598 9.57374 64.8326 9.50461 64.8326 9.42399H64.6326C64.6326 9.5567 64.6798 9.6744 64.7713 9.77238L64.9177 9.63576ZM64.8326 9.42399C64.8326 9.34337 64.8598 9.27424 64.9177 9.21222L64.7715 9.07576C64.68 9.17374 64.6326 9.29128 64.6326 9.42399H64.8326ZM64.9153 9.2147C64.9767 9.15324 65.0474 9.12399 65.1326 9.12399V8.92399C64.9938 8.92399 64.8724 8.9747 64.7738 9.07324L64.9153 9.2147ZM65.1326 9.12399C65.2107 9.12399 65.2751 9.15193 65.3314 9.21226L65.4777 9.07576C65.3847 8.97609 65.2678 8.92399 65.1326 8.92399V9.12399ZM65.3339 9.2147C65.3964 9.27721 65.4246 9.34558 65.4246 9.42399H65.6246C65.6246 9.28907 65.5728 9.17077 65.4753 9.07328L65.3339 9.2147ZM65.4246 9.42399C65.4246 9.5024 65.3964 9.57077 65.3339 9.63328L65.4753 9.7747C65.5728 9.67721 65.6246 9.55891 65.6246 9.42399H65.4246ZM65.3339 9.63328C65.2782 9.68898 65.213 9.71599 65.1326 9.71599V9.91599C65.2655 9.91599 65.3817 9.86833 65.4753 9.7747L65.3339 9.63328ZM68.3203 13.04L68.2211 13.0279L68.2074 13.14H68.3203V13.04ZM68.4003 12.384V12.284H68.3118L68.3011 12.3719L68.4003 12.384ZM69.8403 10.592L69.7652 10.526L69.7641 10.5273L69.8403 10.592ZM70.2963 10.232L70.2581 10.1396L70.2569 10.1401L70.2963 10.232ZM71.2563 10.28L71.2036 10.365L71.2058 10.3663L71.2563 10.28ZM71.9363 11.16L71.8417 11.1924L71.8429 11.1957L71.9363 11.16ZM71.8723 12.472L71.9581 12.5234L71.9587 12.5224L71.8723 12.472ZM71.4403 12.88L71.4828 12.9705L71.484 12.97L71.4403 12.88ZM69.2883 12.416L69.2033 12.3633L69.1523 12.4458L69.2331 12.4994L69.2883 12.416ZM69.6003 11.912L69.6538 11.8275L69.5685 11.7735L69.5153 11.8593L69.6003 11.912ZM70.3043 12.256L70.2749 12.3516L70.2778 12.3524L70.3043 12.256ZM71.2003 12.28L71.243 12.3706L71.2471 12.3684L71.2003 12.28ZM71.0643 10.944L70.9972 11.0182L70.999 11.0197L71.0643 10.944ZM68.7363 13L68.7199 12.9012L68.7151 12.9023L68.7363 13ZM68.4196 13.0521L68.4996 12.3961L68.3011 12.3719L68.2211 13.0279L68.4196 13.0521ZM68.4003 12.484C68.5639 12.484 68.7089 12.4488 68.8297 12.3725L68.7229 12.2034C68.6411 12.2551 68.5354 12.284 68.4003 12.284V12.484ZM68.8297 12.3725C68.9479 12.2979 69.056 12.1783 69.1564 12.0221L68.9882 11.9139C68.8966 12.0564 68.8074 12.1501 68.7229 12.2034L68.8297 12.3725ZM69.1564 12.0221C69.2562 11.8669 69.3626 11.6619 69.4756 11.4088L69.2932 11.3267C69.1823 11.575 69.0804 11.7704 68.9882 11.9139L69.1564 12.0221ZM69.4756 11.4088C69.6285 11.0713 69.7758 10.8226 69.9166 10.6567L69.7641 10.5273C69.6062 10.7134 69.4497 10.9815 69.2932 11.3267L69.4756 11.4088ZM69.9154 10.658C70.0643 10.4886 70.2048 10.38 70.3357 10.3239L70.2569 10.1401C70.0892 10.2119 69.9257 10.3434 69.7652 10.526L69.9154 10.658ZM70.3346 10.3244C70.4786 10.2648 70.6176 10.236 70.7523 10.236V10.036C70.5884 10.036 70.4234 10.0712 70.2581 10.1396L70.3346 10.3244ZM70.7523 10.236C70.9149 10.236 71.0647 10.2788 71.2036 10.365L71.3091 10.195C71.1386 10.0892 70.9524 10.036 70.7523 10.036V10.236ZM71.2058 10.3663C71.3482 10.4498 71.4746 10.5633 71.5847 10.7084L71.744 10.5875C71.6194 10.4233 71.4738 10.2915 71.3069 10.1937L71.2058 10.3663ZM71.5847 10.7084C71.6955 10.8545 71.7811 11.0157 71.8417 11.1924L72.0309 11.1276C71.9635 10.931 71.8679 10.7508 71.744 10.5875L71.5847 10.7084ZM71.8429 11.1957C71.9082 11.3664 71.9403 11.5357 71.9403 11.704H72.1403C72.1403 11.5096 72.1031 11.3162 72.0297 11.1243L71.8429 11.1957ZM71.9403 11.704C71.9403 12.0136 71.8859 12.2502 71.7859 12.4216L71.9587 12.5224C72.0827 12.3098 72.1403 12.0344 72.1403 11.704H71.9403ZM71.7866 12.4205C71.6834 12.5925 71.5533 12.7141 71.3967 12.79L71.484 12.97C71.6794 12.8752 71.8373 12.7248 71.9581 12.5234L71.7866 12.4205ZM71.3979 12.7894C71.2404 12.8633 71.0762 12.9 70.9043 12.9V13.1C71.1058 13.1 71.299 13.0567 71.4828 12.9705L71.3979 12.7894ZM70.9043 12.9C70.7504 12.9 70.5459 12.87 70.2881 12.8069L70.2401 13.001C70.505 13.0659 70.7276 13.1 70.9043 13.1V12.9ZM70.2881 12.8069C70.0486 12.747 69.735 12.5918 69.3435 12.3326L69.2331 12.4994C69.631 12.7628 69.9676 12.9329 70.2401 13.001L70.2881 12.8069ZM69.3734 12.4686L69.6854 11.9646L69.5153 11.8593L69.2033 12.3633L69.3734 12.4686ZM69.5469 11.9965C69.8128 12.1648 70.0557 12.2842 70.2749 12.3516L70.3337 12.1604C70.1369 12.0999 69.9105 11.9899 69.6538 11.8275L69.5469 11.9965ZM70.2778 12.3524C70.4953 12.4122 70.681 12.444 70.8323 12.444V12.244C70.7063 12.244 70.54 12.2171 70.3308 12.1596L70.2778 12.3524ZM70.8323 12.444C70.9945 12.444 71.1337 12.422 71.243 12.3706L71.1577 12.1895C71.0857 12.2234 70.9795 12.244 70.8323 12.244V12.444ZM71.2471 12.3684C71.3547 12.3114 71.4371 12.2301 71.4898 12.1247L71.3109 12.0353C71.2783 12.1005 71.2272 12.1526 71.1535 12.1916L71.2471 12.3684ZM71.4898 12.1247C71.5402 12.0239 71.5643 11.9123 71.5643 11.792H71.3643C71.3643 11.885 71.3458 11.9654 71.3109 12.0353L71.4898 12.1247ZM71.5643 11.792C71.5643 11.6207 71.5229 11.4512 71.4424 11.2845L71.2623 11.3715C71.3311 11.5141 71.3643 11.654 71.3643 11.792H71.5643ZM71.4424 11.2845C71.3624 11.1189 71.2584 10.9795 71.1297 10.8683L70.999 11.0197C71.1049 11.1111 71.1929 11.2278 71.2623 11.3715L71.4424 11.2845ZM71.1314 10.8698C71.0045 10.755 70.8615 10.692 70.7043 10.692V10.892C70.8032 10.892 70.9001 10.9303 70.9972 11.0182L71.1314 10.8698ZM70.7043 10.692C70.5888 10.692 70.4781 10.7243 70.3736 10.7858L70.475 10.9582C70.5518 10.913 70.6278 10.892 70.7043 10.892V10.692ZM70.3736 10.7858C70.2642 10.8502 70.1607 10.9631 70.0611 11.1125L70.2275 11.2235C70.3199 11.0849 70.4032 11.0005 70.475 10.9582L70.3736 10.7858ZM70.0611 11.1125C69.9607 11.2632 69.8487 11.4769 69.7252 11.7509L69.9075 11.8331C70.0293 11.5631 70.136 11.3608 70.2275 11.2235L70.0611 11.1125ZM69.7252 11.7509C69.5985 12.0358 69.4785 12.2596 69.3659 12.4233L69.5307 12.5366C69.6528 12.359 69.7781 12.1241 69.9075 11.8331L69.7252 11.7509ZM69.3659 12.4233C69.2583 12.5822 69.1516 12.6947 69.048 12.7654L69.1607 12.9306C69.2917 12.8413 69.4143 12.7085 69.5307 12.5366L69.3659 12.4233ZM69.048 12.7654C68.9415 12.838 68.8323 12.8825 68.7199 12.9012L68.7528 13.0986C68.8964 13.0747 69.0325 13.018 69.1607 12.9306L69.048 12.7654ZM68.7151 12.9023C68.6008 12.9271 68.4694 12.94 68.3203 12.94V13.14C68.4806 13.14 68.6265 13.1262 68.7576 13.0977L68.7151 12.9023ZM77.7059 12.92L77.6696 13.0132L77.6723 13.0142L77.7059 12.92ZM77.1779 12.496L77.0933 12.5494L77.0951 12.552L77.1779 12.496ZM76.8339 8.87199V8.77199H76.7292L76.734 8.87658L76.8339 8.87199ZM77.4819 8.87199L77.5818 8.86715L77.5772 8.77199H77.4819V8.87199ZM77.6099 11.512L77.51 11.5168L77.5101 11.5184L77.6099 11.512ZM77.7459 12.08L77.6595 12.1304L77.6605 12.132L77.7459 12.08ZM78.0579 12.328L78.0274 12.4233L78.0319 12.4245L78.0579 12.328ZM78.7939 12.48L78.7136 12.5403L78.7199 12.5473L78.7939 12.48ZM78.7619 12.936L78.83 13.0093L78.8326 13.0067L78.7619 12.936ZM77.2659 12.16L77.2961 12.2553L77.3738 12.2308L77.3654 12.1497L77.2659 12.16ZM75.0339 11.808L74.9573 11.8723L74.9584 11.8735L75.0339 11.808ZM74.9939 10.584L74.908 10.5329L74.907 10.5346L74.9939 10.584ZM75.4659 10.056L75.4053 9.97649L75.4042 9.97728L75.4659 10.056ZM76.1619 9.67199L76.1981 9.76523L76.1991 9.76484L76.1619 9.67199ZM77.0099 9.45599L77.1086 9.43955L77.0928 9.34485L76.9975 9.35676L77.0099 9.45599ZM77.1219 10.128L77.1259 10.2279L77.2392 10.2234L77.2206 10.1115L77.1219 10.128ZM76.4099 10.24L76.4377 10.3361L76.4393 10.3356L76.4099 10.24ZM75.8899 10.472L75.8345 10.3888L75.833 10.3898L75.8899 10.472ZM75.9139 11.576L75.8834 11.6713L75.887 11.6723L75.9139 11.576ZM76.3539 11.648L76.3473 11.7478L76.3506 11.7479L76.3539 11.648ZM76.8179 11.632L76.8286 11.7315L76.8321 11.731L76.8179 11.632ZM77.2019 11.544L77.3014 11.5337L77.2883 11.4078L77.1689 11.4496L77.2019 11.544ZM78.4739 12.94C78.1951 12.94 77.9508 12.9012 77.7396 12.8258L77.6723 13.0142C77.9091 13.0987 78.1768 13.14 78.4739 13.14V12.94ZM77.7423 12.8268C77.5428 12.749 77.3829 12.6208 77.2608 12.44L77.0951 12.552C77.2396 12.7659 77.4317 12.9204 77.6696 13.0132L77.7423 12.8268ZM77.2625 12.4426C77.1472 12.2601 77.0774 11.9994 77.0618 11.6515L76.862 11.6605C76.8785 12.0272 76.9525 12.3265 77.0933 12.5494L77.2625 12.4426ZM77.0618 11.6515L76.9338 8.8674L76.734 8.87658L76.862 11.6605L77.0618 11.6515ZM76.8339 8.97199H77.4819V8.77199H76.8339V8.97199ZM77.3821 8.87683L77.51 11.5168L77.7098 11.5071L77.5818 8.86715L77.3821 8.87683ZM77.5101 11.5184C77.5265 11.7751 77.5733 11.9827 77.6595 12.1304L77.8323 12.0296C77.7691 11.9213 77.7253 11.7502 77.7097 11.5056L77.5101 11.5184ZM77.6605 12.132C77.7473 12.2746 77.8705 12.3731 78.0274 12.4233L78.0884 12.2327C77.9786 12.1976 77.8939 12.1307 77.8314 12.028L77.6605 12.132ZM78.0319 12.4245C78.1814 12.4648 78.3559 12.484 78.5539 12.484V12.284C78.368 12.284 78.2118 12.2659 78.0839 12.2314L78.0319 12.4245ZM78.5539 12.484C78.6479 12.484 78.6913 12.5105 78.7136 12.5403L78.8739 12.42C78.8002 12.3217 78.684 12.284 78.5539 12.284V12.484ZM78.7199 12.5473C78.7552 12.586 78.7739 12.6335 78.7739 12.696H78.9739C78.9739 12.5878 78.9393 12.4913 78.8679 12.4127L78.7199 12.5473ZM78.7739 12.696C78.7739 12.7488 78.7519 12.8046 78.6912 12.8653L78.8326 13.0067C78.9213 12.918 78.9739 12.8138 78.9739 12.696H78.7739ZM78.6939 12.8627C78.6405 12.9123 78.5701 12.94 78.4739 12.94V13.14C78.6124 13.14 78.734 13.0984 78.83 13.0093L78.6939 12.8627ZM77.2358 12.0646C76.9405 12.1579 76.6547 12.204 76.3779 12.204V12.404C76.6772 12.404 76.9833 12.3541 77.2961 12.2553L77.2358 12.0646ZM76.3779 12.204C76.0998 12.204 75.8503 12.1628 75.6281 12.082L75.5598 12.27C75.8069 12.3598 76.08 12.404 76.3779 12.404V12.204ZM75.6281 12.082C75.4066 12.0014 75.2352 11.8875 75.1095 11.7425L74.9584 11.8735C75.11 12.0485 75.312 12.1799 75.5598 12.27L75.6281 12.082ZM75.1106 11.7437C74.988 11.5976 74.9259 11.4234 74.9259 11.216H74.7259C74.7259 11.4672 74.8026 11.6877 74.9573 11.8723L75.1106 11.7437ZM74.9259 11.216C74.9259 11.0095 74.9773 10.8158 75.0809 10.6333L74.907 10.5346C74.7865 10.7468 74.7259 10.9744 74.7259 11.216H74.9259ZM75.0799 10.6351C75.1904 10.4493 75.3391 10.2824 75.5276 10.1347L75.4042 9.97728C75.1981 10.1389 75.0322 10.324 74.908 10.5329L75.0799 10.6351ZM75.5266 10.1355C75.7211 9.98707 75.9447 9.86349 76.1981 9.76523L76.1258 9.57875C75.8565 9.68316 75.6161 9.81558 75.4053 9.97649L75.5266 10.1355ZM76.1991 9.76484C76.4574 9.6615 76.7318 9.59154 77.0223 9.55522L76.9975 9.35676C76.6908 9.3951 76.3998 9.46915 76.1248 9.57914L76.1991 9.76484ZM76.9113 9.47243L77.0233 10.1444L77.2206 10.1115L77.1086 9.43955L76.9113 9.47243ZM77.1179 10.0281C76.8445 10.039 76.5984 10.0774 76.3805 10.1444L76.4393 10.3356C76.6375 10.2746 76.866 10.2383 77.1259 10.2279L77.1179 10.0281ZM76.3821 10.1439C76.1717 10.2048 75.9886 10.286 75.8345 10.3888L75.9454 10.5552C76.0793 10.4659 76.2428 10.3925 76.4377 10.3361L76.3821 10.1439ZM75.833 10.3898C75.6865 10.4912 75.5699 10.6037 75.4867 10.7285L75.6531 10.8395C75.7193 10.7402 75.816 10.6448 75.9469 10.5542L75.833 10.3898ZM75.4867 10.7285C75.404 10.8526 75.3579 10.981 75.3579 11.112H75.5579C75.5579 11.0297 75.5866 10.9393 75.6531 10.8395L75.4867 10.7285ZM75.3579 11.112C75.3579 11.257 75.4122 11.3808 75.5201 11.4752L75.6518 11.3247C75.589 11.2698 75.5579 11.2016 75.5579 11.112H75.3579ZM75.5201 11.4752C75.6178 11.5608 75.74 11.6254 75.8834 11.6713L75.9444 11.4807C75.8211 11.4413 75.7247 11.3885 75.6518 11.3247L75.5201 11.4752ZM75.887 11.6723C76.0279 11.7117 76.1815 11.7368 76.3473 11.7478L76.3606 11.5482C76.2064 11.5379 76.0667 11.5149 75.9409 11.4797L75.887 11.6723ZM76.3506 11.7479C76.515 11.7534 76.6743 11.748 76.8286 11.7315L76.8073 11.5326C76.6629 11.548 76.5129 11.5532 76.3573 11.548L76.3506 11.7479ZM76.8321 11.731C76.9859 11.709 77.1205 11.6784 77.235 11.6384L77.1689 11.4496C77.07 11.4842 76.9487 11.5123 76.8038 11.533L76.8321 11.731ZM77.1025 11.5543L77.1665 12.1703L77.3654 12.1497L77.3014 11.5337L77.1025 11.5543ZM78.4766 13.04L78.3773 13.0279L78.3636 13.14H78.4766V13.04ZM78.5566 12.384V12.284H78.468L78.4573 12.3719L78.5566 12.384ZM79.1806 12.328L79.2048 12.4251L79.208 12.4241L79.1806 12.328ZM79.5166 12.096L79.4339 12.0396L79.4334 12.0405L79.5166 12.096ZM79.8846 10.736L79.9034 10.6378L79.8057 10.619L79.7864 10.7167L79.8846 10.736ZM80.5086 10.856L80.6062 10.8777L80.6285 10.7772L80.5274 10.7578L80.5086 10.856ZM80.3646 11.528L80.2661 11.5101L80.2656 11.5138L80.3646 11.528ZM80.8286 12.344L80.8096 12.4422L80.8126 12.4427L80.8286 12.344ZM81.7806 12.48L81.7002 12.5403L81.7066 12.5473L81.7806 12.48ZM81.7486 12.936L81.8167 13.0093L81.8193 13.0067L81.7486 12.936ZM80.6846 12.992L80.6655 13.0902L80.6681 13.0906L80.6846 12.992ZM80.2446 12.832L80.186 12.9131L80.1881 12.9145L80.2446 12.832ZM80.0366 12.576L79.942 12.6091L79.9444 12.6148L80.0366 12.576ZM79.9486 12.208L79.9552 12.1082L79.8308 12.0999L79.8497 12.2232L79.9486 12.208ZM80.1886 12.224L80.278 12.2687L80.3453 12.1342L80.1952 12.1242L80.1886 12.224ZM79.9086 12.64L79.836 12.5711L79.8342 12.5731L79.9086 12.64ZM80.2046 13.88L80.1338 13.8092L80.1315 13.8118L80.2046 13.88ZM80.7646 13.88L80.6914 13.9483L80.6939 13.9507L80.7646 13.88ZM80.7646 14.432L80.6962 14.3587L80.6915 14.3638L80.7646 14.432ZM79.1086 13.88L79.0378 13.8092L79.0355 13.8118L79.1086 13.88ZM79.6686 13.88L79.5954 13.9483L79.5979 13.9507L79.6686 13.88ZM79.6686 14.432L79.6002 14.3587L79.5955 14.3638L79.6686 14.432ZM78.5758 13.0521L78.6558 12.3961L78.4573 12.3719L78.3773 13.0279L78.5758 13.0521ZM78.5566 12.484C78.8264 12.484 79.0438 12.4653 79.2048 12.4251L79.1563 12.231C79.0186 12.2654 78.8201 12.284 78.5566 12.284V12.484ZM79.208 12.4241C79.3765 12.376 79.5099 12.2862 79.5998 12.1515L79.4334 12.0405C79.3738 12.1298 79.2833 12.1946 79.1531 12.2318L79.208 12.4241ZM79.5992 12.1523C79.6893 12.0201 79.7569 11.8382 79.8062 11.6134L79.6109 11.5705C79.5642 11.7831 79.5038 11.9372 79.4339 12.0396L79.5992 12.1523ZM79.8062 11.6134C79.8545 11.3938 79.9133 11.1077 79.9827 10.7553L79.7864 10.7167C79.7172 11.0683 79.6587 11.3529 79.6109 11.5705L79.8062 11.6134ZM79.8657 10.8342L80.4897 10.9542L80.5274 10.7578L79.9034 10.6378L79.8657 10.8342ZM80.4109 10.8343C80.3897 10.9301 80.3657 11.0366 80.339 11.1538L80.5341 11.1981C80.5608 11.0807 80.5848 10.9739 80.6062 10.8777L80.4109 10.8343ZM80.339 11.1538C80.3121 11.2726 80.2877 11.3913 80.2661 11.5101L80.4629 11.5459C80.484 11.43 80.5077 11.3141 80.5341 11.1981L80.339 11.1538ZM80.2656 11.5138C80.2491 11.6291 80.2406 11.7327 80.2406 11.824H80.4406C80.4406 11.7446 80.448 11.6509 80.4636 11.5421L80.2656 11.5138ZM80.2406 11.824C80.2406 11.9084 80.2462 11.9882 80.2577 12.0632L80.4554 12.0328C80.4456 11.9691 80.4406 11.8996 80.4406 11.824H80.2406ZM80.2577 12.0632C80.2734 12.1651 80.3327 12.246 80.4196 12.3062L80.5335 12.1418C80.4818 12.106 80.4611 12.0696 80.4554 12.0328L80.2577 12.0632ZM80.4196 12.3062C80.5069 12.3666 80.6415 12.4097 80.8096 12.4422L80.8476 12.2458C80.685 12.2143 80.5849 12.1774 80.5335 12.1418L80.4196 12.3062ZM80.8126 12.4427C80.9859 12.4707 81.2296 12.484 81.5406 12.484V12.284C81.2329 12.284 81.0019 12.2706 80.8445 12.2453L80.8126 12.4427ZM81.5406 12.484C81.6345 12.484 81.6779 12.5105 81.7002 12.5403L81.8606 12.42C81.7869 12.3217 81.6706 12.284 81.5406 12.284V12.484ZM81.7066 12.5473C81.7418 12.586 81.7606 12.6335 81.7606 12.696H81.9606C81.9606 12.5878 81.926 12.4913 81.8546 12.4127L81.7066 12.5473ZM81.7606 12.696C81.7606 12.7488 81.7385 12.8046 81.6779 12.8653L81.8193 13.0067C81.908 12.918 81.9606 12.8138 81.9606 12.696H81.7606ZM81.6805 12.8627C81.6271 12.9123 81.5568 12.94 81.4606 12.94V13.14C81.599 13.14 81.7207 13.0984 81.8167 13.0093L81.6805 12.8627ZM81.4606 12.94C81.1376 12.94 80.8852 12.924 80.701 12.8933L80.6681 13.0906C80.868 13.1239 81.1329 13.14 81.4606 13.14V12.94ZM80.7036 12.8938C80.518 12.8577 80.3864 12.8079 80.301 12.7495L80.1881 12.9145C80.3054 12.9948 80.4671 13.0516 80.6655 13.0902L80.7036 12.8938ZM80.3031 12.7509C80.2208 12.6915 80.1637 12.6203 80.1287 12.5372L79.9444 12.6148C79.9947 12.7343 80.0763 12.8339 80.186 12.9131L80.3031 12.7509ZM80.1309 12.5429C80.0961 12.4433 80.068 12.3268 80.0474 12.1928L79.8497 12.2232C79.8718 12.3665 79.9022 12.4954 79.942 12.6091L80.1309 12.5429ZM79.9419 12.3078L80.1819 12.3238L80.1952 12.1242L79.9552 12.1082L79.9419 12.3078ZM80.0991 12.1793C80.017 12.3436 79.9288 12.4733 79.836 12.5711L79.9811 12.7089C80.0909 12.5933 80.1895 12.4457 80.278 12.2687L80.0991 12.1793ZM79.8342 12.5731C79.7472 12.6698 79.6462 12.7442 79.5309 12.7971L79.6142 12.9789C79.7549 12.9144 79.8779 12.8235 79.9829 12.7069L79.8342 12.5731ZM79.5309 12.7971C79.4147 12.8503 79.2707 12.8882 79.0969 12.9087L79.1202 13.1073C79.309 13.0851 79.4744 13.043 79.6142 12.9789L79.5309 12.7971ZM79.0969 12.9087C78.9261 12.9294 78.7193 12.94 78.4766 12.94V13.14C78.7245 13.14 78.939 13.1293 79.1202 13.1073L79.0969 12.9087ZM80.4926 14.452C80.4074 14.452 80.3367 14.4227 80.2753 14.3613L80.1339 14.5027C80.2324 14.6012 80.3537 14.652 80.4926 14.652V14.452ZM80.2753 14.3613C80.2196 14.3056 80.1926 14.2404 80.1926 14.16H79.9926C79.9926 14.2929 80.0402 14.4091 80.1339 14.5027L80.2753 14.3613ZM80.1926 14.16C80.1926 14.0794 80.2198 14.0102 80.2777 13.9482L80.1315 13.8118C80.04 13.9097 79.9926 14.0273 79.9926 14.16H80.1926ZM80.2753 13.9507C80.3367 13.8892 80.4074 13.86 80.4926 13.86V13.66C80.3537 13.66 80.2323 13.7107 80.1338 13.8092L80.2753 13.9507ZM80.4926 13.86C80.5707 13.86 80.635 13.8879 80.6914 13.9483L80.8377 13.8118C80.7446 13.7121 80.6278 13.66 80.4926 13.66V13.86ZM80.6939 13.9507C80.7564 14.0132 80.7846 14.0816 80.7846 14.16H80.9846C80.9846 14.0251 80.9328 13.9068 80.8353 13.8093L80.6939 13.9507ZM80.7846 14.16C80.7846 14.2381 80.7566 14.3024 80.6962 14.3587L80.8328 14.5051C80.9325 14.4121 80.9846 14.2952 80.9846 14.16H80.7846ZM80.6915 14.3638C80.6351 14.4241 80.5707 14.452 80.4926 14.452V14.652C80.6278 14.652 80.7446 14.5999 80.8377 14.5002L80.6915 14.3638ZM79.3966 14.452C79.3114 14.452 79.2407 14.4227 79.1793 14.3613L79.0379 14.5027C79.1364 14.6012 79.2577 14.652 79.3966 14.652V14.452ZM79.1793 14.3613C79.1236 14.3056 79.0966 14.2404 79.0966 14.16H78.8966C78.8966 14.2929 78.9442 14.4091 79.0379 14.5027L79.1793 14.3613ZM79.0966 14.16C79.0966 14.0794 79.1238 14.0102 79.1817 13.9482L79.0355 13.8118C78.944 13.9097 78.8966 14.0273 78.8966 14.16H79.0966ZM79.1793 13.9507C79.2407 13.8892 79.3114 13.86 79.3966 13.86V13.66C79.2577 13.66 79.1363 13.7107 79.0378 13.8092L79.1793 13.9507ZM79.3966 13.86C79.4747 13.86 79.539 13.8879 79.5954 13.9483L79.7417 13.8118C79.6486 13.7121 79.5318 13.66 79.3966 13.66V13.86ZM79.5979 13.9507C79.6604 14.0132 79.6886 14.0816 79.6886 14.16H79.8886C79.8886 14.0251 79.8368 13.9068 79.7393 13.8093L79.5979 13.9507ZM79.6886 14.16C79.6886 14.2381 79.6606 14.3024 79.6002 14.3587L79.7368 14.5051C79.8365 14.4121 79.8886 14.2952 79.8886 14.16H79.6886ZM79.5955 14.3638C79.5391 14.4241 79.4747 14.452 79.3966 14.452V14.652C79.5318 14.652 79.6486 14.5999 79.7417 14.5002L79.5955 14.3638ZM81.4609 13.04L81.3615 13.0291L81.3494 13.14H81.4606L81.4609 13.04ZM81.5329 12.384V12.284H81.4433L81.4335 12.3731L81.5329 12.384ZM82.3809 11.984L82.2819 11.9698L82.2815 11.9733L82.3809 11.984ZM82.2609 7.28799V7.18799H82.1575L82.161 7.29133L82.2609 7.28799ZM82.9249 7.28799L83.0249 7.28483L83.0218 7.18799H82.9249V7.28799ZM83.1809 11.984L83.0908 12.0275L83.0928 12.0312L83.1809 11.984ZM84.1809 12.48L84.1006 12.5403L84.1069 12.5473L84.1809 12.48ZM84.1489 12.936L84.217 13.0093L84.2196 13.0067L84.1489 12.936ZM83.3009 12.936L83.2549 13.0248L83.2588 13.0267L83.3009 12.936ZM82.9569 12.656L82.8742 12.7124L82.8774 12.7166L82.9569 12.656ZM82.7969 12.288L82.8064 12.1884L82.6714 12.1756L82.699 12.3084L82.7969 12.288ZM82.9649 12.304L83.0598 12.3356L83.0996 12.2164L82.9744 12.2044L82.9649 12.304ZM82.2209 12.96L82.2464 13.0567L82.2487 13.056L82.2209 12.96ZM81.5603 13.0509L81.6323 12.3949L81.4335 12.3731L81.3615 13.0291L81.5603 13.0509ZM81.5329 12.484C81.8378 12.484 82.0713 12.4554 82.2161 12.3862L82.1298 12.2058C82.0292 12.2539 81.8361 12.284 81.5329 12.284V12.484ZM82.2161 12.3862C82.3738 12.3108 82.4611 12.1741 82.4804 11.9946L82.2815 11.9733C82.2687 12.0925 82.2174 12.1638 82.1298 12.2058L82.2161 12.3862ZM82.4799 11.9981C82.5025 11.8399 82.5076 11.6249 82.4969 11.356L82.297 11.3633C82.3076 11.6278 82.302 11.8294 82.2819 11.9698L82.4799 11.9981ZM82.4969 11.356L82.3609 7.28465L82.161 7.29133L82.297 11.3633L82.4969 11.356ZM82.2609 7.38799H82.9249V7.18799H82.2609V7.38799ZM82.825 7.29114L82.953 11.3471L83.1529 11.3408L83.0249 7.28483L82.825 7.29114ZM82.953 11.3471C82.9639 11.6257 83.0077 11.8553 83.0908 12.0275L83.271 11.9405C83.2048 11.8033 83.1633 11.6062 83.1529 11.3408L82.953 11.3471ZM83.0928 12.0312C83.1815 12.1969 83.3036 12.3184 83.4607 12.3875L83.5412 12.2045C83.4316 12.1562 83.3403 12.0697 83.2691 11.9368L83.0928 12.0312ZM83.4607 12.3875C83.6079 12.4523 83.7684 12.484 83.9409 12.484V12.284C83.7934 12.284 83.6607 12.257 83.5412 12.2045L83.4607 12.3875ZM83.9409 12.484C84.0349 12.484 84.0783 12.5105 84.1006 12.5403L84.2609 12.42C84.1872 12.3217 84.071 12.284 83.9409 12.284V12.484ZM84.1069 12.5473C84.1422 12.586 84.1609 12.6335 84.1609 12.696H84.3609C84.3609 12.5878 84.3263 12.4913 84.2549 12.4127L84.1069 12.5473ZM84.1609 12.696C84.1609 12.7488 84.1389 12.8046 84.0782 12.8653L84.2196 13.0067C84.3083 12.918 84.3609 12.8138 84.3609 12.696H84.1609ZM84.0809 12.8627C84.0275 12.9123 83.9571 12.94 83.8609 12.94V13.14C83.9994 13.14 84.121 13.0984 84.217 13.0093L84.0809 12.8627ZM83.8609 12.94C83.6465 12.94 83.4753 12.9067 83.343 12.8453L83.2588 13.0267C83.4252 13.1039 83.6273 13.14 83.8609 13.14V12.94ZM83.347 12.8472C83.2141 12.7783 83.1116 12.694 83.0365 12.5954L82.8774 12.7166C82.9729 12.842 83.0998 12.9444 83.2549 13.0248L83.347 12.8472ZM83.0396 12.5997C82.9663 12.4922 82.9186 12.3817 82.8948 12.2676L82.699 12.3084C82.7286 12.4503 82.7875 12.5851 82.8742 12.7124L83.0396 12.5997ZM82.7875 12.3875L82.9555 12.4035L82.9744 12.2044L82.8064 12.1884L82.7875 12.3875ZM82.8701 12.2724C82.822 12.4164 82.7434 12.5378 82.6335 12.6381L82.7682 12.786C82.9036 12.6623 83.0012 12.5115 83.0598 12.3356L82.8701 12.2724ZM82.6335 12.6381C82.5305 12.7317 82.3858 12.8082 82.1931 12.8639L82.2487 13.056C82.4614 12.9945 82.6365 12.9057 82.7682 12.786L82.6335 12.6381ZM82.1955 12.8633C82.0039 12.9137 81.7595 12.94 81.4606 12.94V13.14C81.7697 13.14 82.0326 13.113 82.2464 13.0567L82.1955 12.8633ZM83.8594 13.04L83.7601 13.0279L83.7464 13.14H83.8594V13.04ZM83.9394 12.384V12.284H83.8508L83.8401 12.3719L83.9394 12.384ZM85.1234 12.36L85.1296 12.46L85.1358 12.4592L85.1234 12.36ZM85.2994 12.344V12.444H85.6853L85.3479 12.2566L85.2994 12.344ZM84.9634 12.096L84.8958 12.1697L84.8975 12.1712L84.9634 12.096ZM84.6274 11.656L84.539 11.7028L84.5396 11.7039L84.6274 11.656ZM84.6914 10.216L84.6067 10.1628L84.6058 10.1642L84.6914 10.216ZM86.9234 9.61599L87.021 9.63755L87.0404 9.5496L86.955 9.52112L86.9234 9.61599ZM86.7874 10.232L86.7631 10.329L86.8629 10.3539L86.885 10.2535L86.7874 10.232ZM85.6194 10.256L85.6615 10.3467L85.6641 10.3454L85.6194 10.256ZM85.2274 11.4L85.1379 11.4447L85.1388 11.4464L85.2274 11.4ZM86.1234 12.064L86.0959 12.1601L86.0971 12.1605L86.1234 12.064ZM86.4354 12.104L86.4412 12.2038L86.4545 12.203L86.467 12.1989L86.4354 12.104ZM86.7874 11.992L86.819 12.087L86.8233 12.0853L86.7874 11.992ZM87.0354 11.888L86.9966 11.7958L86.9948 11.7966L87.0354 11.888ZM87.4194 11.72L87.5127 11.6842L87.4749 11.5855L87.3785 11.6287L87.4194 11.72ZM87.6434 12.304L87.6808 12.3967L87.772 12.36L87.7367 12.2682L87.6434 12.304ZM85.3394 12.952L85.3528 13.0511L85.3539 13.0509L85.3394 12.952ZM83.9586 13.0521L84.0386 12.3961L83.8401 12.3719L83.7601 13.0279L83.9586 13.0521ZM83.9394 12.484C84.2757 12.484 84.5355 12.4813 84.7183 12.4759L84.7125 12.276C84.5327 12.2813 84.2751 12.284 83.9394 12.284V12.484ZM84.7183 12.4759C84.9051 12.4706 85.0425 12.4654 85.1296 12.46L85.1171 12.2602C85.0336 12.2654 84.8991 12.2707 84.7125 12.276L84.7183 12.4759ZM85.1358 12.4592C85.2216 12.4485 85.2745 12.444 85.2994 12.444V12.244C85.2603 12.244 85.1958 12.2502 85.111 12.2608L85.1358 12.4592ZM85.3479 12.2566C85.2605 12.208 85.1545 12.1303 85.0292 12.0207L84.8975 12.1712C85.0283 12.2857 85.1462 12.3733 85.2508 12.4314L85.3479 12.2566ZM85.0309 12.0223C84.9122 11.9134 84.8067 11.7759 84.7152 11.6081L84.5396 11.7039C84.6401 11.8881 84.7585 12.0439 84.8958 12.1697L85.0309 12.0223ZM84.7158 11.6092C84.6287 11.4448 84.5834 11.2482 84.5834 11.016H84.3834C84.3834 11.2745 84.434 11.5045 84.539 11.7028L84.7158 11.6092ZM84.5834 11.016C84.5834 10.7277 84.6489 10.4794 84.7769 10.2677L84.6058 10.1642C84.4565 10.4112 84.3834 10.6962 84.3834 11.016H84.5834ZM84.7761 10.2692C84.9104 10.0552 85.0917 9.88863 85.3216 9.76865L85.2299 9.59093C84.9692 9.72695 84.7603 9.91811 84.6067 10.1628L84.7761 10.2692ZM85.3216 9.76865C85.5563 9.64877 85.825 9.58799 86.1314 9.58799V9.38799C85.7977 9.38799 85.4965 9.45481 85.2299 9.59093L85.3216 9.76865ZM86.1314 9.58799C86.2483 9.58799 86.3738 9.59816 86.5082 9.61883L86.5386 9.42115C86.3956 9.39915 86.2598 9.38799 86.1314 9.38799V9.58799ZM86.5082 9.61883C86.6415 9.63934 86.7693 9.67004 86.8918 9.71086L86.955 9.52112C86.8214 9.4766 86.6826 9.44331 86.5386 9.42115L86.5082 9.61883ZM86.8257 9.59443L86.6897 10.2104L86.885 10.2535L87.021 9.63755L86.8257 9.59443ZM86.8116 10.135C86.7012 10.1074 86.5856 10.0854 86.4649 10.0689L86.4379 10.2671C86.5519 10.2826 86.6603 10.3033 86.7631 10.329L86.8116 10.135ZM86.4649 10.0689C86.3441 10.0524 86.2328 10.044 86.1314 10.044V10.244C86.222 10.244 86.324 10.2515 86.4379 10.2671L86.4649 10.0689ZM86.1314 10.044C85.9262 10.044 85.7398 10.084 85.5747 10.1665L85.6641 10.3454C85.7976 10.2787 85.9526 10.244 86.1314 10.244V10.044ZM85.5773 10.1653C85.4125 10.2418 85.2804 10.3521 85.1842 10.4965L85.3506 10.6075C85.425 10.4958 85.5276 10.4089 85.6615 10.3467L85.5773 10.1653ZM85.1842 10.4965C85.086 10.6437 85.0394 10.8185 85.0394 11.016H85.2394C85.2394 10.8508 85.278 10.7163 85.3506 10.6075L85.1842 10.4965ZM85.0394 11.016C85.0394 11.1693 85.0719 11.3127 85.1379 11.4447L85.3168 11.3553C85.2655 11.2526 85.2394 11.14 85.2394 11.016H85.0394ZM85.1388 11.4464C85.2028 11.5686 85.287 11.6788 85.3907 11.7767L85.528 11.6313C85.4397 11.5479 85.3693 11.4553 85.316 11.3536L85.1388 11.4464ZM85.3907 11.7767C85.4938 11.874 85.6085 11.9544 85.7347 12.0174L85.8241 11.8385C85.7156 11.7843 85.617 11.7153 85.528 11.6313L85.3907 11.7767ZM85.7347 12.0174C85.8568 12.0785 85.9773 12.1263 86.0959 12.1601L86.1508 11.9678C86.0455 11.9377 85.9366 11.8948 85.8241 11.8385L85.7347 12.0174ZM86.0971 12.1605C86.2216 12.1944 86.3368 12.21 86.4412 12.2038L86.4295 12.0042C86.3526 12.0087 86.2599 11.9976 86.1497 11.9675L86.0971 12.1605ZM86.467 12.1989C86.5302 12.1778 86.5879 12.1594 86.6401 12.1438L86.5826 11.9522C86.5282 11.9685 86.4685 11.9875 86.4038 12.0091L86.467 12.1989ZM86.6401 12.1438C86.6946 12.1274 86.7542 12.1085 86.819 12.087L86.7558 11.8971C86.6925 11.9182 86.6348 11.9365 86.5826 11.9522L86.6401 12.1438ZM86.8233 12.0853C86.8947 12.0579 86.979 12.0225 87.076 11.9794L86.9948 11.7966C86.8997 11.8388 86.8187 11.8728 86.7515 11.8987L86.8233 12.0853ZM87.0742 11.9801C87.1765 11.9371 87.3052 11.8807 87.4603 11.8112L87.3785 11.6287C87.2242 11.6979 87.0969 11.7535 86.9966 11.7958L87.0742 11.9801ZM87.326 11.7558L87.55 12.3398L87.7367 12.2682L87.5127 11.6842L87.326 11.7558ZM87.606 12.2112C87.2515 12.3541 86.8891 12.4811 86.5186 12.5922L86.5761 12.7838C86.9523 12.6709 87.3206 12.5419 87.6808 12.3967L87.606 12.2112ZM86.5186 12.5922C86.156 12.7026 85.758 12.7897 85.3249 12.853L85.3539 13.0509C85.7954 12.9863 86.2027 12.8974 86.5761 12.7838L86.5186 12.5922ZM85.3259 12.8529C84.8994 12.9108 84.4107 12.94 83.8594 12.94V13.14C84.4174 13.14 84.9154 13.1105 85.3528 13.0511L85.3259 12.8529ZM90.2173 12.6L90.1188 12.5824L90.1184 12.5853L90.2173 12.6ZM90.3293 12.128L90.2338 12.0982L90.2333 12.1001L90.3293 12.128ZM90.5213 11.592L90.5576 11.4988L90.4652 11.4629L90.4285 11.5548L90.5213 11.592ZM91.0973 11.816L91.1915 11.8496L91.2242 11.758L91.1336 11.7228L91.0973 11.816ZM90.9533 12.24L90.858 12.2095L90.857 12.213L90.9533 12.24ZM90.8653 12.616L90.7668 12.5981L90.7662 12.6025L90.8653 12.616ZM91.6173 14.056L91.6552 13.9634L91.6541 13.963L91.6173 14.056ZM93.5933 13.92L93.5407 13.8349L93.5396 13.8356L93.5933 13.92ZM94.1853 7.28799V7.18799H94.0817L94.0854 7.29156L94.1853 7.28799ZM94.8493 7.28799L94.9493 7.28483L94.9462 7.18799H94.8493V7.28799ZM95.1053 11.984L95.0152 12.0275L95.0172 12.0312L95.1053 11.984ZM96.1053 12.48L96.025 12.5403L96.0313 12.5473L96.1053 12.48ZM96.0733 12.936L96.1414 13.0093L96.144 13.0067L96.0733 12.936ZM95.3613 12.976L95.3234 13.0686L95.3271 13.07L95.3613 12.976ZM95.0733 12.8L95.0026 12.8707L95.0053 12.8733L95.0733 12.8ZM94.8973 12.552L94.8059 12.5926L94.8068 12.5946L94.8973 12.552ZM94.8013 12.264L94.872 12.1933L94.6292 11.9505L94.7037 12.2857L94.8013 12.264ZM95.0253 12.488L95.125 12.4955L95.1285 12.4497L95.096 12.4173L95.0253 12.488ZM94.8413 13.328L94.7474 13.2937L94.7466 13.2958L94.8413 13.328ZM91.5213 14.728L91.5524 14.6329L91.5511 14.6325L91.5213 14.728ZM90.8333 14.368L90.7703 14.4457L90.7713 14.4465L90.8333 14.368ZM90.2853 13.008C90.2853 12.8855 90.2955 12.7544 90.3162 12.6146L90.1184 12.5853C90.0964 12.7335 90.0853 12.8745 90.0853 13.008H90.2853ZM90.3158 12.6176C90.3417 12.4721 90.3782 12.3183 90.4253 12.1559L90.2333 12.1001C90.1844 12.2684 90.1461 12.4292 90.1188 12.5824L90.3158 12.6176ZM90.4248 12.1578C90.4772 11.9899 90.5403 11.8137 90.6142 11.6291L90.4285 11.5548C90.353 11.7436 90.288 11.9247 90.2338 12.0982L90.4248 12.1578ZM90.4851 11.6852L91.0611 11.9092L91.1336 11.7228L90.5576 11.4988L90.4851 11.6852ZM91.0031 11.7824C90.9495 11.9326 90.901 12.075 90.858 12.2095L91.0486 12.2705C91.0908 12.1383 91.1385 11.998 91.1915 11.8496L91.0031 11.7824ZM90.857 12.213C90.819 12.3489 90.7888 12.4772 90.7668 12.5981L90.9637 12.6339C90.9844 12.52 91.013 12.3978 91.0496 12.2669L90.857 12.213ZM90.7662 12.6025C90.7497 12.7238 90.7413 12.8403 90.7413 12.952H90.9413C90.9413 12.8503 90.9489 12.7428 90.9644 12.6295L90.7662 12.6025ZM90.7413 12.952C90.7413 13.2425 90.8186 13.4943 90.9781 13.7011L91.1365 13.5789C91.008 13.4124 90.9413 13.2054 90.9413 12.952H90.7413ZM90.9781 13.7011C91.1337 13.9027 91.3353 14.052 91.5805 14.149L91.6541 13.963C91.4407 13.8786 91.269 13.7506 91.1365 13.5789L90.9781 13.7011ZM91.5794 14.1485C91.8268 14.2497 92.0903 14.3 92.3693 14.3V14.1C92.1149 14.1 91.8772 14.0543 91.6552 13.9634L91.5794 14.1485ZM92.3693 14.3C92.9021 14.3 93.3315 14.2051 93.647 14.0044L93.5396 13.8356C93.2685 14.0082 92.8819 14.1 92.3693 14.1V14.3ZM93.6459 14.005C93.9566 13.813 94.1769 13.5536 94.3026 13.228L94.1162 13.1554C94.0072 13.4378 93.8167 13.6643 93.5407 13.8349L93.6459 14.005ZM94.3026 13.228C94.4256 12.9149 94.4778 12.5732 94.4612 12.2035L94.2614 12.2116C94.2769 12.5565 94.2279 12.8712 94.1162 13.1554L94.3026 13.228ZM94.4612 12.2035L94.2852 7.28441L94.0854 7.29156L94.2614 12.2116L94.4612 12.2035ZM94.1853 7.38799H94.8493V7.18799H94.1853V7.38799ZM94.7494 7.29114L94.8774 11.3471L95.0773 11.3408L94.9493 7.28483L94.7494 7.29114ZM94.8774 11.3471C94.8883 11.6257 94.932 11.8553 95.0152 12.0275L95.1954 11.9405C95.1291 11.8033 95.0877 11.6062 95.0773 11.3408L94.8774 11.3471ZM95.0172 12.0312C95.1059 12.1969 95.228 12.3184 95.385 12.3875L95.4656 12.2045C95.3559 12.1562 95.2647 12.0697 95.1935 11.9368L95.0172 12.0312ZM95.385 12.3875C95.5323 12.4523 95.6928 12.484 95.8653 12.484V12.284C95.7178 12.284 95.585 12.257 95.4656 12.2045L95.385 12.3875ZM95.8653 12.484C95.9592 12.484 96.0027 12.5105 96.025 12.5403L96.1853 12.42C96.1116 12.3217 95.9954 12.284 95.8653 12.284V12.484ZM96.0313 12.5473C96.0666 12.586 96.0853 12.6335 96.0853 12.696H96.2853C96.2853 12.5878 96.2507 12.4913 96.1793 12.4127L96.0313 12.5473ZM96.0853 12.696C96.0853 12.7488 96.0632 12.8046 96.0026 12.8653L96.144 13.0067C96.2327 12.918 96.2853 12.8138 96.2853 12.696H96.0853ZM96.0053 12.8627C95.9519 12.9123 95.8815 12.94 95.7853 12.94V13.14C95.9238 13.14 96.0454 13.0984 96.1414 13.0093L96.0053 12.8627ZM95.7853 12.94C95.6281 12.94 95.499 12.9196 95.3955 12.882L95.3271 13.07C95.4583 13.1177 95.6119 13.14 95.7853 13.14V12.94ZM95.3992 12.8834C95.2904 12.8389 95.2053 12.7861 95.1414 12.7267L95.0053 12.8733C95.0906 12.9525 95.1976 13.0171 95.3234 13.0686L95.3992 12.8834ZM95.144 12.7293C95.0771 12.6623 95.0253 12.5891 94.9878 12.5094L94.8068 12.5946C94.8547 12.6962 94.9202 12.7884 95.0026 12.8707L95.144 12.7293ZM94.9887 12.5114C94.9485 12.421 94.9187 12.3314 94.8989 12.2423L94.7037 12.2857C94.7266 12.3886 94.7607 12.4909 94.8059 12.5926L94.9887 12.5114ZM94.7306 12.3347L94.9546 12.5587L95.096 12.4173L94.872 12.1933L94.7306 12.3347ZM94.9256 12.4805C94.905 12.7536 94.8457 13.0246 94.7474 13.2937L94.9352 13.3623C95.0396 13.0767 95.103 12.7877 95.125 12.4955L94.9256 12.4805ZM94.7466 13.2958C94.655 13.5656 94.5125 13.8101 94.3184 14.0298L94.4682 14.1622C94.6795 13.9232 94.8356 13.6557 94.936 13.3601L94.7466 13.2958ZM94.3184 14.0298C94.1278 14.2454 93.8696 14.4213 93.5397 14.5553L93.615 14.7406C93.9677 14.5973 94.2535 14.4052 94.4682 14.1622L94.3184 14.0298ZM93.5397 14.5553C93.2193 14.6875 92.8167 14.756 92.3293 14.756V14.956C92.8339 14.956 93.2633 14.8858 93.615 14.7406L93.5397 14.5553ZM92.3293 14.756C92.0624 14.756 91.8036 14.7149 91.5524 14.6329L91.4903 14.823C91.7617 14.9117 92.0415 14.956 92.3293 14.956V14.756ZM91.5511 14.6325C91.3063 14.556 91.088 14.4416 90.8953 14.2895L90.7713 14.4465C90.984 14.6143 91.2243 14.7399 91.4915 14.8234L91.5511 14.6325ZM90.8963 14.2903C90.7099 14.1392 90.5614 13.9555 90.4503 13.7384L90.2723 13.8295C90.3959 14.0711 90.562 14.2768 90.7703 14.4457L90.8963 14.2903ZM90.4503 13.7384C90.3416 13.5309 90.2853 13.2878 90.2853 13.008H90.0853C90.0853 13.3149 90.1464 13.5891 90.2723 13.8295L90.4503 13.7384ZM102.853 13L102.838 13.0989L102.841 13.0992L102.853 13ZM101.669 12.528L101.624 12.4385L101.493 12.5044L101.603 12.6026L101.669 12.528ZM102.325 12.2L102.362 12.1071L102.321 12.0905L102.28 12.1105L102.325 12.2ZM102.901 12.352L102.888 12.4511L102.891 12.4514L102.901 12.352ZM103.701 12.48L103.621 12.5403L103.627 12.5473L103.701 12.48ZM103.669 12.936L103.737 13.0093L103.74 13.0067L103.669 12.936ZM98.4771 13.088L98.4887 12.9886L98.4872 12.9885L98.4771 13.088ZM97.0531 12.288L97.0202 12.1935L96.9339 12.2236L96.956 12.3122L97.0531 12.288ZM97.2371 12.224L97.3258 12.2702L97.4421 12.0468L97.2042 12.1295L97.2371 12.224ZM96.8051 12.784L96.8637 12.865L96.8655 12.8637L96.8051 12.784ZM96.3171 13L96.333 13.0987L96.3355 13.0983L96.3171 13ZM95.7891 13.04L95.6898 13.0279L95.6761 13.14H95.7891V13.04ZM95.8691 12.384V12.284H95.7805L95.7698 12.3719L95.8691 12.384ZM96.3251 12.304L96.2852 12.2123L96.2837 12.2129L96.3251 12.304ZM96.6211 12.04L96.5373 11.9853L96.5356 11.988L96.6211 12.04ZM97.0211 10.8L97.0463 10.7032L96.9469 10.6773L96.9237 10.7774L97.0211 10.8ZM97.6051 10.952L97.7018 10.9772L97.7271 10.8804L97.6303 10.8552L97.6051 10.952ZM97.4531 11.6L97.3546 11.5815L97.3539 11.5868L97.4531 11.6ZM97.5251 12.12L97.4411 12.1743L97.4427 12.1766L97.5251 12.12ZM97.8611 12.336L97.8276 12.4303L97.8304 12.4312L97.8611 12.336ZM98.5731 12.456L98.5645 12.5556L98.5663 12.5558L98.5731 12.456ZM101.445 12.232L101.487 12.3229L101.488 12.3224L101.445 12.232ZM101.949 11.12L101.86 11.1647L101.861 11.1664L101.949 11.12ZM98.6771 12.56L98.6736 12.6599L98.7283 12.6618L98.7594 12.6168L98.6771 12.56ZM97.9811 12.536L97.8959 12.4836L97.8058 12.63L97.9776 12.6359L97.9811 12.536ZM100.277 10.28L100.32 10.3703L100.321 10.3697L100.277 10.28ZM101.989 10.232L101.938 10.3182L101.941 10.3196L101.989 10.232ZM102.477 10.712L102.39 10.7604L102.391 10.7621L102.477 10.712ZM103.381 12.94C103.248 12.94 103.077 12.9272 102.866 12.9008L102.841 13.0992C103.056 13.1261 103.237 13.14 103.381 13.14V12.94ZM102.868 12.9011C102.667 12.8701 102.459 12.8183 102.245 12.7454L102.18 12.9344C102.404 13.0108 102.624 13.0659 102.838 13.0989L102.868 12.9011ZM102.245 12.7454C102.043 12.6745 101.874 12.5769 101.736 12.4534L101.603 12.6026C101.763 12.7457 101.956 12.8559 102.18 12.9344L102.245 12.7454ZM101.714 12.6174L102.37 12.2894L102.28 12.1105L101.624 12.4385L101.714 12.6174ZM102.288 12.2928C102.482 12.3705 102.682 12.4233 102.888 12.4511L102.915 12.2529C102.725 12.2273 102.541 12.1788 102.362 12.1071L102.288 12.2928ZM102.891 12.4514C103.096 12.4731 103.286 12.484 103.461 12.484V12.284C103.295 12.284 103.111 12.2736 102.912 12.2525L102.891 12.4514ZM103.461 12.484C103.555 12.484 103.598 12.5105 103.621 12.5403L103.781 12.42C103.707 12.3217 103.591 12.284 103.461 12.284V12.484ZM103.627 12.5473C103.662 12.586 103.681 12.6335 103.681 12.696H103.881C103.881 12.5878 103.847 12.4913 103.775 12.4127L103.627 12.5473ZM103.681 12.696C103.681 12.7488 103.659 12.8046 103.598 12.8653L103.74 13.0067C103.829 12.918 103.881 12.8138 103.881 12.696H103.681ZM103.601 12.8627C103.548 12.9123 103.477 12.94 103.381 12.94V13.14C103.52 13.14 103.641 13.0984 103.737 13.0093L103.601 12.8627ZM99.6611 13.044C99.194 13.044 98.8035 13.0254 98.4887 12.9886L98.4655 13.1873C98.7906 13.2252 99.1894 13.244 99.6611 13.244V13.044ZM98.4872 12.9885C98.1768 12.9569 97.9293 12.9074 97.7422 12.8416L97.6759 13.0303C97.8834 13.1032 98.148 13.155 98.4669 13.1875L98.4872 12.9885ZM97.7422 12.8416C97.5539 12.7755 97.4204 12.6945 97.3336 12.6031L97.1886 12.7409C97.3044 12.8628 97.4695 12.9578 97.6759 13.0303L97.7422 12.8416ZM97.3336 12.6031C97.2447 12.5095 97.1834 12.3971 97.1501 12.2637L96.956 12.3122C96.9974 12.4775 97.0748 12.6211 97.1886 12.7409L97.3336 12.6031ZM97.0859 12.3824L97.2699 12.3184L97.2042 12.1295L97.0202 12.1935L97.0859 12.3824ZM97.1484 12.1778C97.0188 12.4265 96.8832 12.5992 96.7446 12.7043L96.8655 12.8637C97.0363 12.7341 97.1886 12.5334 97.3258 12.2702L97.1484 12.1778ZM96.7464 12.703C96.6025 12.8072 96.4534 12.8727 96.2986 12.9017L96.3355 13.0983C96.5221 13.0633 96.6983 12.9848 96.8637 12.865L96.7464 12.703ZM96.3011 12.9013C96.1416 12.927 95.971 12.94 95.7891 12.94V13.14C95.9805 13.14 96.1618 13.1264 96.333 13.0987L96.3011 12.9013ZM95.8883 13.0521L95.9683 12.3961L95.7698 12.3719L95.6898 13.0279L95.8883 13.0521ZM95.8691 12.484C96.0641 12.484 96.2316 12.4563 96.3664 12.395L96.2837 12.2129C96.1838 12.2583 96.0474 12.284 95.8691 12.284V12.484ZM96.3649 12.3957C96.5079 12.3335 96.6219 12.2309 96.7065 12.092L96.5356 11.988C96.4709 12.0944 96.3875 12.1678 96.2852 12.2123L96.3649 12.3957ZM96.7048 12.0946C96.792 11.9609 96.8648 11.7882 96.9251 11.5798L96.733 11.5242C96.676 11.7211 96.6101 11.8737 96.5373 11.9853L96.7048 12.0946ZM96.9251 11.5798C96.9845 11.3748 97.0489 11.1223 97.1185 10.8226L96.9237 10.7774C96.8546 11.075 96.791 11.3238 96.733 11.5242L96.9251 11.5798ZM96.9959 10.8968L97.5799 11.0488L97.6303 10.8552L97.0463 10.7032L96.9959 10.8968ZM97.5083 10.9267C97.4761 11.05 97.4466 11.1681 97.4198 11.2808L97.6143 11.3271C97.6408 11.2159 97.67 11.0993 97.7018 10.9772L97.5083 10.9267ZM97.4198 11.2808C97.3929 11.3939 97.371 11.4942 97.3546 11.5815L97.5513 11.6184C97.567 11.5351 97.5879 11.438 97.6143 11.3271L97.4198 11.2808ZM97.3539 11.5868C97.343 11.6686 97.3371 11.7376 97.3371 11.792H97.5371C97.5371 11.7504 97.5418 11.6913 97.5522 11.6132L97.3539 11.5868ZM97.3371 11.792C97.3371 11.9356 97.3702 12.0647 97.4411 12.1743L97.609 12.0657C97.5626 11.994 97.5371 11.9043 97.5371 11.792H97.3371ZM97.4427 12.1766C97.519 12.2877 97.6548 12.369 97.8276 12.4303L97.8945 12.2417C97.7366 12.1857 97.6484 12.1229 97.6075 12.0633L97.4427 12.1766ZM97.8304 12.4312C98.0064 12.4879 98.2525 12.5287 98.5645 12.5556L98.5817 12.3564C98.2749 12.3299 98.0464 12.2907 97.8918 12.2408L97.8304 12.4312ZM98.5663 12.5558C98.8841 12.5773 99.2973 12.588 99.8051 12.588V12.388C99.2995 12.388 98.8913 12.3773 98.5798 12.3562L98.5663 12.5558ZM99.8051 12.588C100.161 12.588 100.481 12.5664 100.764 12.5228L100.734 12.3251C100.463 12.3669 100.153 12.388 99.8051 12.388V12.588ZM100.764 12.5228C101.048 12.4792 101.289 12.4132 101.487 12.3229L101.404 12.141C101.228 12.2214 101.005 12.2834 100.734 12.3251L100.764 12.5228ZM101.488 12.3224C101.69 12.2271 101.85 12.1092 101.964 11.9661L101.807 11.8419C101.717 11.9548 101.585 12.0556 101.402 12.1416L101.488 12.3224ZM101.964 11.9661C102.079 11.8201 102.137 11.6515 102.137 11.464H101.937C101.937 11.6071 101.894 11.7318 101.807 11.8419L101.964 11.9661ZM102.137 11.464C102.137 11.3293 102.103 11.1988 102.038 11.0736L101.861 11.1664C101.912 11.2652 101.937 11.3641 101.937 11.464H102.137ZM102.039 11.0753C101.971 10.9403 101.867 10.8288 101.732 10.7402L101.622 10.9077C101.732 10.9792 101.81 11.065 101.86 11.1647L102.039 11.0753ZM101.732 10.7402C101.588 10.6463 101.404 10.604 101.189 10.604V10.804C101.38 10.804 101.521 10.8417 101.622 10.9077L101.732 10.7402ZM101.189 10.604C100.915 10.604 100.643 10.6755 100.375 10.8153L100.467 10.9927C100.711 10.8658 100.951 10.804 101.189 10.804V10.604ZM100.375 10.8153C100.117 10.9526 99.8696 11.1256 99.6348 11.3331L99.7672 11.483C99.9911 11.2852 100.224 11.1221 100.467 10.9927L100.375 10.8153ZM99.6348 11.3331C99.4074 11.5333 99.2042 11.7393 99.0247 11.9514L99.1774 12.0806C99.35 11.8766 99.5465 11.6774 99.7672 11.483L99.6348 11.3331ZM99.0247 11.9514C98.8475 12.1609 98.7039 12.3449 98.5947 12.5032L98.7594 12.6168C98.8636 12.4657 99.0027 12.2871 99.1774 12.0806L99.0247 11.9514ZM98.6805 12.46L97.9845 12.436L97.9776 12.6359L98.6736 12.6599L98.6805 12.46ZM98.0662 12.5884C98.2343 12.3153 98.4343 12.0362 98.6666 11.7512L98.5117 11.6247C98.2747 11.9156 98.0692 12.202 97.8959 12.4836L98.0662 12.5884ZM98.6666 11.7512C98.903 11.4622 99.1603 11.1971 99.4386 10.9555L99.3075 10.8045C99.0205 11.0536 98.7552 11.327 98.5117 11.6247L98.6666 11.7512ZM99.4386 10.9555C99.7204 10.7103 100.014 10.5154 100.32 10.3703L100.234 10.1896C99.9105 10.3432 99.6017 10.5484 99.3075 10.8045L99.4386 10.9555ZM100.321 10.3697C100.623 10.2213 100.928 10.148 101.237 10.148V9.94799C100.895 9.94799 100.56 10.0294 100.233 10.1902L100.321 10.3697ZM101.237 10.148C101.516 10.148 101.749 10.2063 101.938 10.3182L102.04 10.1458C101.814 10.0123 101.544 9.94799 101.237 9.94799V10.148ZM101.941 10.3196C102.139 10.4283 102.287 10.5751 102.39 10.7604L102.565 10.6636C102.443 10.4435 102.266 10.2703 102.037 10.1444L101.941 10.3196ZM102.391 10.7621C102.498 10.9481 102.553 11.1599 102.553 11.4H102.753C102.753 11.1281 102.691 10.8812 102.564 10.6619L102.391 10.7621ZM102.553 11.4C102.553 11.6934 102.467 11.9642 102.291 12.2146L102.455 12.3293C102.653 12.0465 102.753 11.7359 102.753 11.4H102.553ZM102.291 12.2146C102.126 12.4528 101.837 12.654 101.411 12.8101L101.479 12.9979C101.928 12.8339 102.258 12.6138 102.455 12.3293L102.291 12.2146ZM101.411 12.8101C100.989 12.9643 100.408 13.044 99.6611 13.044V13.244C100.419 13.244 101.026 13.1636 101.479 12.9979L101.411 12.8101ZM103.383 13.04L103.283 13.0291L103.271 13.14H103.383V13.04ZM103.455 12.384V12.284H103.365L103.355 12.3731L103.455 12.384ZM106.471 11.448L106.528 11.5299L106.632 11.4571L106.537 11.3731L106.471 11.448ZM105.391 10.92L105.367 11.017L105.369 11.0177L105.391 10.92ZM104.247 10.88L104.261 10.9792L104.268 10.9778L104.247 10.88ZM103.991 10.928L103.893 10.9486L103.914 11.0475L104.013 11.0256L103.991 10.928ZM103.863 10.32L103.834 10.2241L103.746 10.2503L103.765 10.3406L103.863 10.32ZM104.295 10.224L104.31 10.323L104.313 10.3223L104.295 10.224ZM105.463 10.288L105.433 10.3835L105.435 10.3841L105.463 10.288ZM106.071 10.528L106.024 10.6164L106.025 10.6169L106.071 10.528ZM106.591 10.816L106.539 10.9017L106.541 10.9025L106.591 10.816ZM107.071 11.064L107.03 11.1553L107.033 11.1564L107.071 11.064ZM107.719 11.16L107.818 11.1503L107.81 11.06H107.719V11.16ZM107.775 11.736V11.836H107.885L107.874 11.7263L107.775 11.736ZM106.575 12.08L106.622 12.1684L106.623 12.1679L106.575 12.08ZM105.999 12.392L106.045 12.4805L106.047 12.4795L105.999 12.392ZM105.327 12.704L105.363 12.7971L105.365 12.7964L105.327 12.704ZM103.482 13.0509L103.554 12.3949L103.355 12.3731L103.283 13.0291L103.482 13.0509ZM103.455 12.484C103.737 12.484 104.015 12.4623 104.287 12.4187L104.255 12.2212C103.994 12.263 103.727 12.284 103.455 12.284V12.484ZM104.287 12.4187C104.558 12.3753 104.824 12.3129 105.085 12.2314L105.025 12.0405C104.774 12.1191 104.517 12.1793 104.255 12.2212L104.287 12.4187ZM105.085 12.2314C105.345 12.1501 105.595 12.0523 105.834 11.9382L105.748 11.7577C105.518 11.8676 105.277 11.9619 105.025 12.0405L105.085 12.2314ZM105.834 11.9382C106.079 11.8187 106.311 11.6823 106.528 11.5299L106.414 11.3661C106.205 11.5123 105.983 11.6426 105.748 11.7577L105.834 11.9382ZM106.537 11.3731C106.391 11.2441 106.224 11.1327 106.036 11.0385L105.946 11.2174C106.12 11.3046 106.273 11.4065 106.405 11.5229L106.537 11.3731ZM106.036 11.0385C105.846 10.9438 105.638 10.8719 105.412 10.8223L105.369 11.0177C105.581 11.0641 105.773 11.1308 105.946 11.2174L106.036 11.0385ZM105.415 10.823C105.193 10.7675 104.958 10.74 104.711 10.74V10.94C104.943 10.94 105.162 10.9659 105.367 11.017L105.415 10.823ZM104.711 10.74C104.623 10.74 104.541 10.7427 104.464 10.7482L104.478 10.9477C104.55 10.9426 104.628 10.94 104.711 10.94V10.74ZM104.464 10.7482C104.384 10.7539 104.305 10.7652 104.226 10.7822L104.268 10.9778C104.338 10.9627 104.408 10.9527 104.478 10.9477L104.464 10.7482ZM104.233 10.781C104.155 10.7921 104.067 10.8086 103.969 10.8304L104.013 11.0256C104.107 11.0047 104.189 10.9894 104.261 10.9792L104.233 10.781ZM104.089 10.9074L103.961 10.2994L103.765 10.3406L103.893 10.9486L104.089 10.9074ZM103.891 10.4159C104.031 10.3745 104.17 10.3436 104.31 10.323L104.28 10.1251C104.131 10.1471 103.983 10.1801 103.834 10.2241L103.891 10.4159ZM104.313 10.3223C104.452 10.2967 104.584 10.284 104.711 10.284V10.084C104.571 10.084 104.426 10.098 104.277 10.1257L104.313 10.3223ZM104.711 10.284C104.98 10.284 105.22 10.3176 105.433 10.3835L105.492 10.1925C105.257 10.1197 104.996 10.084 104.711 10.084V10.284ZM105.435 10.3841C105.654 10.4465 105.85 10.524 106.024 10.6164L106.118 10.4396C105.929 10.3399 105.72 10.2575 105.49 10.1918L105.435 10.3841ZM106.025 10.6169C106.21 10.712 106.381 10.807 106.539 10.9017L106.642 10.7302C106.48 10.633 106.305 10.5359 106.117 10.4391L106.025 10.6169ZM106.541 10.9025C106.709 11 106.872 11.0843 107.03 11.1553L107.112 10.9727C106.961 10.905 106.804 10.824 106.641 10.7295L106.541 10.9025ZM107.033 11.1564C107.199 11.2253 107.372 11.26 107.551 11.26V11.06C107.399 11.06 107.252 11.0306 107.109 10.9716L107.033 11.1564ZM107.551 11.26H107.719V11.06H107.551V11.26ZM107.619 11.1697L107.675 11.7457L107.874 11.7263L107.818 11.1503L107.619 11.1697ZM107.775 11.636C107.536 11.636 107.315 11.6693 107.111 11.7371L107.174 11.9269C107.355 11.8667 107.555 11.836 107.775 11.836V11.636ZM107.111 11.7371C106.913 11.8031 106.719 11.8881 106.527 11.9921L106.623 12.1679C106.804 12.0692 106.988 11.9889 107.174 11.9269L107.111 11.7371ZM106.528 11.9916C106.346 12.0879 106.154 12.1922 105.95 12.3045L106.047 12.4795C106.249 12.3678 106.441 12.2641 106.622 12.1684L106.528 11.9916ZM105.952 12.3035C105.753 12.4085 105.532 12.5112 105.289 12.6116L105.365 12.7964C105.613 12.6941 105.84 12.5888 106.045 12.4805L105.952 12.3035ZM105.29 12.6109C105.052 12.7043 104.775 12.7828 104.459 12.8459L104.498 13.042C104.823 12.9772 105.111 12.8957 105.363 12.7971L105.29 12.6109ZM104.459 12.8459C104.153 12.9083 103.794 12.94 103.383 12.94V13.14C103.804 13.14 104.176 13.1077 104.498 13.042L104.459 12.8459ZM108.83 13L108.73 13.0028L108.733 13.1H108.83V13ZM108.67 7.28799V7.18799H108.567L108.57 7.29079L108.67 7.28799ZM109.318 7.28799L109.418 7.28519L109.415 7.18799H109.318V7.28799ZM109.478 13V13.1H109.581L109.578 12.9972L109.478 13ZM108.93 12.9972L108.77 7.28519L108.57 7.29079L108.73 13.0028L108.93 12.9972ZM108.67 7.38799H109.318V7.18799H108.67V7.38799ZM109.218 7.29079L109.378 13.0028L109.578 12.9972L109.418 7.28519L109.218 7.29079ZM109.478 12.9H108.83V13.1H109.478V12.9Z" fill="white"/>
</g>
<path d="M10.4068 7.34696C10.1244 7.68135 9.98185 8.10943 10.0082 8.54393V27.4561C9.98185 27.8906 10.1244 28.3187 10.4068 28.6531L10.4675 28.7129L21.204 18.1283V17.8803L10.4675 7.28711L10.4068 7.34696Z" fill="url(#paint0_linear_2794_2162)"/>
<path d="M24.7574 21.66L21.2046 18.1289V17.8809L24.7574 14.3413L24.8354 14.3841L29.0902 16.7695C30.3033 17.4449 30.3033 18.5564 29.0902 19.2404L24.8528 21.6172L24.7574 21.66Z" fill="url(#paint1_linear_2794_2162)"/>
<path d="M24.8612 21.608L21.2044 18L10.4072 28.6531C10.9174 29.0955 11.6745 29.1171 12.2096 28.7044L24.8699 21.608" fill="url(#paint2_linear_2794_2162)"/>
<path d="M24.8612 14.392L12.201 7.29563C11.6658 6.88291 10.9087 6.90446 10.3986 7.34693L21.2044 18L24.8612 14.392Z" fill="url(#paint3_linear_2794_2162)"/>
<path opacity="0.2" d="M24.7573 21.5312L12.201 28.5848C11.6872 28.9639 10.9817 28.9639 10.4679 28.5848L10.4072 28.6447L10.4679 28.7045C10.9807 29.0864 11.6881 29.0864 12.201 28.7045L24.8612 21.6082L24.7573 21.5312Z" fill="black"/>
<path opacity="0.12" d="M10.4068 28.5344C10.1244 28.2 9.98185 27.7719 10.0082 27.3374V27.4656C9.98185 27.9002 10.1244 28.3282 10.4068 28.6626L10.4675 28.6028L10.4068 28.5344Z" fill="black"/>
<path opacity="0.12" d="M29.0901 19.1115L24.7573 21.5311L24.8353 21.608L29.0901 19.2312C29.5815 19.0034 29.912 18.5339 29.9566 18C29.8579 18.4829 29.5378 18.8934 29.0901 19.1115Z" fill="black"/>
<path opacity="0.25" d="M12.201 7.41546L29.0901 16.8887C29.5378 17.1067 29.8578 17.5172 29.9566 18.0001C29.9119 17.4663 29.5815 16.9967 29.0901 16.769L12.201 7.29577C10.9879 6.62033 10 7.18462 10 8.55259V8.68084C10.026 7.30432 10.9965 6.74003 12.201 7.41546Z" fill="white"/>
<defs>
<linearGradient id="paint0_linear_2794_2162" x1="16.5015" y1="-5.56239" x2="-0.65946" y2="-0.936655" gradientUnits="userSpaceOnUse">
<stop stop-color="#00A0FF"/>
<stop offset="0.01" stop-color="#00A1FF"/>
<stop offset="0.26" stop-color="#00BEFF"/>
<stop offset="0.51" stop-color="#00D2FF"/>
<stop offset="0.76" stop-color="#00DFFF"/>
<stop offset="1" stop-color="#00E3FF"/>
</linearGradient>
<linearGradient id="paint1_linear_2794_2162" x1="30.676" y1="9.27955" x2="9.71416" y2="9.27955" gradientUnits="userSpaceOnUse">
<stop stop-color="#FFE000"/>
<stop offset="0.41" stop-color="#FFBD00"/>
<stop offset="0.78" stop-color="#FFA500"/>
<stop offset="1" stop-color="#FF9C00"/>
</linearGradient>
<linearGradient id="paint2_linear_2794_2162" x1="10.09" y1="12.4662" x2="-3.44727" y2="35.5451" gradientUnits="userSpaceOnUse">
<stop stop-color="#FF3A44"/>
<stop offset="1" stop-color="#C31162"/>
</linearGradient>
<linearGradient id="paint3_linear_2794_2162" x1="1.97573" y1="4.40238" x2="8.01809" y2="14.7082" gradientUnits="userSpaceOnUse">
<stop stop-color="#32A071"/>
<stop offset="0.07" stop-color="#2DA771"/>
<stop offset="0.48" stop-color="#15CF74"/>
<stop offset="0.8" stop-color="#06E775"/>
<stop offset="1" stop-color="#00F076"/>
</linearGradient>
<clipPath id="clip0_2794_2162">
<rect width="48" height="8" fill="white" transform="translate(62 7)"/>
</clipPath>
</defs>
</svg>
