<svg width="120" height="36" viewBox="0 0 120 36" fill="none" xmlns="http://www.w3.org/2000/svg">
<rect width="120" height="36" rx="8" fill="black"/>
<rect x="0.5" y="0.5" width="119" height="35" rx="7.5" stroke="white" stroke-opacity="0.3"/>
<path d="M81.0098 16.1372V25.043C81.0098 26.3404 81.6197 26.9909 82.8395 26.9946C83.0674 26.9936 83.2948 26.9739 83.5194 26.9355C83.7271 26.9039 83.931 26.8515 84.1279 26.7791L83.9208 25.5439C83.7706 25.5873 83.6156 25.6131 83.4592 25.6208C83.361 25.6294 83.2621 25.6159 83.17 25.5814C83.0779 25.547 82.995 25.4923 82.9276 25.4217C82.8167 25.2854 82.7612 25.0567 82.7612 24.7355V16L81.0098 16.1372Z" fill="white"/>
<path d="M63.3142 24.6008C63.7034 25.3501 64.3137 25.9671 65.0656 26.3712C65.8939 26.7949 66.819 27.0037 67.7528 26.9778C68.4034 26.9771 69.0518 26.9048 69.686 26.7624C70.3247 26.6207 70.9461 26.4122 71.5395 26.1406V21.8861H67.4478V23.2325H69.8259V25.2842C69.5139 25.3946 69.1922 25.4764 68.8649 25.5285C68.5261 25.5844 68.1831 25.6124 67.8395 25.6123C67.085 25.6113 66.4602 25.4485 65.965 25.1237C65.472 24.8011 65.0916 24.3379 64.8753 23.7965C64.6359 23.1837 64.5191 22.5313 64.5312 21.8751C64.5102 21.1473 64.6635 20.4248 64.9788 19.7657C65.2531 19.2104 65.6919 18.7493 66.2378 18.4427C66.8143 18.1331 67.4637 17.9778 68.1207 17.9925C69.0515 18.0117 69.9661 18.2359 70.7967 18.6485L71.2457 17.3214C70.7651 17.0923 70.2604 16.9156 69.7406 16.7944C69.1842 16.6646 68.6142 16.6001 68.0423 16.6022C67.0997 16.5882 66.167 16.7927 65.3201 17.1992C64.5144 17.5938 63.8467 18.215 63.4023 18.9834C62.936 19.7767 62.7029 20.7415 62.7029 21.8779C62.7029 22.9246 62.9066 23.8322 63.3142 24.6008Z" fill="white"/>
<path fill-rule="evenodd" clip-rule="evenodd" d="M38.8285 24.1397H42.9566L43.9889 26.8503H45.8928L41.7577 16.7313H40.0413L36 26.8503H37.8185L38.8285 24.1397ZM42.4264 22.7673H39.3489L40.4414 19.855C40.5971 19.4085 40.7417 18.9712 40.875 18.543C41.0224 19.0279 41.1716 19.4698 41.3227 19.8687L42.4264 22.7673Z" fill="white"/>
<path fill-rule="evenodd" clip-rule="evenodd" d="M46.6593 19.3148C46.6966 19.9864 46.7153 20.6012 46.7153 21.1594L46.7209 29.9937L48.4792 29.8469V26.7397C48.9737 26.9101 49.4939 26.9978 50.018 26.9991C50.687 27.012 51.3469 26.8449 51.926 26.516C52.4896 26.1808 52.9371 25.6867 53.2102 25.0983C53.5348 24.3902 53.6921 23.6194 53.6704 22.8433C53.6704 22.0025 53.5361 21.3076 53.2676 20.7586C53.0612 20.283 52.715 19.8786 52.2733 19.5969C51.8315 19.3153 51.3141 19.1693 50.7874 19.1776C49.9042 19.1776 49.1213 19.5436 48.4387 20.2755C48.4147 19.9531 48.3717 19.6324 48.31 19.3148H46.6593ZM51.8757 22.9394C51.8757 23.848 51.6966 24.5383 51.3385 25.0104C50.9813 25.4825 50.4605 25.7186 49.776 25.7186C49.5441 25.7186 49.3129 25.6942 49.0863 25.6459C48.8747 25.6039 48.669 25.5371 48.4736 25.4469V21.4105C48.7154 21.16 48.9935 20.9459 49.299 20.7751C49.5885 20.6171 49.9147 20.5353 50.246 20.5377C50.4758 20.5311 50.7038 20.5795 50.9102 20.6787C51.1166 20.778 51.2953 20.925 51.4308 21.1072C51.7274 21.486 51.8757 22.0967 51.8757 22.9394Z" fill="white"/>
<path fill-rule="evenodd" clip-rule="evenodd" d="M54.7924 21.1594C54.7924 20.6013 54.7733 19.9864 54.7351 19.3148H56.3871C56.4491 19.6323 56.4916 19.9531 56.5144 20.2755C57.1989 19.5436 57.9818 19.1776 58.8631 19.1776C59.3901 19.1691 59.9078 19.3149 60.3498 19.5966C60.7919 19.8782 61.1383 20.2828 61.3447 20.7586C61.6114 21.3076 61.7452 22.0025 61.7462 22.8434C61.7683 23.6193 61.6114 24.3901 61.2873 25.0983C61.0137 25.6868 60.5657 26.1809 60.0018 26.516C59.4232 26.8451 58.7638 27.0122 58.0951 26.9991C57.571 26.9978 57.0509 26.9101 56.5564 26.7397V29.8469L54.7924 29.9992V21.1594ZM59.4157 25.0104C59.7738 24.5383 59.9528 23.848 59.9528 22.9394C59.9528 22.0968 59.8045 21.486 59.508 21.1072C59.3725 20.9251 59.1938 20.778 58.9873 20.6788C58.7809 20.5795 58.5529 20.5311 58.3231 20.5377C57.9919 20.5352 57.6656 20.617 57.3761 20.7751C57.0704 20.9456 56.7923 21.1597 56.5508 21.4105V25.4469C56.7457 25.5369 56.951 25.6037 57.1621 25.6459C57.3891 25.6943 57.6208 25.7186 57.8531 25.7186C58.5395 25.7186 59.0613 25.4826 59.4185 25.0104H59.4157Z" fill="white"/>
<path fill-rule="evenodd" clip-rule="evenodd" d="M77.8736 26.8502C77.8074 26.5207 77.7672 26.1867 77.7533 25.8511C77.4586 26.186 77.0992 26.4603 76.6957 26.6581C76.2403 26.8837 75.7357 26.9972 75.2255 26.9888C74.8093 26.9939 74.3972 26.9071 74.0197 26.7349C73.6603 26.5684 73.3595 26.3009 73.1552 25.9664C72.9323 25.5859 72.8223 25.1519 72.8377 24.7133C72.8246 24.3805 72.8904 24.0492 73.03 23.7455C73.1695 23.4419 73.3791 23.1742 73.642 22.9635C74.1782 22.5289 75.0726 22.3111 76.325 22.3102C76.7932 22.3098 77.2607 22.3428 77.7239 22.409V22.2622C77.7239 21.5961 77.5794 21.1267 77.2903 20.8541C77.0012 20.5814 76.5857 20.4442 76.0439 20.4423C75.6376 20.4466 75.2335 20.5005 74.8408 20.6029C74.4563 20.6962 74.0816 20.8248 73.7218 20.9872L73.442 19.73C73.8415 19.563 74.2566 19.4343 74.6814 19.3458C75.2137 19.2271 75.7582 19.1686 76.3041 19.1715C76.883 19.1561 77.459 19.2569 77.9967 19.4679C78.4699 19.673 78.8552 20.0336 79.0864 20.4876C79.3475 20.9689 79.4781 21.6171 79.4781 22.4324V25.4284C79.4781 25.7399 79.4963 26.212 79.5354 26.8461L77.8736 26.8502ZM76.8244 25.4544C77.1638 25.3009 77.4687 25.0826 77.7211 24.8122V23.4136C77.3315 23.3682 76.9398 23.3426 76.5475 23.3368C75.8219 23.3368 75.3202 23.4521 75.0423 23.6826C74.9044 23.7962 74.7949 23.9392 74.7221 24.1008C74.6494 24.2623 74.6153 24.4381 74.6226 24.6145C74.6226 24.9878 74.7233 25.2623 74.9248 25.438C75.1532 25.6291 75.4475 25.7273 75.7473 25.7125C76.1216 25.7074 76.4899 25.6192 76.8244 25.4544Z" fill="white"/>
<path d="M85.3883 25.043V16.1372L87.1383 16V24.7355C87.1383 25.0567 87.1943 25.2854 87.3062 25.4217C87.3732 25.4924 87.4558 25.5471 87.5477 25.5816C87.6396 25.6161 87.7383 25.6295 87.8363 25.6208C87.9932 25.613 88.1486 25.5872 88.2994 25.5439L88.505 26.7791C88.3082 26.8517 88.1043 26.9041 87.8965 26.9355C87.672 26.9739 87.4445 26.9936 87.2166 26.9946C85.9968 26.9909 85.3874 26.3404 85.3883 25.043Z" fill="white"/>
<path fill-rule="evenodd" clip-rule="evenodd" d="M90.7684 23.3027H95.7945V22.8471C95.8055 22.2157 95.6875 21.5885 95.4476 21.0025C95.2265 20.4655 94.8508 20.0034 94.3663 19.6726C93.8794 19.3396 93.2733 19.1731 92.5477 19.1731C91.8993 19.1603 91.2599 19.3247 90.7012 19.6479C90.1568 19.9755 89.7225 20.4527 89.452 21.0203C89.1374 21.6943 88.9842 22.43 89.0044 23.171C88.9822 23.8796 89.1258 24.5838 89.4241 25.2296C89.6932 25.7842 90.1338 26.2414 90.683 26.5362C91.2435 26.8381 91.9318 26.9891 92.7478 26.9891C93.7485 27.0045 94.7396 26.7946 95.6448 26.3756L95.2601 25.1953C94.9091 25.3411 94.5459 25.4568 94.1746 25.5411C93.8119 25.625 93.4407 25.6683 93.0681 25.6701C91.6161 25.6701 90.8495 24.881 90.7684 23.3027ZM93.6165 20.8529C93.8906 21.1535 94.0459 21.6036 94.0781 22.2048H90.8131C90.9036 21.6082 91.0971 21.159 91.3937 20.857C91.5369 20.708 91.7107 20.5905 91.9036 20.5122C92.0965 20.4339 92.3041 20.3966 92.5128 20.4028C92.7191 20.3943 92.9247 20.4302 93.1154 20.5079C93.3061 20.5857 93.4771 20.7034 93.6165 20.8529Z" fill="white"/>
<path d="M97.2101 21.2072C97.2101 20.7927 97.1915 20.1618 97.1542 19.3146H98.7978C98.8272 19.5246 98.8538 19.7743 98.8803 20.0653C98.9069 20.3563 98.9237 20.5937 98.9335 20.7749C99.11 20.4808 99.3112 20.2017 99.535 19.9404C99.7285 19.7174 99.9623 19.5313 100.225 19.3914C100.501 19.2459 100.812 19.1727 101.126 19.1787C101.362 19.1741 101.597 19.2023 101.825 19.2624L101.604 20.757C101.419 20.7034 101.227 20.6775 101.035 20.6802C100.65 20.6719 100.272 20.7802 99.9519 20.9903C99.5673 21.2756 99.2332 21.6211 98.9629 22.0128V26.8534H97.2101V21.2072Z" fill="white"/>
<path d="M102.245 29.7834C102.451 29.8487 102.663 29.8987 102.877 29.933C103.149 29.9781 103.425 30.0001 103.701 29.9988C104.227 30.0134 104.748 29.9033 105.221 29.6777C105.663 29.4437 106.039 29.1055 106.314 28.6937C106.674 28.1492 106.964 27.5628 107.176 26.9479L110 19.3145H108.229L106.785 23.6006C106.604 24.1413 106.448 24.6862 106.315 25.2351C106.202 24.6701 106.052 24.1127 105.866 23.5662L104.444 19.3199H102.557L105.389 26.9177L105.276 27.1922C104.886 28.1749 104.302 28.6662 103.525 28.6662C103.353 28.6648 103.182 28.6492 103.013 28.6195C102.832 28.5894 102.683 28.5578 102.564 28.5262L102.245 29.7834Z" fill="white"/>
<path d="M52.771 12.2259V13.1071C51.8203 13.1071 51.5536 12.9563 51.1942 12.423C50.9507 13.6288 49.9072 14.3824 48.6551 14.3824C47.171 14.3824 46 13.223 46 11.7042V10.8346H46.8696V11.5998C46.8696 12.794 47.5652 13.5476 48.6899 13.5476C49.6986 13.5476 50.4522 12.8868 50.4522 12.0984C50.4522 11.623 50.1623 11.2752 49.6754 11.2752C49.629 11.2752 49.5826 11.2752 49.5362 11.2752V10.4868H49.8725C50.5565 10.4868 51.0667 10.7998 51.4029 11.4027C51.7159 11.9824 52.0174 12.2027 52.458 12.2027H52.7826L52.771 12.2259Z" fill="white"/>
<path d="M56.087 13.1071H52.5507V12.2259H53.3507C53.6058 12.2259 53.7797 12.1447 53.8725 11.9592C53.9304 11.8433 53.9652 11.6462 53.9652 11.3679V8.10995H54.8232V11.3215C54.8232 11.7737 54.7652 12.0752 54.6377 12.2143H56.087V13.1071Z" fill="white"/>
<path d="M55.9246 13.1071V12.2259H57.0493C56.9333 11.9708 56.8754 11.7042 56.8754 11.4143C56.8754 10.8926 57.0377 10.452 57.3739 10.0926C57.7101 9.73314 58.1391 9.54763 58.6609 9.54763C59.3449 9.54763 59.9246 9.91865 60.1797 10.5447L59.4377 10.9042C59.3101 10.5099 59.0319 10.3128 58.6261 10.3128C58.3362 10.3128 58.1275 10.4288 57.9652 10.6491C57.8261 10.8462 57.7565 11.1013 57.7565 11.4027C57.7565 11.7505 57.8493 12.0172 58.0348 12.2259H60.2145V13.1071H55.9246Z" fill="white"/>
<path d="M67.7971 13.1071H62.7768V12.2259H65.571C65.571 11.2172 65.1768 10.6259 64.4 10.452C64.1565 10.394 63.9014 10.3824 63.6232 10.3824V9.59401C64.0522 9.59401 64.3188 9.59401 64.4232 9.6056C64.5275 9.6056 64.6899 9.64038 64.887 9.70995C65.9188 10.0578 66.4406 10.8926 66.4522 12.2143H67.7971V13.1071Z" fill="white"/>
<path d="M68.2029 14.7998H67.3565V13.9302H68.2029V14.7998ZM69.687 11.7042C69.687 12.6433 69.258 13.1071 68.4 13.1071H67.4841V12.2259H68.2145C68.5043 12.2259 68.6783 12.1447 68.7594 11.9708C68.7942 11.8781 68.8174 11.6926 68.8174 11.4143V9.59401H69.687V11.7042ZM69.6638 14.7998H68.8174V13.9302H69.6638V14.7998Z" fill="white"/>
<path d="M72.1449 13.1071C72.0174 13.9302 71.3101 14.394 70.2551 14.394V13.652C70.9739 13.652 71.3333 13.2926 71.3333 12.5505V9.59401H72.2029V12.2259H73.5362V13.1071H72.1449ZM72.1913 8.88676H71.3449V8.02879H72.1913V8.88676Z" fill="white"/>
<path d="M77.1884 13.1071C76.8522 13.5592 76.3884 13.7795 75.7855 13.7795C75.1826 13.7795 74.7304 13.5592 74.4058 13.1071H73.2232V12.2259H74.058C74.058 12.1447 74.058 12.052 74.058 11.9708C74.058 11.4491 74.2203 11.0317 74.5333 10.6955C74.858 10.3592 75.2754 10.1969 75.7971 10.1969C76.3188 10.1969 76.7362 10.3708 77.0493 10.7186C77.3623 11.0665 77.5246 11.4955 77.5246 12.0056V12.2259H78.3015V13.1071H77.1884ZM76.6203 11.994C76.6203 11.7273 76.5507 11.4839 76.4116 11.2868C76.2493 11.0781 76.029 10.9737 75.7507 10.9737C75.4725 10.9737 75.2754 11.0781 75.1246 11.2868C74.9971 11.4607 74.9275 11.6926 74.9275 11.9708C74.9275 12.5273 75.2638 12.9795 75.7971 12.9795C76.0638 12.9795 76.2725 12.8752 76.4116 12.6897C76.5391 12.5157 76.6087 12.2839 76.6087 12.0056L76.6203 11.994Z" fill="white"/>
<path d="M80.2261 11.7042C80.2261 12.6433 79.7971 13.1071 78.9275 13.1071H78.0116V12.2259H78.742C79.0319 12.2259 79.2058 12.1447 79.287 11.9708C79.3217 11.8781 79.3449 11.6926 79.3449 11.4143V8.12154H80.2145V11.7042H80.2261Z" fill="white"/>
<path d="M81.8725 13.1071H81.0145V8.10995H81.8725V13.1071Z" fill="white"/>
<path d="M92.4232 13.1071H91.5536C90.8 13.1071 90.2203 12.9679 89.8261 12.6781C89.4203 12.9679 88.8406 13.1071 88.1101 13.1071H86.6725C85.0377 13.1071 84.2145 12.3766 84.2145 10.9157V9.74473H85.0725V10.9157C85.0725 11.4143 85.2232 11.7737 85.513 11.9708C85.7449 12.1331 86.1043 12.2143 86.5681 12.2143H88.0522C88.4464 12.2143 88.6899 12.1795 88.771 12.1331C88.5275 11.9476 88.342 11.7042 88.2145 11.4259C88.087 11.1708 88.029 10.9042 88.029 10.6259C88.029 10.4288 88.0638 10.2433 88.1217 10.0926C88.4116 9.36212 89.0377 8.89836 89.8261 8.89836C90.2087 8.89836 90.5565 9.0027 90.858 9.23459C91.1478 9.44328 91.3565 9.73314 91.5188 10.0926C91.5884 10.2433 91.6232 10.4056 91.6232 10.5911C91.6232 10.881 91.5652 11.1476 91.4377 11.4143C91.2985 11.7157 91.113 11.9592 90.8696 12.1447C90.9507 12.2027 91.1942 12.2259 91.5884 12.2259H92.4116V13.1071H92.4232ZM90.313 11.5302C90.6493 11.2868 90.8232 10.9621 90.8232 10.5447C90.8232 10.2781 90.742 10.0462 90.5797 9.87227C90.4058 9.67517 90.1507 9.58241 89.8377 9.58241C89.5246 9.58241 89.2696 9.68676 89.0957 9.87227C88.9333 10.0462 88.8522 10.2781 88.8522 10.5447C88.8522 10.9505 89.0261 11.2868 89.3623 11.5302C89.5014 11.6346 89.6522 11.7273 89.8377 11.8201C90.0232 11.7273 90.1855 11.6346 90.313 11.5302ZM90.2319 8.29546H89.3855V7.42589H90.2319V8.29546Z" fill="white"/>
<path d="M92.087 13.1071V12.2259H92.8754C93.3159 12.2259 93.5362 11.9244 93.5362 11.3099V9.59401H94.4058V11.2752C94.4058 11.7273 94.3594 12.0288 94.2667 12.1679V12.2143H95.0667C95.5072 12.2143 95.7275 11.9244 95.7275 11.3563V9.58241H96.5971V11.2636C96.5971 11.7621 96.5391 12.0868 96.4232 12.2027H97.2696C97.7101 12.2027 97.9304 11.9128 97.9304 11.3563V9.58241H98.8V11.252C98.8 11.6114 98.742 11.936 98.6029 12.2143H99.9246V13.0955H92.087V13.1071ZM95.0087 8.88676V8.02879H95.8551V8.88676H95.0087ZM95.7391 7.66937V6.7998H96.5855V7.66937H95.7391ZM96.458 8.88676V8.02879H97.3044V8.88676H96.458Z" fill="white"/>
<path d="M100.481 8.87517H99.6348V8.0172H100.481V8.87517ZM103.252 13.1071H99.6812V12.2259H100.481C100.736 12.2259 100.91 12.1447 101.003 11.9592C101.061 11.8433 101.096 11.6462 101.096 11.3679V9.59401H101.954V11.3215C101.954 11.7737 101.896 12.0752 101.768 12.2143H103.252V13.1071ZM101.954 8.87517H101.107V8.0172H101.954V8.87517Z" fill="white"/>
<path d="M108.168 12.5621V13.1071H102.997V12.2259H107.241C107.241 11.7505 107.101 11.3331 106.823 10.9969C106.499 10.6027 106.046 10.4056 105.49 10.4056H103.704L105.223 8.12154H106.255L105.212 9.59401H105.594C106.162 9.59401 106.661 9.73314 107.078 10.023C107.809 10.5099 108.18 11.3563 108.18 12.5621H108.168Z" fill="white"/>
<path d="M109.826 13.1071H108.968V8.10995H109.826V13.1071Z" fill="white"/>
<path fill-rule="evenodd" clip-rule="evenodd" d="M23.8095 7H14.1878C9.65603 7 8 8.65759 8 13.1885V22.8115C8 27.3424 9.65603 29 14.1878 29H23.8095C28.3399 29 30 27.3424 30 22.8115V13.1885C29.9959 8.65759 28.3399 7 23.8095 7Z" fill="#C8102E"/>
<path d="M12.3582 18.0001H12.9423V20.8761H12.3582V19.7078H11.041V20.8761H10.4583V18.0001H11.041V19.1602H12.3582V18.0001ZM15.6459 19.6468C15.6459 20.1144 15.4128 20.3638 14.9913 20.3638C14.5699 20.3638 14.3341 20.1076 14.3341 19.6265V18.0001H13.7513V19.6454C13.7513 20.4587 14.1999 20.9181 14.9846 20.9181C15.7692 20.9181 16.2286 20.4451 16.2286 19.621V17.9946H15.6459V19.6468ZM22.3879 19.9775L21.7361 18.0001H21.259L20.6058 19.9775L19.9676 18.0014H19.3455L20.3484 20.8761H20.8308L21.4854 18.9881L22.1386 20.8761H22.6264L23.6265 18.0014H23.0221L22.3879 19.9775ZM24.6754 19.6387H25.7366V19.1155H24.6754V18.5259H26.2163V18.0028H24.0995V20.8747H26.2678V20.3502H24.6754V19.6387ZM26.9671 20.872H27.543V18.0001H26.9671V20.872ZM17.3819 20.2757L17.1217 20.8747H16.5254L17.7925 18.0001H18.3075L19.5691 20.8747H18.9579L18.6991 20.2757H17.3819ZM17.5987 19.7579H18.4769L18.0337 18.7279L17.5987 19.7579Z" fill="white"/>
<path d="M18.9999 14.3391C18.0295 14.3391 17.0988 13.9536 16.4126 13.2673C15.7264 12.581 15.3409 11.6502 15.3409 10.6797H15.8586C15.8499 11.098 15.9248 11.5139 16.0789 11.9029C16.233 12.2919 16.4631 12.6463 16.7558 12.9452C17.0486 13.2441 17.398 13.4816 17.7837 13.6437C18.1694 13.8059 18.5836 13.8894 19.002 13.8894C19.4203 13.8894 19.8345 13.8059 20.2202 13.6437C20.6059 13.4816 20.9553 13.2441 21.2481 12.9452C21.5408 12.6463 21.771 12.2919 21.925 11.9029C22.0791 11.5139 22.154 11.098 22.1453 10.6797H22.663C22.663 11.1606 22.5682 11.6368 22.3841 12.081C22.1999 12.5253 21.9301 12.9289 21.5899 13.2687C21.2497 13.6086 20.8458 13.8781 20.4014 14.0617C19.957 14.2454 19.4808 14.3397 18.9999 14.3391Z" fill="white"/>
</svg>
