<svg width="59" height="20" viewBox="0 0 59 20" fill="none" xmlns="http://www.w3.org/2000/svg">
<path d="M58.9936 4.20299C58.9539 4.37083 58.9143 4.53867 58.8747 4.70651C58.4783 6.27751 57.21 7.22413 55.5518 7.17713C54.9177 7.16371 54.3033 7.063 53.6955 6.86159C53.4908 6.79446 53.2331 6.88173 53.0019 6.90859C52.6914 6.93544 52.3875 6.98915 52.0771 6.98915C49.177 6.99587 46.2704 6.99587 43.3703 6.99587C43.2712 6.99587 43.1787 6.99587 43.0532 6.99587C43.1259 6.50577 43.1919 6.04924 43.258 5.60614C44.4735 5.60614 45.6692 5.60614 46.9045 5.60614C46.8847 5.633 46.8979 5.61957 46.8979 5.61285C46.8847 4.70651 46.8715 3.80017 46.8451 2.89383C46.8385 2.72599 46.7658 2.55143 46.7064 2.3903C46.4751 1.81293 46.0458 1.51753 45.4314 1.51753C44.9492 1.51753 44.4669 1.51753 43.9781 1.51753C43.8922 1.51753 43.8063 1.51753 43.6874 1.51753C43.7535 1.061 43.8063 0.644755 43.8724 0.228509C43.879 0.181513 43.9649 0.100949 44.0111 0.100949C44.8302 0.114377 45.656 0.0673811 46.4619 0.181513C47.6708 0.356068 48.5362 1.33626 48.7476 2.63871C48.8269 3.12209 48.8335 3.6189 48.8467 4.109C48.8599 4.57895 48.8533 5.05562 48.8533 5.54572C48.9392 5.55243 49.0119 5.55915 49.0845 5.56586C50.1349 5.56586 51.1853 5.55915 52.229 5.57257C52.447 5.57257 52.5263 5.47858 52.5527 5.2906C52.5659 5.15633 52.5725 5.02205 52.5725 4.89449C52.5725 4.00158 52.5725 3.10866 52.5725 2.22246C52.5725 1.18185 52.9887 0.584332 53.9664 0.275504C54.3562 0.154658 54.7657 0.0942357 55.1621 0.0136719C55.4395 0.0136719 55.717 0.0136719 56.0011 0.0136719C56.0605 0.0270992 56.1266 0.0539538 56.186 0.0606674C57.5204 0.241936 58.4981 1.108 58.8549 2.4373C58.9077 2.64542 58.9539 2.85354 59.0002 3.06167C58.9936 3.43092 58.9936 3.82031 58.9936 4.20299ZM54.3628 1.92706C54.3826 2.18889 54.4156 2.41044 54.4156 2.63199C54.4222 3.4712 54.4288 4.31041 54.4156 5.15633C54.4156 5.36445 54.4883 5.4383 54.6732 5.45173C54.9969 5.47187 55.3272 5.51886 55.6509 5.52558C56.3578 5.539 56.8202 5.19661 57.0118 4.5051C57.1835 3.87402 57.1835 3.23622 57.0184 2.60514C56.9193 2.22918 56.7211 1.90021 56.338 1.77265C55.6509 1.54438 54.9837 1.67194 54.3628 1.92706Z" fill="black"/>
<path d="M42.3577 0.120553C42.285 0.590509 42.2189 1.04032 42.1463 1.52371C42.0406 1.52371 41.9481 1.52371 41.849 1.52371C40.6203 1.52371 39.3915 1.52371 38.1562 1.52371C37.9845 1.52371 37.8127 1.52371 37.6409 1.55056C37.1389 1.61098 36.8746 1.93324 36.8945 2.43005C36.9143 2.92014 37.2182 3.2424 37.707 3.25583C38.328 3.27597 38.9555 3.25583 39.5765 3.26925C39.854 3.27597 40.138 3.29611 40.4023 3.35653C41.4328 3.57808 42.0868 4.41729 42.0736 5.49147C42.067 5.76673 42.0406 6.04199 41.9745 6.30382C41.7631 7.16317 41.1487 7.5727 40.3494 7.73383C39.9398 7.81439 39.5237 7.85468 39.1075 7.85468C36.3792 7.86139 33.6443 7.8681 30.916 7.84125C29.2116 7.82782 28.0886 6.69993 27.9895 4.97452C27.9433 4.1286 27.9036 3.27597 28.1349 2.44348C28.518 1.06718 29.575 0.227972 30.9887 0.201117C31.8474 0.18769 32.7062 0.201117 33.5848 0.201117C33.5188 0.677786 33.4527 1.14103 33.38 1.63112C33.0497 1.63112 32.726 1.63112 32.3957 1.63112C32.0787 1.63112 31.755 1.62441 31.4379 1.63784C30.8631 1.66469 30.4271 1.94667 30.2091 2.48376C30.0836 2.78587 30.0044 3.12155 29.9912 3.45052C29.9713 4.05475 29.9647 4.67241 30.0506 5.26321C30.1563 5.948 30.6187 6.35753 31.2991 6.40453C32.0985 6.45152 32.9044 6.4381 33.7103 6.44481C35.4742 6.45152 37.238 6.45152 39.0018 6.45152C39.1339 6.45152 39.266 6.45152 39.3915 6.42467C39.9266 6.32396 40.2305 5.92115 40.1843 5.39748C40.138 4.87382 39.7747 4.53813 39.2264 4.53142C38.4535 4.51799 37.6872 4.53813 36.9143 4.49785C36.0026 4.45086 35.342 3.92719 35.1042 3.13498C34.8268 2.21521 35.0778 1.24845 35.7384 0.724782C36.2669 0.308535 36.8879 0.133981 37.5286 0.127267C39.1009 0.100412 40.6797 0.11384 42.252 0.107126C42.285 0.100412 42.3114 0.107126 42.3577 0.120553Z" fill="black"/>
<path d="M58.9911 19.9996C58.3767 19.8854 57.7689 19.7646 57.1546 19.6706C56.9828 19.6438 56.7979 19.6908 56.6261 19.7176C55.8796 19.8586 55.1331 19.9459 54.3867 19.7445C53.4948 19.5028 52.9928 18.8717 52.9598 17.9519C52.9267 16.9986 53.3627 16.3138 54.2677 16.0587C54.8028 15.9043 55.3776 15.864 55.9325 15.817C56.3156 15.7834 56.6988 15.8103 57.0819 15.8103C57.2669 15.0181 56.9036 14.5212 56.1307 14.5078C55.2785 14.4944 54.4593 14.6891 53.6534 14.9711C53.5741 14.9979 53.5014 15.0181 53.4024 15.0516C53.3363 14.575 53.2702 14.1184 53.1976 13.6485C54.5254 13.2188 55.84 12.8294 57.2471 13.1114C58.271 13.3195 58.8127 13.917 58.9448 14.9643C58.9514 15.0315 58.9712 15.0919 58.9911 15.159C58.9911 16.7636 58.9911 18.3816 58.9911 19.9996ZM56.4015 16.9516C56.4015 16.9382 56.3949 16.9314 56.3949 16.918C56.0448 16.965 55.6748 16.9852 55.3379 17.0791C54.9878 17.1798 54.8227 17.5155 54.8557 17.9049C54.8821 18.2406 55.0803 18.5092 55.437 18.5427C55.8003 18.5763 56.1835 18.5494 56.5468 18.4823C57.1546 18.3749 57.1546 18.348 57.148 17.7169C57.148 17.4685 57.2074 17.1463 57.0819 17.0053C56.9696 16.8844 56.6393 16.965 56.4015 16.9516Z" fill="black"/>
<path d="M37.467 19.7847C36.8064 19.7847 36.1854 19.7847 35.538 19.7847C35.538 19.6706 35.538 19.5766 35.538 19.4759C35.538 18.2272 35.538 16.9784 35.538 15.723C35.538 15.5887 35.538 15.4544 35.5248 15.3269C35.4786 14.9509 35.2408 14.6891 34.8774 14.6488C34.4348 14.6018 34.012 14.6757 33.6619 14.8569C33.6751 15.4074 33.6949 15.9244 33.6949 16.4481C33.7016 17.4618 33.6949 18.4823 33.6949 19.4961C33.6949 19.5833 33.6949 19.6773 33.6949 19.778C33.0542 19.778 32.4332 19.778 31.7726 19.778C31.7726 19.684 31.7726 19.5833 31.7726 19.4893C31.7726 18.2406 31.7594 16.9919 31.7792 15.7364C31.7924 14.7629 31.363 14.5078 30.4646 14.6689C29.9295 14.7629 29.9295 14.7764 29.9295 15.3269C29.9295 16.7032 29.9295 18.0795 29.9295 19.4491C29.9295 19.5498 29.9295 19.6438 29.9295 19.7646C29.2689 19.7646 28.6347 19.7646 27.9741 19.7646C27.9741 19.6572 27.9741 19.5632 27.9741 19.4625C27.9741 17.8445 27.9741 16.2265 27.9741 14.6152C27.9741 13.7962 28.1789 13.5209 28.9584 13.2994C29.9229 13.0308 30.9072 12.8965 31.8981 13.098C32.169 13.1517 32.4266 13.2725 32.671 13.3934C32.8031 13.4605 32.8956 13.4739 33.0277 13.4202C33.9724 13.0174 34.9567 12.8898 35.9608 13.1382C36.846 13.3598 37.3943 13.9909 37.4274 14.9106C37.4736 16.1929 37.4604 17.4752 37.467 18.7576C37.467 19.1 37.467 19.4356 37.467 19.7847Z" fill="black"/>
<path d="M49.9231 13.3063C49.9231 13.1922 49.9231 13.1049 49.9231 13.0176C49.9231 12.1985 49.9231 11.3862 49.9231 10.5671C49.9231 10.4396 49.9363 10.3456 50.0949 10.3187C50.6762 10.2247 51.2575 10.124 51.8719 10.0166C51.8719 10.1173 51.8719 10.2113 51.8719 10.2986C51.8719 12.9773 51.8719 15.6628 51.8719 18.3415C51.8719 19.1069 51.7068 19.3419 50.9867 19.5701C50.0486 19.8655 49.0842 19.9327 48.1197 19.785C46.7192 19.5701 45.7878 18.5026 45.6755 17.0122C45.6292 16.3677 45.649 15.7299 45.8142 15.1055C46.1445 13.8434 47.0297 13.0915 48.3113 13.0646C48.7473 13.0579 49.1833 13.1586 49.6193 13.219C49.6985 13.2324 49.791 13.266 49.9231 13.3063ZM49.9231 16.502C49.9231 16.1797 49.9231 15.8508 49.9231 15.5285C49.9231 14.6356 49.9231 14.6356 49.0379 14.555C48.3509 14.4946 47.8488 14.8303 47.6771 15.5084C47.5185 16.1327 47.5185 16.7638 47.6837 17.3815C47.8687 18.073 48.3311 18.4221 49.0379 18.4087C49.2493 18.4019 49.4607 18.3549 49.6721 18.3415C49.8703 18.3281 49.9429 18.2408 49.9363 18.026C49.9099 17.5157 49.9231 17.0055 49.9231 16.502Z" fill="black"/>
<path d="M42.7009 15.8104C42.767 14.8101 42.4631 14.4811 41.5251 14.5079C40.7455 14.5281 39.9991 14.7094 39.2658 14.9645C39.1865 14.9913 39.1139 15.0115 39.0016 15.0518C38.9355 14.6019 38.876 14.1723 38.8232 13.7359C38.8166 13.6956 38.876 13.615 38.9223 13.6016C39.9792 13.2592 41.0428 12.9571 42.1658 13.0175C42.3376 13.0242 42.5094 13.0444 42.6811 13.0712C43.9495 13.2928 44.5506 13.9977 44.5572 15.3203C44.5704 16.8174 44.5572 18.3213 44.5572 19.8184C44.5572 19.8654 44.5506 19.9191 44.5506 19.993C44.3326 19.9527 44.1278 19.9326 43.923 19.8789C43.1369 19.6775 42.3574 19.6372 41.5515 19.8117C40.9768 19.9393 40.3756 19.8923 39.8009 19.6976C39.0015 19.4156 38.5722 18.8114 38.5457 17.9453C38.5193 17.0591 38.8959 16.4415 39.6754 16.1058C40.2038 15.8775 40.7654 15.8171 41.3335 15.8037C41.7893 15.797 42.2385 15.8104 42.7009 15.8104ZM42.7406 16.9987C42.1791 16.9987 41.6638 16.9651 41.1485 17.0121C40.6795 17.0524 40.4152 17.4217 40.4417 17.8782C40.4615 18.3012 40.7654 18.6167 41.2344 18.5966C41.7034 18.5764 42.1658 18.4556 42.6349 18.3683C42.6811 18.3616 42.7406 18.281 42.7406 18.234C42.7406 17.8178 42.7406 17.415 42.7406 16.9987Z" fill="black"/>
<path d="M24.9444 0H0V8.39877H24.9444V0Z" fill="#289BD7"/>
<path d="M24.9444 11.4531H0V19.8519H24.9444V11.4531Z" fill="#85B840"/>
</svg>
