<svg width="179" height="24" viewBox="0 0 179 24" fill="none" xmlns="http://www.w3.org/2000/svg">
	<g clip-path="url(#clip0_21130_102111)">
		<path fill-rule="evenodd" clip-rule="evenodd" d="M3.82673 3.97714H0V0.0881633H8.64037C10.9238 0.0881633 13.096 0.915918 14.7602 2.41959C16.4728 3.96735 17.4936 6.09796 17.6242 8.4098C17.7694 10.9078 16.9179 13.2931 15.215 15.1249C13.5411 16.9322 11.1802 17.9657 8.75164 17.9657H7.88083V14.0816H8.75164C10.1304 14.0816 11.4705 13.4939 12.4284 12.4604C13.396 11.4171 13.8846 10.0653 13.8024 8.64C13.6475 5.98041 11.427 3.97224 8.64037 3.97224H3.82673V3.97714ZM3.83157 7.86122V19.1461H7.87599V23.0302H0V22.5992V7.86122H3.83157ZM176.02 0.333061V0H177.239V0.333061H176.828V1.38612H176.426V0.333061H176.02ZM177.931 0L178.182 0.798367L178.429 0H179V1.38612H178.632V0.382041L178.332 1.38612H178.018L177.718 0.382041V1.38612H177.35V0H177.931ZM62.5241 23.0204H66.496V6.78857H62.5241V23.0204ZM62.4951 2.03265C62.4951 -0.666122 66.5589 -0.666122 66.5589 2.03265C66.5589 4.73143 62.4951 4.73143 62.4951 2.03265ZM31.7072 14.9388C31.7072 18.0147 33.8213 19.8465 36.4531 19.8465C42.6938 19.8465 42.6938 10.0604 36.4531 10.0604C33.8213 10.0604 31.7072 11.8629 31.7072 14.9388ZM41.199 6.88653H45.1272V23.0204H41.2039L41.1941 20.6645C40.2847 22.5649 37.7787 23.4808 35.9935 23.5102C31.2476 23.5445 27.7353 20.5959 27.7353 14.9388C27.7353 9.37469 31.4072 6.46531 36.0903 6.49469C38.2334 6.49469 40.2847 7.50857 41.1941 9.1151L41.199 6.88653ZM125.552 6.62694C130.109 6.62694 132.354 9.44816 132.354 14.2971V23.0204H128.382V14.2971C128.382 12.1665 127.501 10.3641 125.353 10.3641C123.205 10.3641 121.87 12.2302 121.87 14.3657V23.0204H117.898V14.3608C117.898 12.2302 116.79 10.2955 114.608 10.2955C112.46 10.2955 111.188 12.2302 111.188 14.3608V23.0204H107.216V6.82286H111.193L111.188 8.79184C112.035 7.15102 113.888 6.56327 115.421 6.56327C117.342 6.56327 119.262 7.35184 120.172 9.58041C121.614 7.28327 123.466 6.62694 125.552 6.62694ZM135.368 23.0204H139.306V0.0979592H135.368V23.0204ZM100.303 15.1151V6.85714H104.241V23.0547H100.429L100.434 20.8555C98.774 22.4963 97.2404 23.28 94.9957 23.28C91.1544 23.28 88.3533 20.3608 88.3533 15.3453V6.85714H92.3252V15.3159C92.3252 17.7747 93.6604 19.6457 96.2003 19.6457C98.6434 19.6408 100.303 17.5788 100.303 15.1151ZM156.262 12.8522C159.291 13.0433 163.132 13.7094 163.132 17.8776C163.132 20.6449 160.819 23.0302 156.228 23.0302C153.688 23.0302 151.149 22.6188 148.807 20.2286L150.762 17.4612C151.898 18.7004 154.506 19.6261 156.296 19.6555C157.791 19.6849 159.194 18.9257 159.194 17.7796C159.194 16.6971 158.284 16.2514 156.001 16.1241C152.972 15.8988 149.359 14.8212 149.359 11.2555C149.359 7.63102 153.2 6.35755 156.132 6.35755C158.638 6.35755 160.524 6.83755 162.382 8.42449L160.166 10.9714C159.029 9.92326 157.723 9.57061 156.194 9.57061C154.308 9.57061 153.263 10.1437 153.263 11.1282C153.268 12.1518 154.211 12.7249 156.262 12.8522ZM142.334 23.0204H146.306V6.78857H142.334V23.0204ZM78.5664 6.59265C82.3447 6.59265 85.3684 9.44327 85.3684 14.5273V23.0204H81.3965V14.5616C81.3965 12.1029 80.0613 10.2318 77.5214 10.2318C75.0783 10.2318 73.4189 12.2988 73.4189 14.7576V23.0204H69.4809V6.82286H73.2883V9.01714C74.9187 7.41061 76.5442 6.59265 78.5664 6.59265ZM142.228 2.03265C142.228 -0.666122 146.291 -0.666122 146.291 2.03265C146.291 4.73143 142.228 4.73143 142.228 2.03265ZM20.7737 23.0204H24.7117V0.0979592H20.7737V23.0204ZM49.7958 6.88653C50.5892 6.87674 51.0681 6.45061 51.1068 5.54449V0.102857L55.0787 0.117551V6.88653H59.5053V10.3298H55.0448V17.3143C55.0448 18.8571 55.8914 19.6114 57.1251 19.6114C57.7443 19.6114 58.9102 19.4155 59.5005 19.1216L59.5053 20.5371V22.7706C58.6345 23.0596 57.8314 23.1967 56.8638 23.2212C53.3806 23.3535 51.102 21.3502 51.102 17.3192V10.3298H48.1074V6.88653H49.7958ZM166.31 6.85224C167.104 6.84245 167.588 6.41143 167.626 5.50531V0.0636735L171.598 0.0783674V6.84735H176.025V10.2906H171.564V17.2751C171.564 18.818 172.411 19.5722 173.649 19.5722C174.269 19.5722 175.435 19.3763 176.025 19.0776L176.03 20.4931V22.7265C175.159 23.0155 174.361 23.1527 173.388 23.1771C169.905 23.3094 167.626 21.3061 167.626 17.2751V10.2955H164.632V6.85224H166.31Z" fill="url(#paint0_linear_21130_102111)"/>
	</g>
	<defs>
		<linearGradient id="paint0_linear_21130_102111" x1="181.78" y1="36.3077" x2="-0.570241" y2="14.6469" gradientUnits="userSpaceOnUse">
			<stop stop-color="#0066FF"/>
			<stop offset="1" stop-color="#B81AD6"/>
		</linearGradient>
		<clipPath id="clip0_21130_102111">
			<rect width="179" height="24" fill="white"/>
		</clipPath>
	</defs>
</svg>
