<svg width="141" height="18" viewBox="0 0 141 18" xmlns="http://www.w3.org/2000/svg">
<path fill-rule="evenodd" clip-rule="evenodd" d="M3.01435 3.04496H0V0.0674992H6.80611C8.60481 0.0674992 10.3159 0.701241 11.6268 1.85248C12.9758 3.03746 13.7799 4.66869 13.8828 6.43867C13.9971 8.35114 13.3264 10.1774 11.985 11.5799C10.6665 12.9636 8.80678 13.7548 6.89376 13.7548H6.20781V10.7811H6.89376C7.97984 10.7811 9.03543 10.3311 9.78997 9.53988C10.5521 8.74114 10.937 7.70615 10.8722 6.61492C10.7503 4.57869 9.00113 3.04121 6.80611 3.04121H3.01435V3.04496ZM3.01816 6.01867V14.6586H6.204V17.6323H0V17.3023V6.01867H3.01816ZM138.653 0.254997V0H139.613V0.254997H139.289V1.06124H138.973V0.254997H138.653ZM140.158 0L140.356 0.611242L140.55 0H141V1.06124H140.71V0.292496L140.474 1.06124H140.226L139.99 0.292496V1.06124H139.701V0H140.158ZM49.2509 17.6248H52.3796V5.19743H49.2509V17.6248ZM49.228 1.55623C49.228 -0.509993 52.4291 -0.509993 52.4291 1.55623C52.4291 3.62245 49.228 3.62245 49.228 1.55623ZM24.9761 11.4374C24.9761 13.7923 26.6414 15.1948 28.7145 15.1948C33.6304 15.1948 33.6304 7.7024 28.7145 7.7024C26.6414 7.7024 24.9761 9.08239 24.9761 11.4374ZM32.4529 5.27243H35.5472V17.6248H32.4567L32.4491 15.8211C31.7326 17.276 29.7586 17.9773 28.3524 17.9998C24.614 18.026 21.8474 15.7686 21.8474 11.4374C21.8474 7.17741 24.7398 4.94994 28.4286 4.97244C30.1168 4.97244 31.7326 5.74868 32.4491 6.97866L32.4529 5.27243ZM98.8981 5.07369C102.488 5.07369 104.256 7.23366 104.256 10.9461V17.6248H101.127V10.9461C101.127 9.31488 100.434 7.9349 98.7419 7.9349C97.0499 7.9349 95.9981 9.36363 95.9981 10.9986V17.6248H92.8695V10.9949C92.8695 9.36363 91.9968 7.8824 90.2781 7.8824C88.5861 7.8824 87.5839 9.36363 87.5839 10.9949V17.6248H84.4552V5.22368H87.5877L87.5839 6.73117C88.2508 5.47493 89.7103 5.02494 90.9183 5.02494C92.4312 5.02494 93.9441 5.62868 94.6605 7.33491C95.7962 5.57618 97.2557 5.07369 98.8981 5.07369ZM106.63 17.6248H109.732V0.0749991H106.63V17.6248ZM79.0095 11.5724V5.24993H82.1115V17.651H79.1086L79.1124 15.9673C77.8053 17.2235 76.5973 17.8235 74.8291 17.8235C71.8033 17.8235 69.5968 15.5886 69.5968 11.7486V5.24993H72.7255V11.7261C72.7255 13.6086 73.7773 15.0411 75.778 15.0411C77.7024 15.0373 79.0095 13.4586 79.0095 11.5724ZM123.089 9.83988C125.475 9.98612 128.501 10.4961 128.501 13.6873C128.501 15.8061 126.679 17.6323 123.062 17.6323C121.062 17.6323 119.061 17.3173 117.217 15.4873L118.756 13.3686C119.652 14.3173 121.706 15.0261 123.116 15.0486C124.293 15.0711 125.399 14.4898 125.399 13.6123C125.399 12.7836 124.682 12.4423 122.883 12.3448C120.498 12.1723 117.651 11.3474 117.651 8.61739C117.651 5.84243 120.677 4.86744 122.986 4.86744C124.96 4.86744 126.447 5.23493 127.91 6.44992L126.165 8.39989C125.269 7.5974 124.24 7.32741 123.036 7.32741C121.55 7.32741 120.726 7.76615 120.726 8.51989C120.73 9.30363 121.473 9.74238 123.089 9.83988ZM112.118 17.6248H115.247V5.19743H112.118V17.6248ZM61.8876 5.04744C64.8638 5.04744 67.2456 7.22991 67.2456 11.1224V17.6248H64.1169V11.1486C64.1169 9.26613 63.0651 7.83365 61.0644 7.83365C59.14 7.83365 57.8329 9.41613 57.8329 11.2986V17.6248H54.7309V5.22368H57.73V6.90366C59.0142 5.67368 60.2946 5.04744 61.8876 5.04744ZM112.034 1.55623C112.034 -0.509993 115.235 -0.509993 115.235 1.55623C115.235 3.62245 112.034 3.62245 112.034 1.55623ZM16.3636 17.6248H19.4656V0.0749991H16.3636V17.6248ZM39.2247 5.27243C39.8496 5.26493 40.2269 4.93869 40.2574 4.24495V0.078749L43.3861 0.0899989V5.27243H46.873V7.90865H43.3594V13.2561C43.3594 14.4373 44.0263 15.0148 44.9981 15.0148C45.4858 15.0148 46.4042 14.8648 46.8692 14.6398L46.873 15.7236V17.4335C46.187 17.6548 45.5544 17.7598 44.7923 17.7785C42.0485 17.8798 40.2536 16.346 40.2536 13.2598V7.90865H37.8947V5.27243H39.2247ZM131.004 5.24618C131.629 5.23868 132.01 4.90869 132.041 4.21495V0.0487494L135.169 0.0599992V5.24243H138.656V7.87865H135.143V13.2261C135.143 14.4073 135.81 14.9848 136.785 14.9848C137.273 14.9848 138.191 14.8348 138.656 14.6061L138.66 15.6898V17.3998C137.974 17.621 137.345 17.726 136.579 17.7448C133.836 17.846 132.041 16.3123 132.041 13.2261V7.8824H129.682V5.24618H131.004Z" fill="url(#paint0_linear_5607_7827)"/>
<defs>
<linearGradient id="paint0_linear_5607_7827" x1="143.189" y1="13.6154" x2="6.06163" y2="-20.6008" gradientUnits="userSpaceOnUse">
<stop stop-color="#0066FF"/>
<stop offset="1" stop-color="#B81AD6"/>
</linearGradient>
</defs>
</svg>
