<svg width="70" height="20" viewBox="0 0 70 20" fill="none" xmlns="http://www.w3.org/2000/svg">
<path d="M45.4004 14.7712V4.20643H47.2441V5.05356C47.8052 4.37196 48.6369 4.00195 49.6689 4.00195C51.7931 4.00195 53.3162 5.64752 53.3162 8.0039C53.3162 10.3603 51.7831 12.0351 49.6689 12.0351C48.6268 12.0351 47.8052 11.6456 47.2441 10.964V14.7712H45.4004ZM47.2441 7.03019V8.97761C47.6349 9.76631 48.3363 10.3408 49.3483 10.3408C50.5707 10.3408 51.3923 9.45473 51.3923 7.99416C51.3923 6.55307 50.5707 5.67673 49.3483 5.67673C48.3363 5.68647 47.6349 6.22201 47.2441 7.03019Z" fill="#02AA7C"/>
<path d="M54.5098 9.63957C54.5098 8.35427 55.3314 7.45846 56.6941 7.29293L59.8304 6.90345V6.5237C59.8304 6.06606 59.5899 5.82263 59.149 5.82263H55.2112V4.19653H59.2192C60.8123 4.19653 61.6841 4.95603 61.6841 6.29975V11.8012H59.8204V10.8762C59.2793 11.6162 58.3875 12.0349 57.2352 12.0349C55.612 12.0349 54.5098 11.0709 54.5098 9.63957ZM57.6861 10.5743C58.628 10.5743 59.4997 10.0583 59.8204 9.29877V8.34454L57.4256 8.66586C56.7643 8.75349 56.3935 9.09429 56.3935 9.64931C56.3935 10.2433 56.8645 10.5743 57.6861 10.5743Z" fill="#02AA7C"/>
<path d="M63.0255 13.1449H64.3682C64.8792 13.1449 65.1097 12.9404 65.28 12.4731L65.5205 11.8012L62.6748 4.19653H64.5986L66.3722 9.49351H66.4123L68.1056 4.19653H69.9994L66.8832 12.9307C66.4624 14.1284 65.9012 14.771 64.5285 14.771H63.0255V13.1449Z" fill="#02AA7C"/>
<path d="M6.76349 20C8.90777 20 10.6713 19.3476 11.8336 18.2571C12.7053 17.4197 13.2164 16.2902 13.2164 14.9854C13.2164 13.8072 12.7655 12.7459 11.9338 11.9377C11.1021 11.1295 9.90977 10.5355 8.40677 10.2532L5.94185 9.78578C4.91982 9.60078 4.33866 9.10419 4.33866 8.41285C4.33866 7.5073 5.24045 6.88413 6.68333 6.88413C7.58513 6.88413 8.35667 7.1665 8.86769 7.6631C9.18833 8.0039 9.40877 8.44207 9.47891 8.93866L13.036 8.15969C12.9358 7.16651 12.4548 6.29017 11.7234 5.56962C10.5511 4.44985 8.75747 3.73905 6.64325 3.73905C4.68936 3.73905 3.0561 4.36222 1.92384 5.3554C0.961919 6.23174 0.420839 7.40993 0.420839 8.72444C0.420839 9.87342 0.801599 10.8471 1.57314 11.5871C2.34468 12.3369 3.46692 12.8919 4.93986 13.2425L7.37471 13.8072C8.59715 14.0896 9.13823 14.5278 9.13823 15.3067C9.13823 16.2707 8.23643 16.8354 6.76349 16.8354C5.70137 16.8354 4.83966 16.4946 4.29858 15.9299C3.91782 15.5599 3.68736 15.0536 3.6573 14.4985L0 15.2775C0.1002 16.3389 0.61122 17.2736 1.38276 18.0234C2.59518 19.26 4.5591 20 6.76349 20ZM33.8375 20C36.2122 20 38.0359 19.1626 39.2884 17.9747C40.2804 17.0399 40.8916 15.9494 41.2122 14.8296L37.4647 13.6125C37.3044 14.1772 36.9838 14.7712 36.4728 15.2288C35.8615 15.7936 35.0299 16.1928 33.8375 16.1928C32.7453 16.1928 31.7233 15.7838 30.9818 15.073C30.2403 14.3233 29.7894 13.2327 29.7894 11.8598C29.7894 10.4576 30.2403 9.3963 30.9818 8.64654C31.7133 7.926 32.7153 7.55599 33.8074 7.55599C34.9597 7.55599 35.7613 7.926 36.3425 8.49075C36.8235 8.95813 37.114 9.55209 37.3044 10.1461L41.122 8.89971C40.8315 7.80915 40.2202 6.7186 39.3285 5.81305C38.0459 4.59591 36.1822 3.72931 33.7173 3.72931C31.4427 3.72931 29.3886 4.5667 27.9157 6.00779C26.4428 7.46836 25.541 9.50341 25.541 11.8695C25.541 14.2356 26.4728 16.261 27.9758 17.7313C29.4387 19.1626 31.5229 20 33.8375 20ZM20.8817 20C22.545 20 23.7374 19.5034 24.2484 19.0652V15.6962C23.8576 15.9786 23.0961 16.3194 22.0941 16.3194C21.3827 16.3194 20.8716 16.1636 20.4909 15.8228C20.1702 15.5112 20.0099 14.9757 20.0099 14.2648V0H15.7715V4.20643H24.2384V8.19864H15.7715V15.2775C15.7715 16.7089 16.2224 17.8676 17.024 18.6758C17.9258 19.5326 19.2484 20 20.8817 20Z" fill="#502C84"/>
</svg>
