<svg width="24" height="24" viewBox="0 0 24 24" fill="none" xmlns="http://www.w3.org/2000/svg">
	<rect y="-6.10352e-05" width="24" height="24" rx="12" fill="#25D366"/>
	<path d="M5.49365 18.4799L6.40463 15.1519C5.84249 14.1778 5.54711 13.0735 5.54765 11.9411C5.54927 8.40085 8.43016 5.51996 11.9699 5.51996C13.6876 5.5205 15.3 6.18956 16.5129 7.40347C17.7252 8.61739 18.3926 10.2309 18.3921 11.947C18.3904 15.4878 15.5095 18.3687 11.9699 18.3687C10.8953 18.3682 9.83632 18.0987 8.89834 17.5868L5.49365 18.4799ZM9.05602 16.4242C9.96106 16.9615 10.8251 17.2833 11.9677 17.2838C14.9096 17.2838 17.3061 14.8895 17.3077 11.9459C17.3088 8.99647 14.9236 6.60536 11.972 6.60428C9.02794 6.60428 6.63305 8.99863 6.63197 11.9416C6.63143 13.1431 6.98351 14.0428 7.5748 14.984L7.03535 16.9539L9.05602 16.4242ZM15.205 13.4736C15.165 13.4066 15.0581 13.3667 14.8972 13.2862C14.7368 13.2058 13.9479 12.8175 13.8004 12.764C13.6536 12.7106 13.5466 12.6836 13.4392 12.8445C13.3323 13.0049 13.0245 13.3667 12.9311 13.4736C12.8376 13.5805 12.7437 13.594 12.5833 13.5136C12.4229 13.4331 11.9056 13.2641 11.2927 12.7171C10.8159 12.2915 10.4935 11.7661 10.4001 11.6052C10.3067 11.4448 10.3904 11.3579 10.4703 11.278C10.5426 11.2061 10.6307 11.0906 10.7111 10.9966C10.7927 10.9037 10.8191 10.8368 10.8731 10.7293C10.9266 10.6224 10.9001 10.5284 10.8596 10.448C10.8191 10.3681 10.4984 9.57805 10.365 9.25675C10.2343 8.94409 10.102 8.98621 10.0037 8.98135L9.69592 8.97595C9.589 8.97595 9.41512 9.01591 9.26824 9.17683C9.12136 9.33775 8.70664 9.72547 8.70664 10.5155C8.70664 11.3055 9.28174 12.0685 9.36166 12.1754C9.44212 12.2824 10.493 13.9034 12.1027 14.5984C12.4856 14.7637 12.7847 14.8625 13.0175 14.9365C13.4019 15.0585 13.7519 15.0412 14.0283 15.0002C14.3367 14.9543 14.9776 14.6119 15.1116 14.2372C15.2455 13.8619 15.2455 13.5406 15.205 13.4736Z" fill="white"/>
</svg>